<svg width="600" height="600" viewBox="0 0 600 600" fill="none" xmlns="http://www.w3.org/2000/svg">
  <path
    d="M387.603 402.388C381.209 379.391 355.695 377.06 334.992 377.651C315.996 374.698 296.659 376.718 277.415 379.111C237.034 378.956 196.591 376.687 156.21 375.6C160.617 361.242 165.025 346.885 169.401 332.528C170.394 332.528 171.388 332.528 172.381 332.528C185.324 332.528 197.708 334.765 210.589 334.952C223.315 335.138 235.638 335.511 248.301 336.599C259.351 337.562 270.432 339.085 281.947 338.836C297.094 338.494 305.754 328.146 307.926 316.554C308.889 313.757 309.447 310.619 309.447 307.107C309.447 268.479 311.465 229.229 307.678 190.819C306.312 176.803 306.747 161.172 307.399 146.814C308.175 130.22 307.182 113.718 290.979 104.395C278.812 97.3718 259.289 99.516 245.725 100.946C227.009 102.903 208.82 103.96 189.98 103.991C173.064 103.991 156.179 107.068 139.604 106.85C121.819 106.601 104.003 106.819 86.2176 106.819C82.9586 106.819 80.041 107.316 77.3716 108.186C65.5149 103.649 49.3748 109.585 49.6852 126.024C50.0577 145.758 47.8539 165.398 47.6366 185.132C47.5435 195.169 53.534 201.26 60.9212 203.498C64.0561 205.58 67.7807 206.854 71.9088 206.979C113.376 208.346 155.092 207.01 196.405 202.908C196.405 202.908 196.405 202.939 196.405 202.97C196.963 204.99 197.491 207.01 197.864 209.092C198.267 211.298 198.515 216.861 198.391 221.74C198.112 231.871 196.436 240.572 192.959 251.169C192.804 251.698 192.649 252.102 192.525 252.537C176.136 251.884 159.748 251.076 143.36 250.952C123.154 250.827 89.725 250.206 71.8778 264.501C70.5431 265.029 69.3326 265.651 68.3084 266.521C64.2733 269.815 62.1938 275.937 60.766 282.059C60.766 282.122 60.7349 282.184 60.7039 282.277C59.7417 286.441 59.0589 290.574 58.2519 293.806C52.2304 318.232 48.1953 343.218 42.9809 367.83C39.846 382.623 36.5559 397.415 33.7003 412.301C30.8137 427.435 21.6573 444.092 26.2821 459.693C28.4858 467.12 33.6693 471.875 40.1874 474.858C42.0807 475.728 44.1293 476.412 46.2089 477.033C49.3748 480.079 53.8133 482.068 59.5244 482.068C159.779 482.223 259.91 491.235 360.164 486.574C361.996 486.481 363.703 486.201 365.317 485.735C375.001 485.362 384.592 478.929 384.871 466.436C385.368 445.46 393.376 423.209 387.603 402.388Z"
    fill="#0fa4b7" stroke="black" stroke-width="5px" />
  <path
    d="M570.73 215.214C564.026 198.899 549.872 192.031 533.111 190.322C519.517 188.954 502.166 186.437 488.881 190.446C459.022 199.458 457.16 235.818 458.805 267.733C453.001 266.459 447.166 265.154 441.361 263.88C438.164 263.165 434.967 262.45 431.739 261.767C431.864 242.157 432.112 222.579 432.702 203.001C433.043 191.627 432.702 179.818 434.191 168.537C435.526 158.375 438.257 148.462 439.282 138.206C441.206 119.25 434.998 100.076 417.089 91.0012C400.794 82.7038 382.419 85.3453 364.882 85.5939C358.426 85.6871 353.584 88.2665 350.356 92.0889C349.518 92.5861 348.68 93.1144 347.873 93.767C342.783 97.7137 339.555 103.836 337.817 110.175C334.185 123.383 335.24 137.678 335.489 151.259C335.706 164.311 335.582 177.394 335.582 190.446C335.644 226.401 335.613 269.598 335.861 305.584C335.892 312.142 335.054 321.092 337.506 327.959C337.754 329.607 338.127 331.222 338.655 332.838C342.659 345.393 352.932 351.795 364.82 355.804C380.774 361.18 397.504 365.376 413.737 369.944C430.56 374.667 446.048 374.046 463.181 375.227C463.771 375.258 464.889 375.227 465.758 375.227C466.006 375.973 466.285 376.718 466.503 377.495C466.844 378.987 467.775 383.12 467.806 383.4C469.327 394.028 468.458 408.354 467.589 420.163C465.851 444.186 460.543 468.612 461.226 492.727C461.536 503.977 470.134 512.181 481.215 512.74C503.501 513.89 533.95 518.023 551.083 504.505C558.408 502.236 564.398 496.145 564.398 486.17C564.398 478.712 564.523 471.253 564.678 463.764C564.678 462.8 564.709 461.868 564.74 460.905C565.95 405.837 570.172 350.863 571.444 295.795C571.692 285.26 573.369 272.395 573.027 260.057C575.417 244.985 576.628 229.54 570.73 215.214Z"
    fill="#0fa4b7" stroke="black" stroke-width="5px" />
</svg>
  