<svg width="600" height="600" viewBox="0 0 600 600" fill="none" xmlns="http://www.w3.org/2000/svg">
  <path
    d="M33.162 88.5487H125.988C159.475 88.5487 179.185 108.019 179.185 134.898C179.185 153.08 170.498 167.926 155.67 175.099C177.164 179.96 190.207 194.569 190.207 216.824C190.207 247.04 168.215 267.771 127.3 267.771H33.162V88.5487ZM111.921 157.416C120.109 157.416 124.439 151.53 124.439 143.595C124.439 136.422 119.584 130.799 111.921 130.799H87.8812V157.416H111.921ZM122.655 225.521C130.843 225.521 135.698 219.373 135.698 211.438C135.698 204.002 130.58 197.617 122.392 197.617H87.8549V225.521H122.629H122.655Z"
    fill="#ffc240" stroke="black" stroke-width="5px" />
  <path
    d="M236.187 88.5487H371.476V134.635H292.192V154.105H363.786V200.192H292.192V221.685H371.712V267.771H236.187V88.5487Z"
    fill="#ffc240" stroke="black" stroke-width="5px" />
  <path d="M435.643 88.5487H491.648V221.186H564.266V267.771H435.643V88.5487Z" fill="#ffc240"
    stroke="black" stroke-width="5px" />
  <path
    d="M27.5457 430.362V407.818C27.5457 359.183 56.9654 325.892 112.971 325.892C168.976 325.892 198.395 359.183 198.395 407.818V430.362C198.395 478.997 168.976 512.288 112.971 512.288C56.9654 512.288 27.5457 479.024 27.5457 430.362ZM142.364 433.699V404.507C142.364 383.776 131.866 372.504 112.944 372.504C94.0222 372.504 83.5246 383.776 83.5246 404.507V433.699C83.5246 454.43 94.0222 465.702 112.944 465.702C131.866 465.702 142.364 454.43 142.364 433.699Z"
    fill="#ffc240" stroke="black" stroke-width="5px" />
  <path
    d="M220.861 329.492H274.058L326.73 413.467V329.492H381.449V508.715H328.252L275.58 424.739V508.715H220.861V329.492Z"
    fill="#ffc240" stroke="black" stroke-width="5px" />
  <path
    d="M517.499 392.999C514.691 382.252 507.001 372.268 489.89 372.268C469.183 372.268 459.972 384.801 459.972 405.558V433.463C459.972 454.456 468.658 469.565 490.914 469.565C507.29 469.565 515.977 461.367 518.785 451.645H490.152V409.394H572.507V436.011C572.507 481.572 538.993 512.314 489.129 512.314C436.693 512.314 403.966 480.311 403.966 430.651V407.345C403.966 354.611 438.74 325.918 488.604 325.918C538.468 325.918 568.124 353.56 570.696 392.999H517.499Z"
    fill="#ffc240" stroke="black" stroke-width="5px" />
</svg>
  