<svg width="600" height="468" viewBox="0 0 600 468" fill="none" xmlns="http://www.w3.org/2000/svg">
  <path
    d="M8.90393 2.7804H110.168C146.7 2.7804 168.202 24.0203 168.202 53.3433C168.202 73.1787 158.725 89.3737 142.549 97.1989C165.997 102.502 180.226 118.439 180.226 142.717C180.226 175.68 156.234 198.296 111.6 198.296H8.90393V2.7804ZM94.8227 77.9082C103.755 77.9082 108.479 71.4875 108.479 62.831C108.479 55.0058 103.183 48.8718 94.8227 48.8718H68.5976V77.9082H94.8227ZM106.532 152.205C115.465 152.205 120.762 145.497 120.762 136.841C120.762 128.729 115.179 121.764 106.246 121.764H68.569V152.205H106.504H106.532Z"
    fill="#215cd7" stroke="black" stroke-width="5" />
  <path
    d="M230.386 2.7804H377.974V53.0567H291.483V74.2966H369.585V124.573H291.483V148.02H378.232V198.296H230.386V2.7804Z"
    fill="#215cd7" stroke="black" stroke-width="5" />
  <path d="M447.974 2.7804H509.071V147.475H588.29V198.296H447.974V2.7804Z" fill="#215cd7"
    stroke="black" stroke-width="5" />
  <path
    d="M2.7771 375.668V351.074C2.7771 298.017 34.8714 261.7 95.9679 261.7C157.064 261.7 189.159 298.017 189.159 351.074V375.668C189.159 428.724 157.064 465.041 95.9679 465.041C34.8714 465.041 2.7771 428.753 2.7771 375.668ZM128.034 379.308V347.463C128.034 324.847 116.582 312.55 95.9393 312.55C75.297 312.55 63.845 324.847 63.845 347.463V379.308C63.845 401.924 75.297 414.22 95.9393 414.22C116.582 414.22 128.034 401.924 128.034 379.308Z"
    fill="#215cd7" stroke="black" stroke-width="5" />
  <path
    d="M213.666 265.627H271.699L329.16 357.237V265.627H388.853V461.143H330.82L273.36 369.534V461.143H213.666V265.627Z"
    fill="#215cd7" stroke="black" stroke-width="5" />
  <path
    d="M537.272 334.908C534.208 323.184 525.82 312.292 507.153 312.292C484.564 312.292 474.515 325.965 474.515 348.609V379.05C474.515 401.952 483.991 418.434 508.269 418.434C526.134 418.434 535.611 409.491 538.674 398.885H507.439V352.794H597.28V381.83C597.28 431.533 560.72 465.07 506.323 465.07C449.12 465.07 413.418 430.158 413.418 375.983V350.558C413.418 293.03 451.353 261.729 505.75 261.729C560.147 261.729 592.499 291.883 595.305 334.908H537.272Z"
    fill="#215cd7" stroke="black" stroke-width="5" />
</svg>
  