<svg width="552" height="596" viewBox="0 0 552 596" fill="none" xmlns="http://www.w3.org/2000/svg">
  <path
    d="M413.755 591.057C410.425 591.185 407.095 591.21 403.765 591.441C392.238 592.235 380.66 591.774 369.159 591.569C355.993 591.313 342.878 592.338 329.738 592.389C314.472 592.44 299.205 591.518 283.939 592.44C273.257 593.081 262.499 592.773 251.818 593.516C236.09 594.644 220.311 594.285 204.609 594.131C190.854 594.003 177.176 595.207 163.472 594.977C152.201 594.797 140.905 595.72 129.686 595.207C114.061 594.515 98.4871 595.745 82.8876 595.284C72.6673 594.977 62.4982 593.67 52.3035 593.106C47.0012 592.799 41.699 593.516 36.3711 592.799C26.6118 591.441 16.8013 590.595 7.70804 586.342C4.58303 584.882 2.48261 582.473 1.09941 579.399C-0.0276456 576.862 0.79203 574.659 3.37913 574.07C6.11992 573.455 8.83509 572.686 11.7552 572.661C26.7911 572.532 41.7758 570.431 56.863 571.072C64.8036 571.405 72.7442 571.687 80.7104 572.584C88.1899 573.429 95.8744 572.891 103.456 572.379C117.468 571.431 131.479 572.225 145.439 572.379C159.681 572.558 173.923 572.327 188.139 572.481C201.433 572.635 214.779 572.174 228.098 573.352C233.836 573.865 239.676 573.147 245.491 573.019C257.837 572.737 270.132 573.634 282.453 574.018C291.802 574.3 301.177 574.326 310.527 573.967C322.207 573.532 333.836 574.198 345.491 574.48C358.504 574.787 371.516 575.684 384.579 575.658C394.749 575.658 404.943 576.145 415.112 576.401C419.569 576.504 423.796 575.351 428.15 575.684C430.123 575.838 431.608 575.197 431.455 572.789C430.686 560.542 435.041 549.268 437.986 537.713C444.902 510.631 453.022 483.883 458.632 456.442C462.244 438.866 466.547 421.418 470.543 403.893C472.925 393.465 475.717 383.114 477.613 372.584C481.096 353.419 485.733 334.536 489.191 315.371C492.418 297.411 496.363 279.527 501.972 262.13C507.377 245.297 511.194 228.054 515.804 211.016C519.186 198.538 522.797 186.137 526.358 173.711C527.049 171.303 528.253 168.997 528.663 166.537C529.329 162.412 531.122 164.257 532.454 165.768C535.733 169.432 535.195 173.942 534.401 178.246C531.122 195.745 527.792 213.245 523.566 230.565C520.492 243.145 517.136 255.674 514.267 268.331C509.298 290.237 504.15 312.092 500.077 334.229C496.721 352.445 492.444 370.483 488.832 388.674C486.322 401.382 484.17 414.167 481.993 426.926C478.56 447.014 473.591 466.742 469.006 486.573C465.497 501.843 461.885 517.114 459.093 532.486C456.199 548.397 451.972 563.898 448.207 579.578C446.619 586.163 441.035 590.057 434.221 590.211C427.407 590.339 420.594 590.698 413.78 590.929C413.78 590.954 413.78 591.005 413.78 591.031L413.755 591.057Z"
    fill="#f687a8" stroke="black" stroke-width="5" />
  <path
    d="M488.089 231.231C489.703 231.18 490.599 231.052 491.445 231.128C493.622 231.333 496.106 230.027 497.951 231.692C498.975 232.614 495.774 239.993 493.904 241.095C481.634 248.141 469.851 255.981 456.736 261.541C447.72 265.358 438.678 269.176 429.457 272.404C414.036 277.836 398.693 283.396 383.99 290.621C370.414 297.283 358.888 306.532 349.513 318.241C341.828 327.849 337.294 338.994 335.373 351.318C333.247 364.82 333.094 378.323 333.298 391.902C333.427 399.537 335.22 406.737 337.653 413.86C342.11 426.978 347.438 439.686 354.687 451.523C357.223 455.674 360.476 459.337 363.908 462.694C376.895 475.453 390.573 487.342 406.019 497.231C413.96 502.33 420.491 509.581 430.046 512.245C431.711 512.707 431.378 515.038 430.763 516.371C426.562 525.44 425.461 535.279 423.463 544.887C423.002 547.116 422.31 547.603 420.03 546.194C408.837 539.199 399.385 529.975 388.883 522.11C376.818 513.091 365.932 502.561 355.711 491.646C348.514 483.96 341.393 475.633 336.885 465.64C335.168 461.848 332.043 458.697 330.225 454.931C326.562 447.295 322.591 439.737 320.952 431.308C320.901 431.026 321.029 430.616 320.901 430.462C314.958 423.544 318.749 416.191 320.209 409.145C321.951 400.716 321.9 392.107 323.437 383.678C326.485 366.896 328.739 349.934 332.351 333.255C334.759 322.161 339.062 311.426 344.082 301.203C347.002 295.233 352.663 291.338 358.529 288.238C366.393 284.088 374.333 280.039 382.095 275.786C391.444 270.662 400.23 264.308 408.222 256.98C412.679 252.907 416.393 248.218 419.672 243.324C426.204 233.562 425.512 220.931 416.265 212.245C410.578 206.916 404.277 202.304 398.668 196.898C396.055 194.387 392.366 193.721 389.318 191.902C386.475 190.186 386.577 188.495 387.448 185.881C389.139 180.757 393.468 177.99 397.182 174.761C404.405 168.51 412.525 163.36 420.773 158.748C426.665 155.469 433.99 155.75 440.83 157.262C442.238 157.57 442.136 158.466 440.573 160.465C437.781 164.077 434.861 167.613 432.223 171.328C426.613 179.22 422.643 187.47 423.591 197.795C424.334 205.917 428.099 211.169 434.247 216.114C445.62 225.287 458.991 228.028 472.797 230.104C478.15 230.923 483.478 231.846 488.166 231.256L488.089 231.231Z"
    fill="#f687a8" stroke="black" stroke-width="5" />
  <path
    d="M98.6151 100.127C106.658 100.127 114.24 97.3338 122.181 96.4883C135.782 95.0535 148.615 90.0318 161.781 86.6241C183.119 81.1155 201.356 70.4827 217.647 55.9042C229.738 45.092 238.805 31.8458 248.488 19.0607C252.356 13.9365 256.505 9.0684 259.835 3.55982C261.321 1.10017 264.164 1.22828 266.392 1.79195C268.851 2.40686 271.234 2.32999 273.641 2.20189C287.166 1.56135 300.665 3.22674 314.19 2.50934C316.418 2.38124 318.621 3.35485 320.978 3.12425C323.027 2.91928 323.744 5.25082 323.001 6.17319C318.877 11.1693 316.265 17.1391 312.013 22.084C304.046 31.3846 294.261 38.4048 283.811 44.4002C274.794 49.5757 266.034 55.3149 256.3 59.1068C251.613 60.9259 246.746 62.4632 241.802 63.4881C231.249 65.6659 222.437 70.9951 214.65 78.0666C208.247 83.857 201.715 89.6218 197.335 97.3082C195.593 100.357 194.62 103.406 194.825 106.942C195.439 116.832 191.956 126.132 190.291 135.689C189.804 138.456 189.061 141.198 189.164 144.093C189.266 146.552 188.651 147.808 185.552 146.885C172.13 142.94 158.221 141.044 144.748 137.098C139.625 135.586 133.887 135.023 128.252 135.535C116.366 136.586 104.583 135.253 92.8518 133.434C92.6981 133.434 92.57 133.434 92.4163 133.434C90.0854 133.05 87.0372 134.997 85.5772 132.486C84.527 130.667 86.6274 128.387 86.9348 126.132C87.7801 119.881 89.1633 113.706 90.3415 107.506C91.2637 102.723 94.0045 100.263 98.5639 100.127H98.6151Z"
    fill="#f687a8" stroke="black" stroke-width="5" />
  <path
    d="M506.89 128.387C492.367 128.413 477.817 128.797 463.294 128.387C453.535 128.105 443.775 128.182 434.067 127.618C424.026 127.055 414.011 127.823 403.97 127.362C371.516 125.876 339.139 128.541 306.761 130.232C285.527 131.333 264.292 131.846 243.083 133.152C240.624 133.306 238.37 132.307 235.86 132.461C224.768 133.05 221.541 136.073 220.67 147.09C219.748 158.774 217.314 170.278 216.059 181.91C214.932 192.338 213.088 202.689 212.576 213.193C212.063 223.442 211.679 233.716 211.167 243.965C210.578 255.827 210.45 267.69 209.681 279.527C209.476 282.807 209.527 286.24 208.733 289.596C208.093 292.338 207.478 293.568 204.635 294.285C200.742 295.233 196.746 294.9 192.878 296.002C190.137 296.77 188.959 294.9 188.523 292.107C187.755 287.137 189.471 282.448 190.137 277.734C190.649 274.07 190.982 270.175 190.854 266.793C190.496 257.416 191.802 248.167 191.853 238.866C191.904 230.078 193.928 221.495 194.671 212.758C195.26 205.891 196.259 199.076 197.104 192.235C198.667 179.527 200.767 166.87 201.689 154.136C202.432 143.862 203.713 133.767 206.018 123.775C207.376 117.908 209.092 116.832 215.24 115.961C233.452 113.398 251.843 113.629 270.158 112.937C281.864 112.502 293.595 110.836 305.276 111.016C315.266 111.169 325.332 110.145 335.322 111.861C337.115 112.169 339.087 111.349 341.009 111.272C355.635 110.683 370.286 109.632 384.912 109.811C397.259 109.94 409.656 109.094 421.977 110.145C431.019 110.913 440.061 109.427 449.001 110.836C459.17 112.45 469.441 112.066 479.636 113.065C481.506 113.245 483.427 113.142 485.271 112.886C494.646 111.631 503.791 113.936 513.012 114.756C518.673 115.269 524.232 114.756 529.79 114.654C533.479 114.577 533.555 115.807 532.326 118.625C530.174 123.621 525.077 124.39 520.979 126.081C516.624 127.874 511.706 128.669 506.839 128.413L506.89 128.387Z"
    fill="#f687a8" stroke="black" stroke-width="5" />
  <path
    d="M157.171 560.26C154.123 560.362 151.074 560.26 148.052 560.67C145.081 561.054 145.004 559.85 145.49 557.518C147.77 546.655 148.436 535.689 146.592 524.697C144.158 509.991 135.782 499.896 122.258 493.952C116.904 491.595 111.576 489.161 106.12 487.111C92.2371 481.884 77.9952 481.346 63.3691 483.601C56.5043 484.651 49.6652 485.574 42.9029 487.111C38.2153 488.187 33.912 490.211 29.6344 492.107C25.2542 494.029 20.4899 494.695 16.2634 496.924C14.3167 497.949 13.8812 496.283 14.163 494.849C16.5708 482.627 19.0554 470.431 21.5145 458.236C21.5913 457.826 21.4632 457.365 21.5913 456.98C22.6415 454.136 21.7962 448.986 24.1015 448.653C27.7901 448.115 31.9141 448.013 35.9356 448.577C41.1354 449.32 46.4889 449.576 51.74 449.294C70.1571 448.243 88.5741 450.652 107.017 449.243C110.577 448.961 114.394 449.678 118.108 449.524C122.027 449.371 124.896 451.907 127.355 454.085C136.781 462.463 146.079 470.944 154.84 480.039C161.243 486.701 163.831 495.002 165.829 503.457C168.569 515.089 171.105 526.85 170.67 538.943C170.439 545.348 169.901 551.754 169.696 558.133C169.645 559.799 168.928 560.004 167.596 560.029C164.112 560.106 160.654 560.26 157.196 560.388C157.196 560.337 157.196 560.26 157.196 560.209L157.171 560.26Z"
    fill="#f687a8" stroke="black" stroke-width="5" />
  <path
    d="M409.682 563.36C398.693 563.77 388.985 564.564 379.277 564.359C370.081 564.154 360.911 562.873 351.716 562.105C350.281 561.976 348.821 562.053 347.361 562.156C333.708 562.976 320.056 561.49 306.377 561.695C293.98 561.874 281.531 560.542 269.056 560.619C253.534 560.721 238.908 556.263 224.487 550.857C217.058 548.09 218.774 537.867 223.129 532.794C232.683 521.674 243.646 512.297 255.378 503.483C266.572 495.054 273.539 483.447 273.334 468.843C273.257 464.282 271.772 459.722 270.747 455.187C270.158 452.599 270.132 452.061 273.437 452.24C282.658 452.778 291.828 453.624 300.973 454.905C305.097 455.494 308.734 455.904 309.528 461.105C309.835 463.104 311.142 465 312.269 466.768C320.209 479.373 328.534 491.697 337.832 503.381C342.417 509.145 348.565 513.219 353.432 518.6C365.112 531.564 379.585 541.326 392.802 552.522C397.592 556.57 402.997 559.901 409.656 563.309L409.682 563.36ZM330.686 556.698C333.017 556.622 334.912 556.57 336.782 556.468C342.469 556.16 346.439 552.445 347.796 546.962C348.795 542.914 348.258 539.045 347.284 535.202C345.799 529.335 343.57 523.314 338.421 520.06C329.507 514.475 322.515 507.352 316.546 498.82C314.215 495.515 312.883 492.235 312.55 488.392C312.192 484.293 308.811 481.039 304.635 481.013C301.587 481.013 298.539 481.321 295.517 481.295C292.853 481.269 290.983 482.294 289.215 484.267C283.58 490.519 277.945 496.745 271.977 502.663C264.984 509.632 260.399 517.6 259.169 527.516C258.529 532.64 260.732 537.739 264.779 540.941C269.697 544.81 275.819 544.964 281.275 547.09C290.086 550.524 299.743 550.139 308.759 553.035C315.957 555.341 323.334 557.698 330.686 556.673V556.698Z"
    fill="#f687a8" stroke="black" stroke-width="5" />
  <path
    d="M350.153 376.376C347.515 366.87 349.385 356.186 354.61 346.296C362.858 330.642 375.435 319.112 390.855 310.683C406.685 302.023 423.796 296.514 440.676 290.442C454.995 285.317 469.108 279.732 482.582 272.584C483.606 272.046 484.733 270.611 486.04 271.584C487.5 272.661 485.784 273.942 485.604 275.043C484.657 280.552 483.222 285.958 482.044 291.415C481.327 294.695 480.072 297.385 476.998 299.307C462.397 308.402 447.618 316.473 430.276 319.855C413.37 323.16 397.515 330.001 385.271 342.965C380.814 347.705 379.303 354.111 376.921 360.004C371.721 372.84 368.826 386.265 370.414 399.973C372.054 414.218 377.023 427.388 386.654 438.738C394.031 447.449 403.662 452.65 412.833 458.748C418.365 462.438 423.898 466.153 429.79 469.176C432.351 470.483 435.374 470.995 438.217 471.636C441.547 472.379 442.264 474.48 441.547 477.426C440.625 481.218 439.728 485.036 438.575 488.776C437.679 491.723 436.04 493.106 432.915 490.852C422.669 483.498 412.346 476.248 402.049 468.971C391.47 461.49 381.864 452.83 374.282 442.325C364.728 429.053 359.118 413.86 354.482 398.282C352.51 391.646 350.512 385.01 350.102 376.401L350.153 376.376Z"
    fill="#f687a8" stroke="black" stroke-width="5" />
  <path
    d="M128.252 409.94C120.618 411.118 113.011 409.427 105.377 409.863C101.945 410.068 100.459 406.762 98.0772 405.071C90.0342 399.281 81.9655 393.593 73.7431 388.033C64.2144 381.577 55.6334 373.865 47.2574 365.999C46.3096 365.102 45.3875 364.077 44.2348 363.565C41.2891 362.233 40.828 359.645 41.2635 357.108C42.1856 351.754 43.7738 346.501 44.7215 341.121C45.2338 338.277 46.3609 338.379 48.0002 339.865C52.5853 344.067 57.324 348.141 61.5248 352.727C64.6499 356.135 67.7493 359.491 71.8989 361.464C78.6356 364.667 84.0147 369.791 90.0854 373.916C99.0506 379.963 107.862 386.265 118.006 390.314C124.64 392.953 131.3 392.543 136.961 388.648C149.205 380.244 161.269 371.482 172.949 362.309C186.525 351.677 199.563 340.352 212.96 329.463C218.237 325.159 224.999 323.57 230.813 320.162C238.6 315.602 246.438 311.195 253.201 305.097C254.815 303.637 257.017 303.38 259.169 303.252C265.368 302.919 271.541 302.894 277.714 303.304C278.867 303.38 279.866 303.483 279.533 304.892C278.816 307.839 278.944 310.964 276.433 313.398C267.955 321.597 258.606 328.643 248.769 335.1C235.731 343.683 221.976 350.934 208.119 358.056C190.701 367.024 175.101 378.528 162.755 393.696C157.222 400.511 150.434 404.687 143.083 408.453C138.446 410.836 133.144 409.12 128.2 409.888L128.252 409.94Z"
    fill="#f687a8" stroke="black" stroke-width="5" />
  <path
    d="M65.3415 248.884C63.3947 238.354 66.9808 228.694 68.8251 218.856C69.1325 217.242 69.2093 215.525 69.6704 213.86C71.3866 207.736 73.5126 205.994 79.8395 205.251C89.65 204.098 99.1275 205.917 108.554 208.069C113.088 209.094 117.749 208.761 122.181 208.761C137.114 208.735 151.459 211.041 165.342 216.37C169.338 217.908 173.564 218.676 177.688 218.958C181.069 219.189 181.018 220.598 180.736 222.93C179.865 229.642 178.354 236.355 178.303 243.094C178.226 250.857 177.099 258.646 178.149 266.383C178.508 269.074 177.406 270.995 175.306 272.148C166.136 277.093 158.118 283.78 149.435 289.442C145.106 292.261 140.905 295.284 136.628 298.205C129.917 302.766 122.77 302.509 115.393 300.101C108.118 297.718 100.639 295.72 93.7739 292.286C84.86 287.828 79.5577 279.527 73.4101 272.097C67.6724 265.153 63.9583 257.877 65.3927 248.91L65.3415 248.884ZM125.664 274.249C130.608 273.916 134.297 274.018 137.934 272.891C152.842 268.279 164.112 259.671 159.809 241.044C158.528 235.535 157.452 230.462 151.971 226.875C142.442 220.598 131.838 220.649 121.387 220.521C113.523 220.444 105.915 222.391 98.8713 226.824C88.9584 233.05 84.2452 241.864 86.1663 252.932C87.6264 261.387 92.109 267.434 100.152 270.585C108.759 273.942 117.801 274.326 125.664 274.249Z"
    fill="#f687a8" stroke="black" stroke-width="5" />
  <path
    d="M176.536 296.155C176.612 298 176.638 299.102 176.689 300.178C176.997 306.583 178.021 307.685 184.425 307.685C191.853 307.685 199.23 306.967 206.505 305.251C208.042 304.892 209.963 304.38 211.423 306.019C196.336 313.501 185.398 326.337 172.207 336.253C159.45 345.835 146.797 355.597 134.015 365.154C132.837 366.025 131.914 367.075 130.839 367.997C128.2 370.303 125.255 370.765 122.232 369.074C110.782 362.668 99.4861 355.981 89.9061 346.809C89.4963 346.399 89.112 345.784 88.6254 345.656C78.738 342.991 73.7944 334.229 66.7247 328.105C62.6775 324.595 58.1181 321.623 53.6098 318.702C50.3824 316.601 49.5371 314.321 50.5105 310.478C52.406 302.996 53.6355 295.361 55.1724 287.777C55.326 287.008 54.6344 285.83 55.7615 285.548C56.8885 285.266 57.324 286.342 57.9644 287.137C66.2124 297.436 74.8446 307.48 87.4727 312.45C95.8487 315.781 103.969 320.188 112.985 321.572C127.534 323.801 141.161 321.572 153.303 312.425C160.654 306.891 168.39 301.818 176.561 296.104L176.536 296.155Z"
    fill="#f687a8" stroke="black" stroke-width="5" />
  <path
    d="M322.284 152.189C315.88 161.387 312.883 171.149 311.808 181.295C310.809 190.8 315.214 198.974 321.08 206.199C325.87 212.092 331.454 217.19 338.037 221.162C345.414 225.62 345.645 227.695 340.573 234.562C334.554 242.709 325.665 247.628 318.519 254.495C317.93 255.059 316.623 254.854 315.65 254.982C307.607 255.955 299.538 254.546 291.495 255.059C289.164 255.212 288.908 254.136 288.934 252.266C288.985 247.859 290.061 243.58 290.496 239.225C291.213 231.82 291.597 224.185 289.907 217.293C288.088 209.811 285.117 202.228 280.686 195.617C277.407 190.724 274.64 185.471 270.619 181.09C266.188 176.273 259.963 174.249 254.533 171.021C252.612 169.868 250.562 168.843 248.744 167.536C247.181 166.409 246.438 164.692 246.49 162.694C246.72 155.494 254.149 149.473 261.193 150.857C265.393 151.702 269.671 152.266 273.898 151.933C284.579 151.087 295.235 151.856 305.891 151.882C311.09 151.882 316.418 151.882 322.258 152.163L322.284 152.189Z"
    fill="#f687a8" stroke="black" stroke-width="5" />
  <path
    d="M460.169 98.8711C455.123 97.2826 448.335 99.4604 441.726 97.9744C440.625 97.7438 439.523 97.4363 439.344 96.4627C438.14 89.7756 433.734 84.5232 431.352 78.3485C429.61 73.8135 428.381 69.2016 427.638 64.5386C426.588 58.0051 431.455 54.1619 435.604 50.3187C438.012 48.0897 440.727 47.6285 444.364 47.9616C463.294 49.7294 481.378 47.5773 497.515 35.9196C505.149 30.411 512.269 24.4412 517.905 17.0879C523.873 9.29901 531.301 7.9667 539.857 10.0676C542.828 10.8107 545.748 10.1701 548.719 10.99C550.948 11.5793 551.383 12.4761 551.076 14.0133C550.205 18.5483 549.001 23.0064 548.079 27.5158C547.823 28.8225 547.029 29.6167 546.107 30.2572C536.168 37.0981 526.178 43.8622 516.265 50.7287C508.222 56.3141 501.409 63.1806 495.594 71.0464C495.159 71.6357 494.775 72.2506 494.237 72.7374C488.192 78.5534 482.992 85.0869 477.638 91.4922C473.386 96.5652 468.238 99.0505 460.169 98.8455V98.8711Z"
    fill="#f687a8" stroke="black" stroke-width="5" />
  <path
    d="M202.611 559.952C199.461 560.132 196.31 560.285 193.16 560.465C190.649 560.593 190.649 558.953 190.419 557.083C189.445 548.448 191.52 539.916 191.29 531.333C190.931 519.343 187.473 507.864 185.424 496.155C182.991 482.14 175.511 470.867 166.213 460.593C162.883 456.903 158.4 454.572 153.969 451.01C161.653 450.242 168.569 450.831 175.511 450.806C193.441 450.754 211.346 452.343 229.302 451.728C233.068 451.6 236.833 452.138 240.701 451.651C245.414 451.036 250.178 457.236 251.69 462.181C254.123 470.124 251.664 476.401 247.207 482.397C243.775 487.034 238.78 489.904 234.169 493.209C222.873 501.331 213.267 511.349 204.814 522.186C198.206 530.667 197.412 541.223 200.178 551.728C200.818 554.136 201.177 556.673 202.791 558.723L202.611 559.952Z"
    fill="#f687a8" stroke="black" stroke-width="5" />
  <path
    d="M235.424 2.71432C225.486 15.4225 216.725 28.9762 204.789 39.5322C192.596 50.3443 179.404 60.2342 163.446 65.1535C150.357 69.2016 137.242 73.3779 123.846 76.2475C117.135 77.6823 109.963 77.5542 103.123 79.0146C102.432 79.1683 101.586 79.0146 101.023 79.3477C99.691 80.1419 98.3846 80.5263 97.0526 79.5527C95.1828 78.1947 96.7965 76.6831 97.0526 75.2995C98.2053 68.9454 99.4861 62.617 100.639 56.2629C101.253 52.8552 102.329 50.1906 106.453 49.6782C111.935 49.012 117.314 47.4748 122.796 47.0392C137.601 45.8606 150.332 39.6346 161.705 30.7697C171.259 23.3139 180.07 14.8588 187.499 5.12272C190.752 0.869582 195.849 2.15065 200.024 2.48373C210.603 3.32923 221.08 2.09941 231.607 2.22751C232.735 2.22751 233.887 1.76633 235.373 2.71432H235.424Z"
    fill="#f687a8" stroke="black" stroke-width="5" />
  <path
    d="M390.906 395.463C389.651 381.782 395.133 370.047 400.486 358.594C403.688 351.754 411.654 349.627 418.084 346.04C430.02 339.404 443.673 338.968 456.173 334.433C461.68 332.435 466.675 329.719 471.593 326.721C472.49 326.158 473.309 325.389 474.206 326.004C474.923 326.491 474.488 327.465 474.308 328.361C473.104 334.126 472.029 339.942 470.927 345.733C470.364 348.628 468.955 349.96 465.702 350.703C453.535 353.419 441.624 356.98 430.251 362.335C422.413 366.025 417.315 371.328 415.368 379.937C413.704 387.316 416.367 393.67 419.313 399.947C425.768 413.757 436.808 421.469 451.87 423.339C453.355 423.519 453.227 424.057 452.997 425.082C451.178 433.127 449.411 441.198 447.489 449.243C447.157 450.677 446.491 451.805 444.16 451.087C437.756 449.166 431.864 446.68 426.537 442.35C420.415 437.38 412.73 434.818 406.557 429.591C396.951 421.469 390.753 408.044 390.906 395.489V395.463Z"
    fill="#f687a8" stroke="black" stroke-width="5" />
  <path
    d="M40.7768 417.37C48.1283 418.036 55.4797 418.625 62.8056 419.394C67.8517 419.932 72.8722 420.957 77.9183 421.341C87.5495 422.058 97.2063 421.495 106.863 421.239C119.799 420.905 132.734 420.521 145.644 420.752C153.636 420.905 161.628 421.879 169.671 421.469C180.378 420.931 190.982 422.443 201.638 422.878C210.065 423.237 218.518 423.339 226.946 423.698C236.884 424.134 246.797 425.107 256.71 425.799C265.496 426.414 274.128 428.822 283.093 427.926C286.654 427.567 287.781 425.774 288.242 423.083C289.574 415.371 290.163 407.557 289.958 399.768C289.497 383.216 290.137 366.639 290.368 350.114C290.547 337.79 292.161 325.261 294.774 313.014C295.645 308.992 297.002 308.812 300.46 311.323C304.61 314.346 305.122 318.548 304.559 322.853C302.894 335.561 302.535 348.371 301.51 361.131C300.486 373.48 303.022 385.574 302.304 397.872C301.638 409.273 300.076 420.675 300.87 432.153C300.998 434.177 299.82 433.921 298.513 434.229C294.185 435.253 289.907 434.459 285.757 433.588C281.223 432.64 276.638 432.794 272.156 432.666C259.22 432.256 246.157 432.845 233.324 431.846C217.878 430.667 202.56 430.488 187.243 431.769C180.48 432.333 173.82 432.102 167.109 431.948C157.273 431.718 147.463 430.975 137.652 430.488C133.912 430.308 130.147 430.437 126.459 430.539C115.009 430.872 103.559 428.771 92.109 431.052C87.9081 431.897 83.4512 431.615 79.1222 431.692C69.6191 431.897 60.1416 432.845 50.5873 432.051C46.7963 431.718 44.7983 429.079 42.1856 427.336C39.5217 425.543 37.4725 422.75 35.3465 420.239C34.3219 419.035 34.4243 417.78 36.4479 417.677C37.8823 417.575 39.3424 417.575 40.8024 417.498C40.8024 417.447 40.8024 417.37 40.8024 417.318L40.7768 417.37Z"
    fill="#f687a8" stroke="black" stroke-width="5" />
  <path
    d="M2.68753 550.575C5.32586 541.121 6.78591 532.794 8.24595 524.441C8.73264 521.674 11.371 519.445 13.497 518.984C24.7932 516.601 35.0135 511.272 45.951 507.941C66.3148 501.689 86.5506 499.025 106.402 509.888C109.373 511.528 112.601 512.681 115.7 514.141C121.745 516.985 125.485 521.674 126.817 528.233C128.764 537.892 127.765 547.321 124.691 556.622C123.41 560.516 120.08 559.466 117.826 559.132C111.628 558.184 105.454 558.851 99.3068 559.004C96.8477 559.056 95.9768 558.594 95.4902 555.853C92.7494 540.864 84.9881 527.465 66.0843 526.158C55.4797 525.415 45.2338 527.618 34.7829 527.823C29.6856 527.926 26.202 533.383 21.8474 536.201C15.495 540.301 9.47547 544.887 2.71315 550.575H2.68753Z"
    fill="#f687a8" stroke="black" stroke-width="5" />
  <path
    d="M356.813 151.984C366.239 152.958 375.665 153.931 385.117 154.905C385.886 154.982 387.013 154.367 387.218 155.622C387.371 156.596 386.449 156.98 385.681 157.441C380.302 160.644 376.05 165.128 372.182 169.893C366.418 177.016 363.473 192.825 368.032 199.973C372.105 206.327 378.278 210.17 384.528 213.783C390.138 217.037 394.851 221.341 399.923 225.184C403.944 228.233 403.688 229.694 401.024 233.69C394.416 243.58 384.784 249.96 374.974 255.981C367.853 260.362 360.348 264.154 353.278 268.689C349.026 271.431 348.36 271.072 346.336 266.691C343.57 260.67 344.518 256.468 350.256 252.804C359.554 246.834 364.164 238.2 365.445 227.567C366.726 217.011 360.911 210.734 352.433 205.61C344.415 200.767 337.089 194.925 333.247 185.804C332.709 184.498 332.428 183.268 332.607 182.089C334.477 170.79 339.318 161.08 348.386 153.829C350.819 151.882 353.944 152.778 356.787 151.984H356.813Z"
    fill="#f687a8" stroke="black" stroke-width="5" />
  <path
    d="M181.249 198.948C176.126 198.026 170.951 196.745 166.008 194.849C156.991 191.364 147.975 188.853 138.036 189.007C131.863 189.109 125.536 188.418 119.286 188.033C111.832 187.572 104.43 185.881 97.0526 184.472C91.2893 183.37 85.5772 184.446 79.8395 184.498C76.8937 184.523 75.1775 184.882 76.3558 180.578C78.4306 173.019 79.5577 165.205 80.864 157.441C81.2995 154.802 82.5546 153.598 85.1161 153.829C92.1602 154.418 99.2555 154.726 106.223 155.853C110.449 156.545 114.573 156.186 118.672 155.93C128.303 155.341 137.703 156.519 146.848 159.312C158.093 162.771 170.029 163.411 181.095 167.562C181.915 167.869 183.195 167.178 183.964 167.254C185.475 167.408 187.268 167.049 187.038 170.431C186.474 178.656 185.68 186.855 184.988 195.079C184.784 197.436 184.476 199.486 181.223 198.948H181.249Z"
    fill="#f687a8" stroke="black" stroke-width="5" />
  <path
    d="M278.662 100.998C266.264 101.433 253.892 102.484 241.444 102.099C234.707 101.894 228.047 103.432 221.362 104.277C220.414 104.405 218.979 105.148 218.339 103.662C217.647 102.099 219.21 101.869 220.004 101.177C226.561 95.566 232.632 89.2631 240.573 85.548C246.797 82.6272 253.662 81.4999 260.245 79.6551C269.082 77.2211 276.664 72.2506 284.63 67.9462C293.442 63.1806 301.946 58.0051 310.091 52.1378C321.618 43.8365 330.711 33.4343 337.935 21.2385C340.778 16.4473 343.083 11.5024 344.646 6.19881C345.363 3.73916 346.823 2.4581 349.333 2.9449C351.587 3.38047 353.816 3.58544 356.121 3.58544C358.17 3.58544 358.606 4.81526 357.991 6.86496C356.454 11.8867 354.379 16.6011 351.587 21.0592C344.697 32.0763 338.191 43.3497 330.763 53.9826C325.537 61.4896 319.031 68.1255 313.165 75.197C309.784 79.2708 306.761 83.6777 303.099 87.4696C300.127 90.5442 297.13 93.4138 295.44 97.4619C294.389 99.9472 291.521 99.4348 289.497 99.896C285.988 100.665 282.299 100.665 278.713 100.998H278.662Z"
    fill="#f687a8" stroke="black" stroke-width="5" />
  <path
    d="M494.211 9.52959C490.42 11.0412 487.73 13.0141 485.681 16.5755C482.582 21.9559 476.255 21.7253 470.927 22.7758C461.552 24.6205 451.998 24.1081 442.52 24.8255C435.425 25.3636 429.175 28.3869 423.949 33.2037C416.726 39.8909 409.195 46.4243 407.786 57.1084C407.069 62.412 407.428 67.5875 408.657 72.763C410.604 80.9618 412.5 89.1863 417.674 96.8727C413.422 96.7189 409.887 97.8719 405.712 97.1801C399.82 96.2065 393.621 97.1801 387.551 97.3082C386.398 97.3338 385.245 97.3851 384.067 97.4363C377.945 97.6413 377.74 97.4107 379.687 91.5434C385.04 75.3764 389.779 59.0044 397.207 43.6059C400.614 36.5345 405.148 30.2316 410.015 24.2362C414.139 19.1376 418.929 14.5514 423.36 9.68332C425.102 7.76172 427.1 7.0187 429.713 6.83935C440.522 6.12196 451.332 6.68562 462.116 6.83935C472.694 6.99308 483.478 5.89136 494.211 9.50397V9.52959Z"
    fill="#f687a8" stroke="black" stroke-width="5" />
  <path
    d="M223.59 411.656C210.962 410.606 198.206 411.528 185.629 409.606C185.065 409.53 184.451 409.735 183.887 409.606C181.94 409.273 179.097 411.067 178.226 408.197C177.509 405.866 180.429 405.2 181.71 403.944C186.91 398.871 192.135 393.747 197.873 389.314C207.094 382.166 217.417 376.709 227.868 371.508C235.168 367.869 242.417 364.205 249.333 359.901C252.33 358.031 255.352 356.545 259.118 356.186C264.138 355.725 267.11 351.497 270.337 348.167C272.771 345.681 275.588 343.785 278.124 341.531C279.046 340.736 280.045 340.583 280.916 340.89C282.376 341.403 280.839 342.402 280.993 343.273C281.71 347.27 280.045 351.19 280.583 355.264C280.89 357.621 279.892 358.723 277.125 359.389C255.711 364.564 240.65 377.144 233.144 398.154C232.197 400.793 231.428 403.611 232.043 406.455C232.939 410.759 231.198 412.169 227.099 411.605C225.972 411.451 224.794 411.656 223.616 411.707L223.59 411.656Z"
    fill="#f687a8" stroke="black" stroke-width="5" />
  <path
    d="M270.747 230.59C271.336 237.508 269.902 243.734 268.698 249.986C268.237 252.394 266.93 254.29 263.754 254.367C253.918 254.572 244.082 254.982 234.246 255.443C231.659 255.571 231.275 255.059 231.428 252.215C232.53 232.589 234.886 213.142 239.471 194.003C239.625 193.311 239.651 192.594 239.727 191.902C240.188 187.623 241.008 187.239 244.441 189.699C244.902 190.032 245.388 190.339 245.926 190.493C257.146 193.824 261.398 203.534 265.726 212.835C268.365 218.523 271.49 224.364 270.747 230.616V230.59Z"
    fill="#f687a8" stroke="black" stroke-width="5" />
  <path
    d="M265.726 267.306C275.435 266.947 285.143 266.127 294.851 266.358C308.836 266.691 322.822 266.716 336.756 268.151C337.909 268.279 339.062 268.023 340.24 268.023C343.544 268.023 344.876 269.56 343.877 272.789C342.878 275.991 342.878 279.271 343.263 282.525C343.544 284.882 342.622 285.241 340.471 285.522C332.53 286.547 324.974 284.088 317.238 283.242C313.857 282.858 310.399 282.576 307.069 282.474C296.592 282.115 286.09 280.911 275.614 281.935C268.672 282.627 261.756 282.217 255.019 281.346C250.306 280.731 245.491 279.373 240.726 278.348C239.266 278.041 237.909 278.092 236.5 277.939C232.555 277.503 229.661 272.635 231.377 269.304C232.069 267.946 233.426 268.536 234.476 268.484C244.902 268.049 255.327 267.69 265.778 267.306H265.726Z"
    fill="#f687a8" stroke="black" stroke-width="5" />
  <path
    d="M398.539 6.01947C380.097 24.6974 372.31 48.6277 364.241 72.3787C361.833 79.4502 359.4 86.5217 357.376 93.7213C356.762 95.9247 355.84 96.5652 353.918 96.5908C344.595 96.7189 335.271 96.8214 325.947 97.0008C324.82 97.0008 323.872 96.6933 323.462 95.7453C322.924 94.5155 324.436 94.6436 324.871 94.0543C334.938 80.0395 348.181 68.5099 356.352 53.0346C362.141 42.0687 370.722 32.7169 375.025 20.8798C376.562 16.6523 378.022 12.4248 380.199 8.50474C381.096 6.86498 382.044 5.22521 384.118 5.17397C388.755 5.09711 393.442 3.96977 398.565 5.99385L398.539 6.01947Z"
    fill="#f687a8" stroke="black" stroke-width="5" />
  <path
    d="M508.94 189.494C507.403 195.207 506.609 200.229 504.303 204.841C503.432 206.609 502.356 207.48 500.435 208.3C490.522 212.527 480.584 211.272 470.568 209.017C462.935 207.301 455.481 205.405 448.847 200.793C442.623 196.463 441.982 194.669 445.927 188.085C449.59 181.961 454.252 176.581 458.478 170.893C461.27 167.101 464.216 163.437 467.162 159.747C467.751 158.979 468.263 157.928 469.416 157.903C470.415 157.903 471.644 157.698 472.336 158.184C473.463 159.004 472.157 160.08 471.824 160.772C470.133 164.205 468.929 167.587 468.827 171.584C468.596 180.987 471.491 184.6 481.429 187.239C488.883 189.238 496.491 190.954 504.329 190.57C505.712 190.493 507.121 190.647 508.888 189.494H508.94Z"
    fill="#f687a8" stroke="black" stroke-width="5" />
  <path
    d="M162.166 2.48374C146.694 19.0095 129.174 29.8217 105.787 28.0282C107.913 23.0577 108.4 17.7284 109.476 12.5529C111.141 4.55907 112.678 3.76481 120.516 1.56138C127.073 -0.283359 133.631 0.972086 139.855 1.04895C146.976 1.15144 154.456 1.17706 162.166 2.48374Z"
    fill="#f687a8" stroke="black" stroke-width="5" />
  <path
    d="M278.713 374.941C278.918 380.629 279.738 386.368 279.149 391.953C278.611 397.18 278.995 402.279 279.046 407.454C279.123 414.346 278.329 415.448 271.669 415.064C267.468 414.833 263.293 414.039 259.092 413.424C252.714 412.502 251.766 410.811 253.559 403.124C255.762 393.721 262.781 388.136 270.747 383.626C274.256 381.654 277.97 379.937 277.125 374.582C277.637 374.71 278.15 374.813 278.662 374.941H278.713Z"
    fill="#f687a8" stroke="black" stroke-width="5" />
  <path
    d="M455.737 403.227C448.77 401.894 442.341 399.384 438.806 392.722C433.529 382.781 434.349 383.755 443.007 379.527C449.103 376.529 455.789 374.71 462.295 372.532C463.781 372.046 465.42 371.943 464.728 374.787C462.653 383.37 460.835 392.005 459.067 400.639C458.658 402.689 457.582 403.252 455.712 403.227H455.737Z"
    fill="#f687a8" stroke="black" stroke-width="5" />
  <path
    d="M540.702 60.2598C539.805 65.4353 539.242 70.2777 538.422 75.0433C537.961 77.7592 536.578 80.0395 534.401 81.8586C529.303 86.1117 524.257 90.4417 519.186 94.7205C514.139 98.9992 508.171 99.691 501.87 99.153C500.948 99.0761 499.974 99.0761 499.667 98.2818C499.308 97.3595 500.384 96.847 500.922 96.2577C511.86 84.6 523.105 73.2754 536.168 63.9493C537.756 62.8219 539.191 61.4896 540.702 60.2598Z"
    fill="#f687a8" stroke="black" stroke-width="5" />
  <path
    d="M75.6899 560.132C64.3681 559.696 53.5842 558.979 42.826 559.901C38.2153 560.285 33.6047 560.516 28.9684 560.772C28.1487 560.823 26.7143 560.824 26.6374 560.567C26.33 559.466 27.4059 558.825 28.1743 558.338C36.1405 553.419 44.4141 549.191 53.5842 546.757C57.2472 545.784 60.8332 545.502 64.5474 545.938C72.6417 546.886 73.5638 553.573 75.6899 560.132Z"
    fill="#f687a8" stroke="black" stroke-width="5" />
  <path
    d="M36.2942 384.831C45.8229 391.159 52.7133 400.332 62.7031 405.558C63.7021 406.096 64.2656 407.07 63.8814 408.095C63.2154 409.786 62.3189 408.172 61.4992 408.095C53.3281 407.172 45.1826 406.071 36.9346 406.353C31.9653 406.532 31.5298 406.096 32.5032 401.382C33.6559 395.873 35.0135 390.39 36.2942 384.831Z"
    fill="#f687a8" stroke="black" stroke-width="5" />
  <path
    d="M501.332 169.791C500.026 169.842 498.591 170.252 497.464 169.842C495.645 169.202 492.828 170.073 492.29 167.178C491.88 165 495.415 161.464 497.874 161.182C503.33 160.593 508.53 162.335 513.883 162.899C514.575 162.976 516.342 162.54 516.317 163.847C516.317 164.923 515.727 166.025 514.447 166.844C511.04 168.997 507.198 168.971 503.509 169.688C502.818 169.817 502.075 169.765 501.332 169.791Z"
    fill="#f687a8" stroke="black" stroke-width="5" />
  <path
    d="M202.611 559.952C202.663 559.542 202.714 559.132 202.791 558.723C202.944 559.056 203.124 559.414 203.277 559.747C203.047 559.824 202.842 559.875 202.611 559.952Z"
    fill="#f687a8" stroke="black" stroke-width="5" />
  <path
    d="M324.385 536.227C316.572 534.1 309.733 531.718 302.689 530.437C296.797 529.361 290.932 528.31 285.066 527.055C281.223 526.235 280.481 524.39 282.581 521.059C285.706 516.114 290.624 512.912 294.287 508.53C295.722 506.814 296.439 507.506 297.54 508.889C302.074 514.5 306.685 520.009 310.809 525.953C313.012 529.156 316.213 531.231 319.825 532.64C321.362 533.229 323.078 533.537 324.385 536.227Z"
    fill="#f687a8" stroke="black" stroke-width="5" />
  <path
    d="M124.281 241.172C127.355 241.454 130.429 240.993 133.631 241.428C137.78 241.966 138.574 244.887 139.855 247.552C140.521 248.91 140.086 250.447 138.036 251.215C128.303 254.777 118.544 255.366 108.707 251.728C105.275 250.447 105.429 248.73 107.785 246.373C112.396 241.736 118.159 240.941 124.281 241.198V241.172Z"
    fill="#f687a8" stroke="black" stroke-width="5" />
</svg>
  