<svg width="600" height="600" viewBox="0 0 600 600" fill="none" xmlns="http://www.w3.org/2000/svg">
  <path
    d="M427.012 570.993C423.933 571.111 420.854 571.135 417.775 571.348C407.117 572.082 396.412 571.656 385.777 571.467C373.604 571.23 361.477 572.177 349.327 572.225C335.211 572.272 321.095 571.419 306.979 572.272C297.103 572.864 287.156 572.58 277.279 573.267C262.737 574.309 248.147 573.978 233.629 573.836C220.91 573.717 208.263 574.831 195.592 574.617C185.171 574.452 174.726 575.304 164.352 574.831C149.905 574.191 135.505 575.328 121.081 574.902C111.631 574.617 102.228 573.409 92.8017 572.888C87.899 572.604 82.9963 573.267 78.07 572.604C69.0462 571.348 59.9751 570.566 51.5672 566.634C48.6777 565.283 46.7356 563.056 45.4566 560.214C44.4145 557.868 45.1724 555.831 47.5645 555.286C50.0987 554.717 52.6093 554.007 55.3093 553.983C69.212 553.865 83.0674 551.922 97.0175 552.514C104.36 552.822 111.702 553.083 119.068 553.912C125.983 554.694 133.089 554.196 140.099 553.722C153.055 552.846 166.01 553.58 178.918 553.722C192.087 553.888 205.255 553.675 218.4 553.817C230.692 553.959 243.032 553.533 255.347 554.623C260.653 555.097 266.053 554.433 271.429 554.315C282.845 554.054 294.214 554.883 305.606 555.239C314.251 555.499 322.919 555.523 331.564 555.191C342.364 554.789 353.117 555.404 363.893 555.665C375.925 555.949 387.956 556.779 400.035 556.755C409.438 556.755 418.864 557.205 428.267 557.442C432.388 557.537 436.296 556.471 440.322 556.779C442.146 556.921 443.52 556.328 443.378 554.102C442.667 542.778 446.693 532.354 449.417 521.669C455.812 496.629 463.32 471.896 468.507 446.524C471.846 430.272 475.825 414.139 479.52 397.935C481.723 388.293 484.304 378.722 486.057 368.985C489.278 351.265 493.565 333.805 496.762 316.085C499.746 299.478 503.394 282.942 508.581 266.856C513.578 251.292 517.107 235.348 521.37 219.594C524.497 208.057 527.836 196.591 531.128 185.101C531.768 182.874 532.881 180.742 533.26 178.467C533.876 174.653 535.534 176.359 536.765 177.757C539.797 181.144 539.299 185.314 538.565 189.294C535.534 205.474 532.455 221.655 528.547 237.67C525.705 249.302 522.602 260.886 519.949 272.589C515.354 292.844 510.594 313.052 506.828 333.521C503.725 350.365 499.77 367.043 496.431 383.863C494.11 395.613 492.12 407.435 490.107 419.232C486.933 437.806 482.338 456.047 478.099 474.384C474.854 488.503 471.515 502.622 468.933 516.837C466.257 531.548 462.349 545.881 458.867 560.379C457.399 566.468 452.236 570.069 445.936 570.211C439.636 570.329 433.336 570.661 427.035 570.874C427.035 570.898 427.035 570.945 427.035 570.969L427.012 570.993Z"
    fill="#ffc240" stroke="black" stroke-width="3px" />
  <path
    d="M495.744 238.286C497.236 238.238 498.065 238.12 498.846 238.191C500.86 238.38 503.157 237.172 504.862 238.712C505.81 239.565 502.849 246.388 501.12 247.406C489.775 253.921 478.881 261.17 466.754 266.311C458.417 269.841 450.057 273.371 441.53 276.356C427.272 281.378 413.085 286.519 399.491 293.2C386.938 299.359 376.28 307.911 367.611 318.738C360.506 327.622 356.314 337.927 354.538 349.322C352.572 361.807 352.43 374.292 352.619 386.848C352.738 393.907 354.396 400.564 356.646 407.15C360.767 419.28 365.693 431.03 372.396 441.975C374.74 445.813 377.748 449.201 380.922 452.304C392.93 464.102 405.577 475.094 419.859 484.239C427.201 488.953 433.241 495.657 442.075 498.121C443.614 498.548 443.307 500.704 442.738 501.935C438.854 510.322 437.836 519.419 435.988 528.303C435.562 530.364 434.922 530.814 432.814 529.511C422.464 523.044 413.725 514.515 404.014 507.242C392.859 498.903 382.793 489.166 373.343 479.074C366.688 471.967 360.103 464.268 355.935 455.029C354.348 451.522 351.459 448.608 349.777 445.126C346.39 438.066 342.719 431.078 341.203 423.283C341.156 423.023 341.274 422.644 341.156 422.502C335.661 416.105 339.166 409.306 340.516 402.791C342.127 394.997 342.08 387.037 343.501 379.243C346.319 363.726 348.403 348.043 351.743 332.621C353.969 322.363 357.948 312.436 362.59 302.984C365.29 297.464 370.525 293.863 375.948 290.997C383.219 287.159 390.562 283.416 397.738 279.483C406.383 274.745 414.506 268.87 421.896 262.094C426.017 258.328 429.451 253.992 432.483 249.467C438.522 240.441 437.883 228.762 429.333 220.731C424.075 215.803 418.249 211.539 413.062 206.54C410.646 204.219 407.235 203.603 404.417 201.921C401.788 200.334 401.883 198.77 402.688 196.354C404.251 191.616 408.254 189.057 411.688 186.072C418.367 180.292 425.875 175.53 433.501 171.266C438.949 168.233 445.722 168.494 452.046 169.892C453.349 170.176 453.254 171.005 451.809 172.853C449.228 176.193 446.528 179.462 444.088 182.898C438.901 190.194 435.23 197.822 436.107 207.37C436.793 214.88 440.275 219.736 445.959 224.308C456.475 232.789 468.838 235.324 481.604 237.243C486.554 238.001 491.481 238.854 495.815 238.309L495.744 238.286Z"
    fill="#ffc240" stroke="black" stroke-width="3px" />
  <path
    d="M135.623 117.062C143.06 117.062 150.07 114.48 157.413 113.698C169.989 112.371 181.855 107.728 194.029 104.577C213.758 99.4838 230.621 89.6523 245.684 76.1725C256.863 66.1752 265.247 53.9273 274.2 42.1058C277.777 37.3677 281.613 32.8666 284.692 27.7732C286.066 25.4989 288.695 25.6173 290.756 26.1385C293.029 26.7071 295.232 26.636 297.458 26.5176C309.964 25.9253 322.445 27.4652 334.951 26.8018C337.011 26.6834 339.048 27.5836 341.227 27.3704C343.122 27.1809 343.785 29.3367 343.098 30.1896C339.285 34.8092 336.869 40.329 332.937 44.9013C325.572 53.5009 316.524 59.992 306.861 65.5356C298.524 70.321 290.424 75.6276 281.424 79.1338C277.09 80.8158 272.59 82.2372 268.019 83.1849C258.261 85.1985 250.113 90.1261 242.913 96.6647C236.992 102.019 230.953 107.349 226.902 114.456C225.292 117.275 224.392 120.094 224.581 123.364C225.15 132.508 221.929 141.108 220.389 149.944C219.939 152.503 219.252 155.038 219.347 157.715C219.442 159.989 218.873 161.15 216.008 160.297C203.597 156.649 190.736 154.896 178.278 151.247C173.542 149.849 168.236 149.328 163.026 149.802C152.036 150.773 141.141 149.542 130.294 147.859C130.152 147.859 130.033 147.859 129.891 147.859C127.736 147.504 124.918 149.305 123.568 146.983C122.597 145.301 124.539 143.192 124.823 141.108C125.604 135.327 126.883 129.618 127.973 123.885C128.826 119.463 131.36 117.188 135.576 117.062H135.623Z"
    fill="#ffc240" stroke="black" stroke-width="3px" />
  <path
    d="M513.128 143.193C499.699 143.216 486.246 143.572 472.817 143.193C463.794 142.932 454.77 143.003 445.793 142.482C436.509 141.961 427.249 142.671 417.964 142.245C387.956 140.871 358.019 143.335 328.082 144.898C308.448 145.917 288.813 146.391 269.203 147.599C266.929 147.741 264.845 146.817 262.524 146.959C252.268 147.504 249.284 150.3 248.479 160.486C247.626 171.289 245.376 181.926 244.216 192.682C243.174 202.324 241.468 211.895 240.995 221.608C240.521 231.084 240.166 240.584 239.692 250.06C239.147 261.028 239.029 271.997 238.318 282.942C238.129 285.974 238.176 289.149 237.442 292.252C236.85 294.787 236.282 295.924 233.653 296.587C230.053 297.464 226.358 297.156 222.781 298.175C220.247 298.885 219.158 297.156 218.755 294.574C218.045 289.978 219.631 285.643 220.247 281.284C220.721 277.896 221.029 274.295 220.91 271.168C220.579 262.497 221.787 253.945 221.834 245.345C221.881 237.219 223.753 229.283 224.439 221.205C224.984 214.856 225.908 208.554 226.689 202.229C228.134 190.478 230.076 178.775 230.929 167.001C231.616 157.501 232.8 148.167 234.932 138.928C236.187 133.503 237.774 132.508 243.458 131.703C260.297 129.334 277.303 129.547 294.237 128.907C305.061 128.505 315.908 126.965 326.708 127.13C335.945 127.273 345.253 126.325 354.49 127.912C356.148 128.197 357.972 127.438 359.748 127.367C373.272 126.822 386.819 125.851 400.343 126.017C411.759 126.135 423.222 125.354 434.614 126.325C442.975 127.036 451.336 125.662 459.601 126.965C469.004 128.457 478.502 128.102 487.928 129.026C489.657 129.192 491.433 129.097 493.138 128.86C501.807 127.699 510.262 129.831 518.789 130.589C524.023 131.063 529.162 130.589 534.302 130.494C537.712 130.423 537.784 131.561 536.647 134.167C534.657 138.786 529.944 139.497 526.154 141.06C522.128 142.719 517.581 143.453 513.081 143.216L513.128 143.193Z"
    fill="#ffc240" stroke="black" stroke-width="3px" />
  <path
    d="M189.765 542.517C186.947 542.612 184.129 542.517 181.334 542.896C178.586 543.251 178.515 542.138 178.965 539.982C181.073 529.937 181.689 519.798 179.984 509.635C177.734 496.036 169.989 486.702 157.484 481.206C152.534 479.027 147.607 476.776 142.563 474.881C129.726 470.048 116.557 469.551 103.033 471.635C96.6859 472.607 90.3622 473.46 84.1095 474.881C79.7753 475.876 75.7963 477.748 71.841 479.501C67.791 481.277 63.3857 481.893 59.4777 483.954C57.6777 484.902 57.2751 483.362 57.5356 482.035C59.762 470.735 62.0593 459.459 64.333 448.182C64.4041 447.803 64.2857 447.377 64.4041 447.021C65.3752 444.392 64.5936 439.63 66.7252 439.322C70.1357 438.824 73.9489 438.73 77.6673 439.251C82.4753 439.938 87.4253 440.175 92.2806 439.914C109.31 438.943 126.339 441.17 143.391 439.867C146.684 439.606 150.213 440.269 153.647 440.127C157.27 439.985 159.923 442.33 162.197 444.344C170.913 452.091 179.51 459.932 187.61 468.342C193.531 474.502 195.923 482.178 197.771 489.995C200.305 500.751 202.65 511.625 202.247 522.807C202.034 528.729 201.537 534.652 201.347 540.551C201.3 542.09 200.637 542.28 199.405 542.304C196.184 542.375 192.987 542.517 189.789 542.635C189.789 542.588 189.789 542.517 189.789 542.47L189.765 542.517Z"
    fill="#ffc240" stroke="black" stroke-width="3px" />
  <path
    d="M423.246 545.384C413.085 545.763 404.109 546.497 395.133 546.307C386.63 546.118 378.151 544.933 369.648 544.223C368.322 544.104 366.972 544.175 365.622 544.27C352.998 545.028 340.374 543.654 327.727 543.844C316.264 544.009 304.753 542.778 293.219 542.849C278.866 542.943 265.342 538.821 252.008 533.823C245.139 531.264 246.726 521.812 250.753 517.121C259.587 506.839 269.724 498.169 280.571 490.019C290.921 482.225 297.364 471.493 297.174 457.99C297.103 453.773 295.729 449.556 294.782 445.363C294.237 442.97 294.214 442.473 297.269 442.638C305.795 443.136 314.274 443.918 322.729 445.102C326.543 445.647 329.906 446.026 330.64 450.835C330.924 452.683 332.132 454.436 333.174 456.071C340.516 467.727 348.214 479.122 356.811 489.924C361.051 495.255 366.735 499.022 371.235 503.996C382.035 515.984 395.417 525.01 407.638 535.362C412.067 539.106 417.064 542.185 423.222 545.336L423.246 545.384ZM350.203 539.224C352.359 539.153 354.111 539.106 355.84 539.011C361.098 538.727 364.769 535.291 366.025 530.222C366.948 526.479 366.451 522.901 365.551 519.348C364.177 513.923 362.117 508.355 357.356 505.347C349.114 500.182 342.648 493.596 337.13 485.708C334.974 482.651 333.743 479.619 333.435 476.066C333.103 472.275 329.977 469.266 326.116 469.243C323.298 469.243 320.479 469.527 317.685 469.503C315.222 469.48 313.493 470.427 311.858 472.251C306.648 478.032 301.437 483.789 295.919 489.261C289.453 495.705 285.213 503.073 284.077 512.241C283.484 516.979 285.521 521.693 289.263 524.654C293.811 528.232 299.471 528.374 304.516 530.34C312.664 533.515 321.593 533.159 329.93 535.836C336.585 537.968 343.406 540.148 350.203 539.2V539.224Z"
    fill="#ffc240" stroke="black" stroke-width="3px" />
  <path
    d="M368.203 372.491C365.764 363.702 367.493 353.823 372.325 344.679C379.951 330.204 391.58 319.543 405.838 311.749C420.475 303.742 436.296 298.649 451.904 293.034C465.144 288.296 478.194 283.131 490.652 276.522C491.599 276.024 492.641 274.698 493.849 275.598C495.199 276.593 493.612 277.777 493.446 278.796C492.57 283.889 491.244 288.888 490.154 293.934C489.491 296.967 488.331 299.454 485.488 301.231C471.988 309.641 458.322 317.103 442.288 320.23C426.656 323.286 411.996 329.612 400.675 341.599C396.554 345.982 395.156 351.904 392.954 357.353C388.146 369.222 385.469 381.636 386.938 394.31C388.454 407.482 393.048 419.659 401.954 430.154C408.775 438.208 417.68 443.017 426.159 448.656C431.275 452.067 436.391 455.502 441.838 458.298C444.207 459.506 447.001 459.98 449.63 460.572C452.709 461.259 453.372 463.202 452.709 465.926C451.857 469.432 451.028 472.962 449.962 476.421C449.133 479.145 447.617 480.425 444.728 478.34C435.254 471.541 425.709 464.836 416.188 458.108C406.406 451.191 397.525 443.183 390.514 433.47C381.68 421.199 376.493 407.15 372.206 392.747C370.382 386.611 368.535 380.475 368.156 372.515L368.203 372.491Z"
    fill="#ffc240" stroke="black" stroke-width="3px" />
  <path
    d="M163.026 403.526C155.968 404.615 148.934 403.052 141.876 403.455C138.702 403.644 137.328 400.588 135.126 399.025C127.689 393.67 120.228 388.411 112.625 383.27C103.815 377.3 95.8806 370.17 88.1358 362.897C87.2595 362.068 86.4068 361.12 85.341 360.646C82.6173 359.414 82.191 357.022 82.5937 354.676C83.4463 349.725 84.9147 344.868 85.791 339.893C86.2647 337.264 87.3068 337.359 88.8226 338.733C93.0621 342.618 97.4438 346.385 101.328 350.625C104.217 353.776 107.083 356.879 110.92 358.704C117.149 361.665 122.123 366.403 127.736 370.217C136.026 375.808 144.173 381.636 153.552 385.379C159.686 387.819 165.844 387.44 171.078 383.839C182.4 376.069 193.555 367.966 204.355 359.485C216.908 349.654 228.963 339.183 241.35 329.114C246.229 325.134 252.482 323.666 257.858 320.515C265.058 316.298 272.305 312.223 278.558 306.585C280.05 305.234 282.087 304.998 284.077 304.879C289.808 304.571 295.516 304.547 301.224 304.926C302.29 304.998 303.214 305.092 302.906 306.395C302.242 309.12 302.361 312.01 300.04 314.26C292.2 321.841 283.556 328.356 274.461 334.326C262.405 342.262 249.687 348.967 236.874 355.553C220.768 363.844 206.344 374.481 194.929 388.506C189.813 394.808 183.536 398.669 176.739 402.152C172.452 404.355 167.549 402.768 162.978 403.478L163.026 403.526Z"
    fill="#ffc240" stroke="black" stroke-width="3px" />
  <path
    d="M104.857 254.608C103.057 244.871 106.373 235.94 108.078 226.843C108.362 225.351 108.433 223.763 108.86 222.224C110.447 216.562 112.412 214.951 118.262 214.264C127.333 213.197 136.097 214.879 144.813 216.869C149.005 217.817 153.315 217.509 157.413 217.509C171.221 217.485 184.484 219.618 197.321 224.545C201.016 225.967 204.923 226.677 208.737 226.938C211.863 227.151 211.816 228.454 211.555 230.61C210.75 236.817 209.352 243.024 209.305 249.254C209.234 256.432 208.192 263.634 209.163 270.789C209.495 273.276 208.476 275.053 206.534 276.119C198.055 280.691 190.642 286.874 182.613 292.11C178.61 294.716 174.726 297.511 170.771 300.212C164.565 304.429 157.957 304.192 151.136 301.965C144.41 299.762 137.494 297.914 131.147 294.74C122.904 290.618 118.002 282.942 112.318 276.072C107.012 269.652 103.578 262.924 104.904 254.632L104.857 254.608ZM160.634 278.062C165.205 277.754 168.615 277.848 171.978 276.806C185.763 272.542 196.184 264.582 192.205 247.359C191.021 242.266 190.026 237.575 184.958 234.258C176.147 228.454 166.342 228.501 156.678 228.383C149.407 228.312 142.373 230.112 135.86 234.211C126.694 239.968 122.336 248.117 124.112 258.351C125.462 266.169 129.607 271.76 137.044 274.674C145.002 277.777 153.363 278.133 160.634 278.062Z"
    fill="#ffc240" stroke="black" stroke-width="3px" />
  <path
    d="M207.671 298.317C207.742 300.023 207.766 301.041 207.813 302.036C208.097 307.959 209.045 308.978 214.966 308.978C221.834 308.978 228.655 308.314 235.382 306.727C236.803 306.395 238.579 305.921 239.929 307.438C225.979 314.355 215.866 326.224 203.668 335.392C191.873 344.252 180.173 353.278 168.355 362.115C167.265 362.92 166.413 363.892 165.418 364.745C162.978 366.877 160.255 367.303 157.46 365.74C146.873 359.817 136.428 353.634 127.57 345.153C127.191 344.774 126.836 344.205 126.386 344.087C117.244 341.623 112.673 333.521 106.136 327.859C102.394 324.613 98.178 321.865 94.0095 319.164C91.0253 317.222 90.2437 315.113 91.1437 311.56C92.8964 304.642 94.0332 297.582 95.4543 290.57C95.5964 289.859 94.9569 288.77 95.999 288.509C97.0411 288.248 97.4438 289.243 98.0359 289.978C105.662 299.501 113.644 308.788 125.32 313.384C133.065 316.464 140.573 320.538 148.91 321.818C162.363 323.879 174.963 321.818 186.189 313.36C192.987 308.243 200.139 303.552 207.694 298.269L207.671 298.317Z"
    fill="#ffc240" stroke="black" stroke-width="3px" />
  <path
    d="M342.435 165.201C336.514 173.706 333.743 182.732 332.748 192.113C331.824 200.902 335.898 208.459 341.322 215.14C345.751 220.589 350.914 225.303 357.001 228.975C363.822 233.097 364.035 235.016 359.346 241.365C353.78 248.899 345.561 253.447 338.953 259.796C338.409 260.318 337.201 260.128 336.301 260.246C328.864 261.147 321.403 259.844 313.966 260.318C311.811 260.46 311.574 259.465 311.598 257.735C311.645 253.661 312.64 249.704 313.043 245.677C313.706 238.83 314.061 231.771 312.498 225.398C310.816 218.48 308.069 211.468 303.972 205.356C300.94 200.831 298.382 195.975 294.664 191.924C290.566 187.47 284.811 185.598 279.79 182.613C278.013 181.547 276.119 180.6 274.437 179.391C272.992 178.349 272.306 176.762 272.353 174.914C272.566 168.257 279.434 162.69 285.948 163.969C289.832 164.751 293.787 165.272 297.695 164.964C307.572 164.182 317.424 164.893 327.277 164.917C332.085 164.917 337.011 164.917 342.411 165.177L342.435 165.201Z"
    fill="#ffc240" stroke="black" stroke-width="3px" />
  <path
    d="M469.928 115.901C465.262 114.432 458.986 116.446 452.875 115.072C451.857 114.859 450.838 114.575 450.672 113.674C449.559 107.491 445.486 102.635 443.283 96.9253C441.672 92.7321 440.536 88.4678 439.849 84.1562C438.878 78.1152 443.378 74.5616 447.215 71.0081C449.441 68.947 451.951 68.5206 455.315 68.8285C472.817 70.4632 489.538 68.4732 504.46 57.6941C511.518 52.6007 518.102 47.0808 523.312 40.2817C528.831 33.0798 535.699 31.8479 543.61 33.7905C546.357 34.4775 549.057 33.8853 551.805 34.6434C553.865 35.1883 554.268 36.0174 553.984 37.4388C553.178 41.632 552.065 45.7541 551.213 49.9236C550.976 51.1319 550.242 51.8663 549.389 52.4585C540.199 58.7838 530.962 65.0381 521.797 71.3871C514.36 76.5516 508.06 82.9006 502.683 90.1735C502.281 90.7184 501.925 91.287 501.428 91.7371C495.839 97.1148 491.031 103.156 486.081 109.078C482.149 113.769 477.388 116.067 469.928 115.878V115.901Z"
    fill="#ffc240" stroke="black" stroke-width="3px" />
  <path
    d="M231.782 542.233C228.868 542.398 225.955 542.541 223.042 542.706C220.721 542.825 220.721 541.309 220.508 539.579C219.608 531.596 221.526 523.707 221.313 515.77C220.981 504.683 217.784 494.07 215.889 483.244C213.639 470.285 206.723 459.861 198.126 450.361C195.047 446.95 190.902 444.794 186.805 441.501C193.91 440.791 200.305 441.335 206.723 441.312C223.303 441.264 239.858 442.733 256.461 442.165C259.942 442.046 263.424 442.544 267 442.094C271.358 441.525 275.763 447.258 277.161 451.83C279.411 459.174 277.137 464.978 273.016 470.522C269.842 474.81 265.224 477.463 260.961 480.519C250.516 488.029 241.634 497.292 233.818 507.313C227.708 515.155 226.974 524.915 229.532 534.628C230.124 536.855 230.455 539.2 231.947 541.095L231.782 542.233Z"
    fill="#ffc240" stroke="black" stroke-width="3px" />
  <path
    d="M262.121 26.9914C252.932 38.7418 244.832 51.274 233.795 61.0344C222.521 71.0317 210.323 80.1762 195.568 84.7247C183.465 88.4678 171.339 92.3294 158.952 94.9827C152.747 96.3093 146.115 96.1909 139.791 97.5412C139.152 97.6834 138.37 97.5412 137.849 97.8492C136.618 98.5836 135.41 98.939 134.178 98.0387C132.449 96.7831 133.941 95.3854 134.178 94.1061C135.244 88.2309 136.428 82.3794 137.494 76.5042C138.062 73.3534 139.057 70.8896 142.87 70.4158C147.939 69.7998 152.913 68.3784 157.981 67.9757C171.671 66.8859 183.442 61.1292 193.958 52.9323C202.792 46.0384 210.939 38.2206 217.808 29.2183C220.816 25.2857 225.529 26.4702 229.389 26.7782C239.171 27.56 248.858 26.4228 258.592 26.5413C259.634 26.5413 260.7 26.1148 262.074 26.9914H262.121Z"
    fill="#ffc240" stroke="black" stroke-width="3px" />
  <path
    d="M405.885 390.141C404.725 377.49 409.793 366.64 414.743 356.05C417.704 349.725 425.07 347.759 431.014 344.442C442.051 338.306 454.675 337.903 466.233 333.71C471.325 331.862 475.944 329.351 480.491 326.579C481.32 326.058 482.078 325.348 482.907 325.916C483.57 326.366 483.167 327.266 483.002 328.096C481.888 333.426 480.894 338.804 479.875 344.158C479.354 346.835 478.051 348.067 475.044 348.754C463.794 351.265 452.78 354.558 442.264 359.509C435.017 362.92 430.304 367.824 428.504 375.784C426.964 382.607 429.427 388.482 432.151 394.286C438.12 407.056 448.328 414.186 462.254 415.916C463.628 416.082 463.509 416.579 463.296 417.527C461.615 424.965 459.98 432.428 458.204 439.867C457.896 441.193 457.28 442.236 455.125 441.572C449.204 439.796 443.757 437.498 438.83 433.494C433.17 428.898 426.064 426.529 420.356 421.696C411.475 414.186 405.743 401.773 405.885 390.164V390.141Z"
    fill="#ffc240" stroke="black" stroke-width="3px" />
  <path
    d="M82.1437 410.396C88.9411 411.012 95.7385 411.557 102.512 412.267C107.178 412.765 111.82 413.712 116.486 414.068C125.391 414.731 134.32 414.21 143.249 413.973C155.21 413.665 167.171 413.31 179.107 413.523C186.497 413.665 193.887 414.565 201.323 414.186C211.223 413.689 221.029 415.087 230.881 415.489C238.674 415.821 246.489 415.916 254.282 416.247C263.471 416.65 272.637 417.55 281.803 418.19C289.927 418.759 297.908 420.985 306.198 420.156C309.49 419.825 310.532 418.166 310.958 415.679C312.19 408.548 312.735 401.322 312.545 394.121C312.119 378.817 312.711 363.489 312.924 348.209C313.09 336.814 314.582 325.229 316.998 313.905C317.803 310.186 319.058 310.02 322.256 312.342C326.093 315.137 326.566 319.022 326.045 323.002C324.506 334.753 324.174 346.598 323.227 358.396C322.279 369.814 324.624 380.996 323.961 392.368C323.345 402.91 321.901 413.452 322.635 424.065C322.753 425.937 321.664 425.7 320.456 425.984C316.453 426.932 312.498 426.197 308.661 425.392C304.469 424.515 300.229 424.657 296.085 424.539C284.124 424.16 272.045 424.705 260.179 423.781C245.897 422.691 231.734 422.525 217.571 423.71C211.318 424.231 205.16 424.018 198.955 423.876C189.86 423.662 180.789 422.975 171.718 422.525C168.26 422.359 164.778 422.478 161.368 422.573C150.781 422.881 140.194 420.938 129.607 423.046C125.723 423.828 121.602 423.568 117.599 423.639C108.812 423.828 100.049 424.705 91.2148 423.97C87.7095 423.662 85.8621 421.222 83.4463 419.611C80.9831 417.953 79.0884 415.371 77.1226 413.049C76.1752 411.936 76.2699 410.775 78.141 410.68C79.4673 410.585 80.8173 410.585 82.1674 410.514C82.1674 410.467 82.1674 410.396 82.1674 410.348L82.1437 410.396Z"
    fill="#ffc240" stroke="black" stroke-width="3px" />
  <path
    d="M46.925 533.562C49.3645 524.82 50.7145 517.121 52.0646 509.398C52.5146 506.839 54.9541 504.778 56.9199 504.352C67.3647 502.149 76.8147 497.221 86.9279 494.141C105.757 488.361 124.468 485.897 142.823 495.942C145.57 497.458 148.555 498.524 151.42 499.874C157.01 502.504 160.468 506.839 161.699 512.904C163.5 521.835 162.576 530.553 159.734 539.153C158.549 542.754 155.471 541.783 153.386 541.475C147.655 540.598 141.947 541.214 136.262 541.356C133.989 541.403 133.184 540.977 132.734 538.442C130.199 524.583 123.023 512.193 105.544 510.985C95.7385 510.298 86.2648 512.335 76.6016 512.525C71.8884 512.62 68.6673 517.666 64.641 520.272C58.7672 524.062 53.2014 528.303 46.9487 533.562H46.925Z"
    fill="#ffc240" stroke="black" stroke-width="3px" />
  <path
    d="M374.361 165.011C383.077 165.912 391.793 166.812 400.533 167.712C401.243 167.783 402.285 167.215 402.475 168.375C402.617 169.276 401.764 169.631 401.054 170.057C396.08 173.019 392.148 177.164 388.572 181.571C383.243 188.157 380.519 202.774 384.735 209.383C388.501 215.259 394.209 218.812 399.988 222.152C405.175 225.161 409.533 229.141 414.222 232.695C417.941 235.514 417.704 236.864 415.241 240.56C409.13 249.704 400.225 255.603 391.154 261.17C384.569 265.221 377.63 268.728 371.093 272.921C367.161 275.456 366.546 275.124 364.674 271.073C362.117 265.506 362.993 261.621 368.298 258.233C376.896 252.713 381.159 244.729 382.343 234.898C383.527 225.137 378.151 219.333 370.311 214.595C362.898 210.118 356.124 204.716 352.572 196.283C352.074 195.074 351.814 193.937 351.98 192.847C353.709 182.4 358.185 173.421 366.569 166.717C368.819 164.917 371.709 165.746 374.338 165.011H374.361Z"
    fill="#ffc240" stroke="black" stroke-width="3px" />
  <path
    d="M212.029 208.436C207.292 207.583 202.508 206.398 197.937 204.645C189.6 201.423 181.263 199.102 172.073 199.244C166.365 199.339 160.515 198.699 154.736 198.344C147.844 197.917 140.999 196.354 134.178 195.051C128.849 194.032 123.568 195.027 118.262 195.074C115.539 195.098 113.952 195.43 115.041 191.45C116.96 184.461 118.002 177.236 119.21 170.057C119.612 167.617 120.773 166.504 123.141 166.717C129.654 167.262 136.215 167.546 142.657 168.589C146.565 169.228 150.378 168.897 154.168 168.66C163.073 168.115 171.765 169.205 180.221 171.787C190.618 174.985 201.655 175.577 211.887 179.415C212.645 179.699 213.829 179.06 214.539 179.131C215.937 179.273 217.595 178.941 217.381 182.068C216.86 189.673 216.126 197.254 215.487 204.858C215.297 207.038 215.013 208.933 212.005 208.436H212.029Z"
    fill="#ffc240" stroke="black" stroke-width="3px" />
  <path
    d="M302.1 117.868C290.637 118.27 279.198 119.242 267.687 118.886C261.458 118.697 255.3 120.118 249.118 120.9C248.242 121.018 246.916 121.705 246.324 120.331C245.684 118.886 247.129 118.673 247.863 118.033C253.926 112.845 259.54 107.017 266.882 103.582C272.637 100.882 278.984 99.8392 285.071 98.1335C293.242 95.8829 300.253 91.287 307.619 87.307C315.766 82.9006 323.629 78.1151 331.161 72.6901C341.819 65.0144 350.227 55.3961 356.906 44.1195C359.535 39.6894 361.667 35.1172 363.111 30.2133C363.774 27.939 365.124 26.7545 367.446 27.2046C369.53 27.6073 371.59 27.7969 373.722 27.7969C375.617 27.7969 376.019 28.934 375.451 30.8292C374.03 35.4725 372.111 39.8316 369.53 43.9537C363.159 54.1405 357.143 64.5643 350.274 74.3958C345.443 81.337 339.427 87.4728 334.003 94.0114C330.877 97.7781 328.082 101.853 324.695 105.359C321.948 108.202 319.177 110.855 317.614 114.598C316.643 116.896 313.99 116.422 312.119 116.849C308.874 117.56 305.464 117.56 302.148 117.868H302.1Z"
    fill="#ffc240" stroke="black" stroke-width="3px" />
  <path
    d="M501.404 33.293C497.899 34.6908 495.412 36.5149 493.517 39.8079C490.652 44.7828 484.802 44.5696 479.875 45.5409C471.207 47.2466 462.372 46.7728 453.609 47.4362C447.049 47.9337 441.27 50.7291 436.438 55.1829C429.759 61.3661 422.796 67.4071 421.493 77.286C420.83 82.1899 421.162 86.9753 422.299 91.7608C424.099 99.3417 425.851 106.946 430.635 114.053C426.704 113.911 423.435 114.977 419.575 114.338C414.127 113.437 408.396 114.338 402.783 114.456C401.717 114.48 400.651 114.527 399.561 114.575C393.901 114.764 393.711 114.551 395.511 109.126C400.461 94.1772 404.843 79.0391 411.712 64.8012C414.862 58.2627 419.054 52.4348 423.554 46.8913C427.367 42.1769 431.796 37.9363 435.893 33.4352C437.504 31.6584 439.351 30.9714 441.767 30.8055C451.762 30.1422 461.757 30.6634 471.728 30.8055C481.509 30.9477 491.481 29.929 501.404 33.2693V33.293Z"
    fill="#ffc240" stroke="black" stroke-width="3px" />
  <path
    d="M251.179 405.113C239.503 404.142 227.708 404.994 216.079 403.218C215.558 403.147 214.989 403.336 214.468 403.218C212.668 402.91 210.039 404.568 209.234 401.915C208.571 399.759 211.271 399.143 212.455 397.982C217.263 393.291 222.095 388.553 227.4 384.455C235.926 377.845 245.471 372.799 255.134 367.99C261.884 364.626 268.587 361.238 274.982 357.258C277.753 355.529 280.548 354.155 284.029 353.823C288.671 353.397 291.419 349.488 294.403 346.408C296.653 344.11 299.258 342.357 301.603 340.272C302.456 339.538 303.379 339.396 304.185 339.68C305.535 340.154 304.114 341.078 304.256 341.883C304.919 345.579 303.379 349.204 303.877 352.97C304.161 355.15 303.237 356.169 300.679 356.785C280.879 361.57 266.953 373.202 260.013 392.628C259.137 395.068 258.426 397.674 258.995 400.304C259.824 404.284 258.213 405.587 254.424 405.066C253.382 404.923 252.292 405.113 251.203 405.16L251.179 405.113Z"
    fill="#ffc240" stroke="black" stroke-width="3px" />
  <path
    d="M294.782 237.693C295.327 244.09 294 249.846 292.887 255.627C292.461 257.854 291.253 259.607 288.316 259.678C279.221 259.867 270.127 260.247 261.032 260.673C258.64 260.791 258.284 260.318 258.426 257.688C259.445 239.541 261.624 221.56 265.863 203.863C266.005 203.224 266.029 202.561 266.1 201.921C266.527 197.965 267.284 197.609 270.458 199.883C270.884 200.191 271.334 200.476 271.832 200.618C282.206 203.698 286.137 212.676 290.14 221.276C292.579 226.535 295.469 231.937 294.782 237.717V237.693Z"
    fill="#ffc240" stroke="black" stroke-width="3px" />
  <path
    d="M290.14 271.642C299.116 271.31 308.093 270.552 317.069 270.765C330.001 271.073 342.932 271.097 355.817 272.423C356.882 272.542 357.948 272.305 359.038 272.305C362.093 272.305 363.325 273.726 362.401 276.711C361.477 279.673 361.477 282.705 361.832 285.714C362.093 287.893 361.24 288.225 359.251 288.485C351.909 289.433 344.922 287.159 337.769 286.377C334.643 286.022 331.445 285.761 328.366 285.666C318.679 285.335 308.969 284.221 299.282 285.169C292.864 285.808 286.469 285.429 280.24 284.624C275.882 284.055 271.429 282.8 267.024 281.852C265.674 281.568 264.419 281.615 263.116 281.473C259.469 281.07 256.792 276.569 258.379 273.489C259.019 272.234 260.274 272.779 261.245 272.731C270.884 272.329 280.524 271.997 290.187 271.642H290.14Z"
    fill="#ffc240" stroke="black" stroke-width="3px" />
  <path
    d="M412.943 30.0474C395.89 47.3177 388.69 69.4445 381.23 91.4054C379.004 97.944 376.754 104.483 374.882 111.139C374.314 113.177 373.461 113.769 371.685 113.793C363.064 113.911 354.443 114.006 345.822 114.172C344.78 114.172 343.903 113.888 343.524 113.011C343.027 111.874 344.424 111.992 344.827 111.447C354.135 98.4889 366.38 87.8282 373.935 73.5192C379.288 63.3798 387.222 54.7328 391.201 43.7878C392.622 39.8789 393.972 35.97 395.985 32.3454C396.814 30.8292 397.691 29.313 399.609 29.2657C403.896 29.1946 408.23 28.1522 412.967 30.0238L412.943 30.0474Z"
    fill="#ffc240" stroke="black" stroke-width="3px" />
  <path
    d="M515.023 199.694C513.602 204.977 512.868 209.62 510.736 213.885C509.931 215.519 508.936 216.325 507.16 217.083C497.994 220.992 488.804 219.831 479.544 217.746C472.486 216.159 465.594 214.406 459.459 210.141C453.704 206.138 453.112 204.479 456.759 198.391C460.146 192.729 464.457 187.754 468.365 182.495C470.946 178.989 473.67 175.601 476.394 172.189C476.938 171.479 477.412 170.507 478.478 170.484C479.402 170.484 480.538 170.294 481.178 170.744C482.22 171.502 481.012 172.497 480.704 173.137C479.141 176.312 478.028 179.439 477.933 183.134C477.72 191.829 480.396 195.169 489.586 197.609C496.478 199.457 503.512 201.044 510.76 200.689C512.039 200.618 513.341 200.76 514.975 199.694H515.023Z"
    fill="#ffc240" stroke="black" stroke-width="3px" />
  <path
    d="M194.384 26.7782C180.079 42.0585 163.878 52.0558 142.255 50.3975C144.22 45.8015 144.67 40.874 145.665 36.0885C147.205 28.6971 148.626 27.9627 155.873 25.9253C161.936 24.2196 168 25.3805 173.755 25.4515C180.339 25.5463 187.255 25.57 194.384 26.7782Z"
    fill="#ffc240" stroke="black" stroke-width="3px" />
  <path
    d="M302.148 371.165C302.337 376.424 303.095 381.731 302.55 386.895C302.053 391.728 302.408 396.442 302.456 401.228C302.527 407.6 301.792 408.619 295.635 408.264C291.75 408.051 287.89 407.316 284.005 406.748C278.108 405.895 277.232 404.331 278.89 397.224C280.927 388.53 287.416 383.365 294.782 379.196C298.027 377.372 301.461 375.784 300.679 370.833C301.153 370.951 301.627 371.046 302.1 371.165H302.148Z"
    fill="#ffc240" stroke="black" stroke-width="3px" />
  <path
    d="M465.83 397.319C459.388 396.087 453.443 393.765 450.175 387.606C445.296 378.414 446.054 379.314 454.059 375.405C459.696 372.633 465.878 370.951 471.894 368.938C473.267 368.488 474.783 368.393 474.144 371.023C472.225 378.959 470.544 386.942 468.909 394.926C468.53 396.821 467.536 397.342 465.807 397.319H465.83Z"
    fill="#ffc240" stroke="black" stroke-width="3px" />
  <path
    d="M544.391 80.1999C543.563 84.9854 543.041 89.4628 542.284 93.8692C541.857 96.3804 540.578 98.4888 538.565 100.171C533.852 104.103 529.186 108.107 524.497 112.063C519.831 116.02 514.312 116.659 508.486 116.162C507.633 116.091 506.733 116.091 506.449 115.356C506.118 114.504 507.112 114.03 507.61 113.485C517.723 102.706 528.12 92.2346 540.199 83.6113C541.668 82.5689 542.994 81.337 544.391 80.1999Z"
    fill="#ffc240" stroke="black" stroke-width="3px" />
  <path
    d="M114.425 542.398C103.957 541.996 93.9859 541.332 84.0384 542.185C79.7752 542.541 75.5121 542.754 71.2252 542.991C70.4673 543.038 69.141 543.038 69.0699 542.801C68.7857 541.783 69.7804 541.19 70.491 540.74C77.8568 536.192 85.5069 532.283 93.9859 530.032C97.3727 529.132 100.689 528.871 104.123 529.274C111.607 530.151 112.46 536.334 114.425 542.398Z"
    fill="#ffc240" stroke="black" stroke-width="3px" />
  <path
    d="M77.9989 380.309C86.8095 386.161 93.1806 394.642 102.417 399.475C103.341 399.972 103.862 400.872 103.507 401.82C102.891 403.384 102.062 401.891 101.304 401.82C93.749 400.967 86.2174 399.948 78.591 400.209C73.9962 400.375 73.5936 399.972 74.4936 395.613C75.5594 390.52 76.8147 385.45 77.9989 380.309Z"
    fill="#ffc240" stroke="black" stroke-width="3px" />
  <path
    d="M507.989 181.476C506.781 181.523 505.454 181.903 504.412 181.523C502.731 180.931 500.125 181.737 499.628 179.06C499.249 177.046 502.518 173.777 504.791 173.516C509.836 172.971 514.644 174.582 519.594 175.103C520.233 175.174 521.868 174.772 521.844 175.98C521.844 176.975 521.299 177.994 520.115 178.752C516.965 180.742 513.412 180.718 510.002 181.381C509.362 181.5 508.675 181.452 507.989 181.476Z"
    fill="#ffc240" stroke="black" stroke-width="3px" />
  <path
    d="M231.781 542.233C231.829 541.854 231.876 541.475 231.947 541.096C232.089 541.403 232.255 541.735 232.397 542.043C232.184 542.114 231.995 542.162 231.781 542.233Z"
    fill="#ffc240" stroke="black" stroke-width="3px" />
  <path
    d="M344.377 520.295C337.153 518.329 330.83 516.126 324.316 514.941C318.869 513.946 313.445 512.975 308.022 511.814C304.469 511.056 303.782 509.35 305.724 506.271C308.614 501.698 313.161 498.737 316.548 494.686C317.874 493.099 318.537 493.739 319.556 495.018C323.748 500.206 328.011 505.299 331.824 510.796C333.861 513.757 336.822 515.676 340.161 516.979C341.582 517.524 343.169 517.808 344.377 520.295Z"
    fill="#ffc240" stroke="black" stroke-width="3px" />
  <path
    d="M159.355 247.477C162.197 247.738 165.039 247.312 167.999 247.714C171.836 248.212 172.571 250.913 173.755 253.376C174.371 254.632 173.968 256.053 172.073 256.764C163.073 260.057 154.049 260.602 144.955 257.238C141.781 256.053 141.923 254.466 144.102 252.287C148.365 247.999 153.694 247.264 159.355 247.501V247.477Z"
    fill="#ffc240" stroke="black" stroke-width="3px" />
</svg>
  