<svg width="568" height="600" viewBox="0 0 568 600" fill="none" xmlns="http://www.w3.org/2000/svg">
  <path
    d="M483.56 170.152C473.26 170.152 463.576 172.589 454.902 176.822C446.229 172.589 436.544 170.152 426.244 170.152C415.944 170.152 406.26 172.589 397.587 176.822C388.913 172.589 379.229 170.152 368.929 170.152C358.629 170.152 348.945 172.589 340.271 176.822C331.597 172.589 321.913 170.152 311.613 170.152C275.44 170.152 246.092 199.442 246.092 235.599C246.092 271.756 275.415 301.046 311.613 301.046C321.913 301.046 331.597 298.609 340.271 294.376C348.945 298.609 358.629 301.046 368.929 301.046C379.229 301.046 388.913 298.609 397.587 294.376C399.632 295.36 401.726 296.271 403.895 297.034C369.372 308.184 344.362 340.526 344.362 378.726C344.362 419.215 372.453 453.083 410.203 462.14C407.517 463.051 404.905 464.134 402.367 465.34C393.274 460.984 383.098 458.473 372.329 458.473C361.561 458.473 351.409 460.984 342.292 465.34C333.199 460.984 323.022 458.473 312.254 458.473C301.486 458.473 291.334 460.984 282.216 465.34C273.124 460.984 262.947 458.473 252.179 458.473C241.41 458.473 231.258 460.984 222.141 465.34C213.048 460.984 202.871 458.473 192.103 458.473C181.335 458.473 171.183 460.984 162.066 465.34C152.973 460.984 142.796 458.473 132.028 458.473C121.26 458.473 111.107 460.984 101.99 465.34C92.8975 460.984 82.7207 458.473 71.9525 458.473C33.5121 458.473 2.34094 489.609 2.34094 528.006C2.34094 566.403 33.5121 597.539 71.9525 597.539C82.7207 597.539 92.8729 595.028 101.99 590.671C111.083 595.028 121.235 597.539 132.028 597.539C142.821 597.539 152.948 595.028 162.066 590.671C171.158 595.028 181.335 597.539 192.103 597.539C202.871 597.539 213.024 595.028 222.141 590.671C231.234 595.028 241.41 597.539 252.179 597.539C262.947 597.539 273.099 595.028 282.216 590.671C291.309 595.028 301.461 597.539 312.254 597.539C323.047 597.539 333.174 595.028 342.292 590.671C351.384 595.028 361.561 597.539 372.329 597.539C383.098 597.539 393.25 595.028 402.367 590.671C411.46 595.028 421.637 597.539 432.405 597.539C470.845 597.539 502.016 566.403 502.016 528.006C502.016 496.722 481.318 470.263 452.857 461.55C489.425 451.655 516.333 418.378 516.333 378.726C516.333 339.074 489.03 305.353 452.093 295.705C453.054 295.287 453.99 294.794 454.927 294.351C463.601 298.585 473.285 301.021 483.585 301.021C519.758 301.021 549.106 271.732 549.106 235.574C549.106 199.417 519.783 170.128 483.585 170.128L483.56 170.152Z"
    fill="#215cd7" stroke="black" stroke-width="5" />
  <path
    d="M84.347 429.848C94.647 429.848 104.331 427.411 113.005 423.178C121.678 427.411 131.363 429.848 141.663 429.848C151.963 429.848 161.647 427.411 170.32 423.178C178.994 427.411 188.678 429.848 198.978 429.848C209.278 429.848 218.962 427.411 227.636 423.178C236.31 427.411 245.994 429.848 256.294 429.848C292.467 429.848 321.815 400.558 321.815 364.401C321.815 328.244 292.492 298.954 256.294 298.954C245.994 298.954 236.31 301.391 227.636 305.624C218.962 301.391 209.278 298.954 198.978 298.954C188.678 298.954 178.994 301.391 170.32 305.624C168.275 304.64 166.181 303.729 164.012 302.966C198.535 291.816 223.545 259.474 223.545 221.274C223.545 180.785 195.454 146.917 157.704 137.859C160.39 136.949 163.002 135.866 165.54 134.66C174.633 139.016 184.809 141.527 195.578 141.527C206.346 141.527 216.498 139.016 225.615 134.66C234.708 139.016 244.885 141.527 255.653 141.527C266.421 141.527 276.573 139.016 285.691 134.66C294.783 139.016 304.96 141.527 315.728 141.527C326.497 141.527 336.649 139.016 345.766 134.66C354.859 139.016 365.036 141.527 375.804 141.527C386.572 141.527 396.724 139.016 405.841 134.66C414.934 139.016 425.111 141.527 435.879 141.527C446.647 141.527 456.8 139.016 465.917 134.66C475.009 139.016 485.186 141.527 495.955 141.527C534.395 141.527 565.566 110.391 565.566 71.9941C565.566 33.5972 534.296 2.46133 495.856 2.46133C485.088 2.46133 474.936 4.9719 465.818 9.32846C456.726 4.9719 446.573 2.46133 435.781 2.46133C424.988 2.46133 414.86 4.9719 405.743 9.32846C396.65 4.9719 386.473 2.46133 375.705 2.46133C364.937 2.46133 354.785 4.9719 345.668 9.32846C336.575 4.9719 326.398 2.46133 315.63 2.46133C304.862 2.46133 294.709 4.9719 285.592 9.32846C276.499 4.9719 266.347 2.46133 255.554 2.46133C244.762 2.46133 234.634 4.9719 225.517 9.32846C216.424 4.9719 206.247 2.46133 195.479 2.46133C184.711 2.46133 174.559 4.9719 165.441 9.32846C156.349 4.9719 146.172 2.46133 135.404 2.46133C96.9633 2.46133 65.7921 33.5972 65.7921 71.9941C65.7921 103.278 86.4908 129.737 114.951 138.45C78.3838 148.345 51.4756 181.622 51.4756 221.274C51.4756 260.926 78.7781 294.647 115.715 304.295C114.754 304.713 113.818 305.206 112.882 305.649C104.208 301.415 94.5238 298.979 84.2238 298.979C48.0504 298.979 18.7027 328.268 18.7027 364.425C18.7027 400.582 48.0258 429.872 84.2238 429.872L84.347 429.848Z"
    fill="#215cd7" stroke="black" stroke-width="5" />
</svg>
  