<svg width="600" height="600" viewBox="0 0 600 600" fill="none" xmlns="http://www.w3.org/2000/svg">
  <path
    d="M484.767 179.988C475.247 179.988 466.296 182.24 458.28 186.153C450.263 182.24 441.312 179.988 431.793 179.988C422.273 179.988 413.322 182.24 405.306 186.153C397.289 182.24 388.339 179.988 378.819 179.988C369.299 179.988 360.349 182.24 352.332 186.153C344.315 182.24 335.365 179.988 325.845 179.988C292.412 179.988 265.287 207.059 265.287 240.478C265.287 273.896 292.389 300.967 325.845 300.967C335.365 300.967 344.315 298.715 352.332 294.802C360.349 298.715 369.299 300.967 378.819 300.967C388.339 300.967 397.289 298.715 405.306 294.802C407.196 295.712 409.132 296.554 411.136 297.259C379.229 307.564 356.112 337.456 356.112 372.762C356.112 410.184 382.076 441.487 416.966 449.858C414.484 450.7 412.07 451.701 409.724 452.816C401.32 448.789 391.914 446.469 381.962 446.469C372.009 446.469 362.626 448.789 354.199 452.816C345.796 448.789 336.39 446.469 326.437 446.469C316.485 446.469 307.101 448.789 298.675 452.816C290.271 448.789 280.865 446.469 270.912 446.469C260.96 446.469 251.577 448.789 243.15 452.816C234.746 448.789 225.34 446.469 215.388 446.469C205.435 446.469 196.052 448.789 187.625 452.816C179.222 448.789 169.816 446.469 159.863 446.469C149.911 446.469 140.527 448.789 132.101 452.816C123.697 448.789 114.291 446.469 104.338 446.469C68.81 446.469 40 475.246 40 510.734C40 546.223 68.81 575 104.338 575C114.291 575 123.674 572.68 132.101 568.653C140.505 572.68 149.888 575 159.863 575C169.838 575 179.199 572.68 187.625 568.653C196.029 572.68 205.435 575 215.388 575C225.34 575 234.723 572.68 243.15 568.653C251.554 572.68 260.96 575 270.912 575C280.865 575 290.248 572.68 298.675 568.653C307.079 572.68 316.462 575 326.437 575C336.412 575 345.773 572.68 354.199 568.653C362.603 572.68 372.009 575 381.962 575C391.914 575 401.297 572.68 409.724 568.653C418.128 572.68 427.534 575 437.486 575C473.015 575 501.825 546.223 501.825 510.734C501.825 481.821 482.694 457.365 456.389 449.312C490.187 440.167 515.057 409.411 515.057 372.762C515.057 336.114 489.823 304.948 455.683 296.03C456.572 295.644 457.437 295.189 458.302 294.779C466.319 298.692 475.27 300.944 484.789 300.944C518.223 300.944 545.347 273.873 545.347 240.455C545.347 207.037 518.245 179.965 484.789 179.965L484.767 179.988Z"
    fill="#6d49d9" stroke="black" stroke-width="5px" />
  <path
    d="M115.794 420.012C125.314 420.012 134.264 417.76 142.281 413.847C150.298 417.76 159.248 420.012 168.768 420.012C178.288 420.012 187.238 417.76 195.255 413.847C203.272 417.76 212.222 420.012 221.742 420.012C231.262 420.012 240.212 417.76 248.229 413.847C256.245 417.76 265.196 420.012 274.716 420.012C308.149 420.012 335.274 392.941 335.274 359.523C335.274 326.104 308.172 299.033 274.716 299.033C265.196 299.033 256.245 301.285 248.229 305.198C240.212 301.285 231.262 299.033 221.742 299.033C212.222 299.033 203.272 301.285 195.255 305.198C193.365 304.288 191.429 303.446 189.425 302.741C221.332 292.436 244.448 262.544 244.448 227.238C244.448 189.816 218.485 158.513 183.594 150.142C186.077 149.3 188.491 148.299 190.837 147.184C199.24 151.211 208.646 153.531 218.599 153.531C228.551 153.531 237.935 151.211 246.361 147.184C254.765 151.211 264.171 153.531 274.124 153.531C284.076 153.531 293.459 151.211 301.886 147.184C310.29 151.211 319.696 153.531 329.648 153.531C339.601 153.531 348.984 151.211 357.411 147.184C365.814 151.211 375.22 153.531 385.173 153.531C395.125 153.531 404.509 151.211 412.935 147.184C421.339 151.211 430.745 153.531 440.697 153.531C450.65 153.531 460.033 151.211 468.46 147.184C476.864 151.211 486.27 153.531 496.222 153.531C531.751 153.531 560.561 124.754 560.561 89.2656C560.561 53.7774 531.66 25 496.131 25C486.178 25 476.795 27.3204 468.369 31.3469C459.965 27.3204 450.582 25 440.606 25C430.631 25 421.271 27.3204 412.844 31.3469C404.44 27.3204 395.034 25 385.082 25C375.129 25 365.746 27.3204 357.319 31.3469C348.916 27.3204 339.51 25 329.557 25C319.605 25 310.221 27.3204 301.795 31.3469C293.391 27.3204 284.008 25 274.032 25C264.057 25 254.697 27.3204 246.27 31.3469C237.866 27.3204 228.46 25 218.508 25C208.555 25 199.172 27.3204 190.745 31.3469C182.342 27.3204 172.936 25 162.983 25C127.455 25 98.6447 53.7774 98.6447 89.2656C98.6447 118.179 117.775 142.635 144.08 150.688C110.283 159.833 85.4126 190.589 85.4126 227.238C85.4126 263.886 110.647 295.052 144.786 303.97C143.898 304.356 143.033 304.811 142.167 305.221C134.15 301.308 125.2 299.056 115.68 299.056C82.2469 299.056 55.1223 326.127 55.1223 359.545C55.1223 392.963 82.2242 420.035 115.68 420.035L115.794 420.012Z"
    fill="#6d49d9" stroke="black" stroke-width="5px" />
</svg>
  