<svg width="562" height="600" viewBox="0 0 562 600" fill="none" xmlns="http://www.w3.org/2000/svg">
  <path
    d="M550.796 28.2733C546.692 25.3833 541.912 23.8902 537.012 22.9028C533.994 17.5805 529.335 13.2696 522.672 10.5965C515.044 7.53793 506.643 6.95994 498.556 8.21225C489.02 9.68131 480.281 14.5701 470.745 15.7502C462.272 16.8098 454.209 13.4382 446.315 10.8854C437.817 8.14 429.32 6.91178 420.436 8.35675C399.554 11.7765 381.159 22.6138 360.277 12.6676C351.514 8.50125 343.258 4.23858 333.529 2.91403C322.473 1.42089 311.368 3.10669 300.818 6.57462C290.824 9.84989 281.506 14.2811 270.715 13.0288C260.238 11.8006 250.871 7.82693 240.08 8.45308C231.365 8.9829 222.964 11.2467 214.443 12.9325C203 15.1963 194.068 13.9681 183.18 10.2111C173.621 6.91178 164.133 3.94959 153.898 5.53906C143.324 7.20077 134.923 12.7639 123.939 12.5472C106.292 12.21 89.5382 19.3867 87.2448 38.7493C86.7379 43.012 86.9793 47.371 87.8 51.6818C81.5717 58.9548 75.1261 66.0592 72.0361 75.4275C67.8839 87.9987 69.453 101.919 70.0324 114.875C70.5394 126.242 71.1188 135.466 65.3008 145.629C58.4931 157.502 50.5991 168.508 48.5954 182.403C46.8331 194.686 52.4579 203.62 54.6306 215.18C54.7754 215.927 54.8479 216.673 54.872 217.396L53.4236 224.115C49.9956 231.581 41.2566 237.385 36.4284 243.694C18.7332 266.886 24.4788 293.498 21.3887 320.278C19.892 333.331 7.9906 342.675 6.10761 356.065C4.65917 366.42 9.70459 373.838 15.6915 381.063C8.7631 389.347 0.45867 398.282 2.87275 409.432C6.51801 426.29 29.8139 427.446 43.4776 427.302C46.9538 427.254 50.406 427.181 53.8581 427.133C65.1077 433.419 76.816 436.718 89.7313 436.815C104.988 436.935 119.304 436.405 134.537 438.043C147.307 439.416 160.416 441.198 173.258 441.703C186.029 442.209 196.313 438.115 207.828 433.178C213.743 430.649 219.681 428.915 226.223 429.542C231.8 430.071 237.135 432.239 242.76 432.407C253.696 432.769 267.456 427.422 275.277 419.764C289.134 406.157 277.498 387.637 287.01 372.754C294.011 361.821 301.639 347.973 291.259 336.221C286.696 331.067 280.709 329.55 274.384 329.02C272.887 328.201 271.294 327.479 269.604 326.876C265.114 317.701 252.416 315.654 240.032 318.086C232.452 319.579 225.137 322.18 217.677 324.179C215.384 324.805 213.067 324.468 213.139 324.95H213.042C209.759 322.084 208.456 317.075 204.255 314.353C199.065 311.006 193.537 310.283 187.501 310.741C184.629 310.958 174.9 313.655 172.993 310.235C170.482 305.708 179.463 292.799 181.346 288.705C185.546 279.481 187.284 270.787 185.594 260.914C188.515 257.807 191.171 254.483 193.295 250.751C199.862 239.287 195.685 231.003 190.64 221.899C192.402 218.576 194.213 215.252 195.54 211.785C199.862 200.369 198.317 190.447 193.537 179.706L197.399 161.813C200.079 160.006 202.855 158.272 205.173 155.985C208.77 152.42 211.232 147.917 212.825 143.124C213.38 141.487 213.839 139.801 214.105 138.067C214.153 137.706 214.394 137.055 214.491 136.526C221.854 136.526 232.259 139.006 240.418 135.683C245.391 133.66 249.64 130.168 253.575 126.579C255.023 125.255 256.23 124.099 257.365 123.208H267.528C278.343 129.156 286.286 136.309 299.539 134.96C310.33 133.877 318.779 127.398 328.798 124.099C340.458 120.27 348.183 130.89 358.129 135.177C370.102 140.331 382.052 138.139 393.495 132.985C408.245 126.363 421.45 120.438 437.335 127.157C448.681 131.974 460.679 136.598 473.111 132.48C478.953 130.553 483.685 125.183 488.948 123.208H496.455C496.914 123.4 497.373 123.593 497.855 123.834C506.425 128.53 514.561 132.48 524.338 127.904C533.56 123.569 538.364 113.695 540.609 104.231C541.647 99.8956 542.347 95.2236 542.419 90.7682C542.468 88.2877 542.299 85.8313 541.816 83.3989C541.454 81.5927 539.354 77.9803 539.595 76.2463C540.271 71.4779 548.962 67.0226 551.858 63.4101C554.948 59.5569 557.314 54.7885 558.521 50.0201C560.67 41.5911 558.038 33.1862 550.845 28.1288L550.796 28.2733Z"
    fill="#fd8a1a" stroke="black" stroke-width="5" />
  <path
    d="M525.449 179.489C523.01 170.579 515.092 165.497 506.377 164.149C500.584 163.258 495.031 163.763 489.575 165.907C484.771 167.785 480.088 172.096 474.656 171.325C468.549 170.458 463.045 165.184 457.178 163.185C451.819 161.355 446.122 161.138 440.618 162.415C431.493 164.534 421.064 174.866 411.48 173.156C405.879 172.168 401.244 167.376 395.644 165.931C389.729 164.39 383.428 164.847 377.9 167.424C374.472 169.037 370.803 173.469 367.085 176.72H352.045C343.91 171.47 337.754 165.112 325.949 168.484C320.686 170.001 317.065 172.987 314.361 176.72H299.853C296.908 174.914 293.818 173.396 290.365 172.457C281.627 170.097 275.471 172.987 271.415 178.309C263.714 174.36 254.927 174.239 249.664 183.824C248.264 186.401 247.516 189.002 247.274 191.603C245.898 193.048 244.691 194.638 243.701 196.396C240.491 202.103 240.056 209.521 243.05 215.421C244.208 217.685 245.826 219.66 247.564 221.514C247.636 221.586 247.709 221.683 247.805 221.779L247.757 222.02C246.864 222.429 245.995 222.887 245.174 223.368C242.374 224.982 239.815 226.836 237.763 229.317C233.948 233.893 230.689 240.588 232.065 246.632C234.021 255.206 238.511 260.865 244.498 264.598C245.029 265.441 245.608 266.284 246.26 267.055C245.102 269.8 244.764 272.859 245.874 276.423C248.65 285.406 257.075 288.561 265.597 289.62C273.901 290.656 280.951 289.428 287.613 284.105C288.724 283.214 292.78 280.445 294.687 278.518C295.338 280.204 296.208 281.769 297.27 283.238C306.709 296.556 320.252 294.702 331.284 285.502C335.123 282.299 337.778 279.457 342.003 283.624C346.276 287.838 348.859 294.63 350.935 300.963C345.551 305.106 341.954 310.717 341.206 318.52C340.289 328.032 343.693 337.015 345.141 346.263C346.831 357.004 339.275 360.689 334.471 369.407C328.098 380.942 331.984 393.104 336.064 404.592C329.667 411.648 327.542 422.172 328.291 432.841C327.011 433.66 325.756 434.527 324.694 435.514C320.566 439.416 317.283 444.377 315.81 449.892C314.072 456.442 316.051 463.547 314.144 469.953C311.44 479.008 295.435 473.782 288.555 472.385C282.375 471.133 276.847 471.253 271.656 474.577C260.286 470.073 248.312 467.159 236.604 472.289C233.393 473.686 230.327 477.033 227.117 479.249H215.457C209.397 475.973 204.304 470.844 197.158 469.23C189.385 467.472 181.587 468.989 174.345 471.903C165.896 475.299 161.936 475.805 153.173 472.12C145.159 468.749 137.627 465.738 128.767 467.424C122.297 468.652 117.107 472.385 111.651 475.708C104.699 472.409 96.6356 470.338 89.7072 470.82C85.1446 471.157 80.8958 473.083 77.6127 476.286C77.0333 476.864 76.5022 477.467 75.9711 478.117C75.8504 478.117 75.7539 478.117 75.6573 478.093C67.9805 477.852 61.4142 472.241 53.3512 472.361C45.7227 472.481 37.9735 476.624 33.7489 482.982C33.6765 483.078 33.6282 483.174 33.5799 483.27C31.4555 485.293 29.7898 487.726 28.6069 490.447C21.0267 494.517 14.9191 502.2 13.5189 510.436C12.167 518.311 15.3053 522.959 18.9264 527.703C11.0565 531.942 4.80407 538.517 5.19032 548.366C5.45587 554.845 8.98042 560.865 14.7018 563.924C16.0295 564.646 17.3814 565.104 18.7816 565.465C18.9506 565.778 19.1437 566.091 19.3127 566.404C15.8123 570.812 12.2877 575.219 12.0222 581.288C11.5393 592.438 22.113 598.218 32.0832 597.52C43.0914 596.725 51.7579 589.404 62.2592 587.26C74.4261 584.78 83.503 597.568 95.7424 597.592C109.116 597.616 118.749 585.189 132.557 584.828C147.235 584.443 160.633 591.378 175.504 588.729C183.615 587.284 193.489 580.806 202.3 580.108H205.438C206.766 580.252 208.045 580.541 209.301 581.047C221.999 586.321 230.11 595.834 245.198 593.233C253.382 591.812 260.576 587.405 268.591 585.454C275.591 583.768 280.902 586.466 287.613 588.079C294.542 589.765 301.881 590.752 308.857 588.802C314.941 587.092 320.059 583.287 325.442 580.108H325.708C329.184 582.131 332.539 584.418 336.209 586.056C343.234 589.211 350.983 590.319 358.66 589.837C364.116 589.476 370.465 588.874 375.051 585.647C375.462 585.358 375.824 585.069 376.21 584.756C376.765 585.021 377.369 585.334 377.972 585.695C380.869 587.501 383.428 589.813 386.301 591.667C391.974 595.28 398.082 597.014 404.817 596.532C410.828 596.099 415.753 594.292 420.436 590.584C422.247 589.139 424.25 587.597 425.94 586.032C426.858 585.189 427.847 584.226 428.523 583.19C428.716 582.901 428.885 582.684 429.03 582.468C434.969 582.131 439.773 582.251 443.635 576.327C446.218 572.377 446.75 567.151 447.208 562.599C448.174 552.918 448.898 540.78 446.146 531.268C445.349 528.498 444.504 527.896 445.349 525.199C446.291 522.261 449.26 519.708 451.071 517.275C455.295 511.544 458.096 505.09 458.482 497.889C458.796 492.037 457.323 486.811 455.416 481.344C454.909 479.875 454.378 478.406 453.895 476.937L456.527 464.727C457.251 463.691 457.951 462.704 458.675 461.885C461.355 458.875 464.083 455.888 466.424 452.589C470.746 446.544 474.487 439.777 475.236 432.287C475.936 425.279 473.353 418.391 474.053 411.431C474.729 404.568 480.523 398.499 483.54 392.502C484.53 390.552 484.844 388.625 484.675 386.867C484.82 386.193 484.916 385.494 484.94 384.723C485.182 374.898 486.92 364.566 483.419 355.102C482.816 353.44 482.043 351.874 481.174 350.333L484.071 336.871C484.626 336.124 485.206 335.402 485.761 334.776C488.851 331.332 491.917 327.888 494.693 324.179C500.511 316.376 504.398 307.442 504.349 297.568C504.301 287.116 498.773 279.072 506.039 269.8C511.543 262.768 517.506 257.542 519.655 248.463C522.31 237.12 519.051 225.223 512.413 215.734C521.755 206.077 528.973 192.181 525.497 179.538L525.449 179.489Z"
    fill="#fd8a1a" stroke="black" stroke-width="5" />
</svg>
  