<svg width="600" height="600" viewBox="0 0 600 600" fill="none" xmlns="http://www.w3.org/2000/svg">
  <path
    d="M549.688 48.9367C545.896 46.2663 541.48 44.8866 536.951 43.9743C534.163 39.0563 529.858 35.073 523.701 32.6029C516.652 29.7768 508.89 29.2427 501.417 30.3999C492.606 31.7573 484.531 36.2747 475.72 37.3651C467.89 38.3442 460.44 35.2288 453.145 32.87C445.293 30.3331 437.441 29.1982 429.233 30.5334C409.937 33.6933 392.94 43.7072 373.644 34.5167C365.547 30.6669 357.918 26.7281 348.929 25.5042C338.712 24.1245 328.451 25.6822 318.703 28.8867C309.468 31.9131 300.858 36.0077 290.887 34.8505C281.206 33.7156 272.551 30.0438 262.58 30.6224C254.527 31.112 246.764 33.2038 238.89 34.7615C228.317 36.8533 220.063 35.7184 210.003 32.2469C201.169 29.1982 192.403 26.4611 182.945 27.9298C173.175 29.4652 165.412 34.6057 155.262 34.4054C138.956 34.0939 123.475 40.7253 121.356 58.6168C120.888 62.5556 121.111 66.5834 121.869 70.5667C116.114 77.2871 110.158 83.8518 107.303 92.5083C103.466 104.124 104.916 116.987 105.452 128.959C105.92 139.462 106.455 147.985 101.079 157.376C94.789 168.347 87.4947 178.516 85.6433 191.357C84.0149 202.706 89.2124 210.962 91.22 221.643C91.3538 222.333 91.4207 223.023 91.443 223.69L90.1046 229.899C86.9371 236.797 78.8621 242.16 74.4007 247.991C58.05 269.42 63.359 294.01 60.5037 318.756C59.1207 330.817 48.1235 339.451 46.3836 351.824C45.0452 361.392 49.7073 368.246 55.2393 374.922C48.8373 382.577 41.1638 390.833 43.3945 401.136C46.7628 416.714 68.2887 417.782 80.9143 417.648C84.1264 417.604 87.3163 417.537 90.5061 417.493C100.901 423.301 111.72 426.349 123.654 426.438C137.752 426.55 150.979 426.06 165.055 427.573C176.855 428.842 188.968 430.488 200.835 430.956C212.635 431.423 222.138 427.64 232.778 423.078C238.243 420.741 243.73 419.139 249.776 419.718C254.928 420.207 259.858 422.21 265.056 422.366C275.161 422.7 287.875 417.76 295.103 410.683C307.907 398.11 297.155 380.997 305.944 367.245C312.413 357.142 319.462 344.347 309.87 333.487C305.654 328.725 300.122 327.323 294.277 326.833C292.894 326.077 291.422 325.409 289.861 324.853C285.712 316.374 273.978 314.483 262.535 316.73C255.531 318.11 248.772 320.514 241.879 322.361C239.76 322.939 237.618 322.628 237.685 323.073H237.596C234.562 320.424 233.358 315.796 229.477 313.281C224.681 310.188 219.572 309.52 213.996 309.943C211.341 310.144 202.352 312.636 200.589 309.476C198.27 305.292 206.568 293.365 208.308 289.582C212.189 281.059 213.795 273.025 212.233 263.902C214.933 261.031 217.386 257.96 219.349 254.511C225.417 243.918 221.558 236.263 216.896 227.852C218.524 224.781 220.197 221.71 221.424 218.505C225.417 207.957 223.989 198.789 219.572 188.864L223.141 172.33C225.617 170.661 228.183 169.059 230.324 166.945C233.648 163.651 235.923 159.49 237.395 155.062C237.908 153.549 238.332 151.991 238.578 150.389C238.622 150.055 238.845 149.454 238.935 148.964C245.738 148.964 255.352 151.256 262.892 148.186C267.487 146.316 271.413 143.09 275.049 139.774C276.387 138.55 277.503 137.482 278.551 136.658H287.942C297.936 142.155 305.274 148.764 317.521 147.518C327.492 146.517 335.299 140.53 344.556 137.482C355.331 133.944 362.469 143.757 371.659 147.718C382.723 152.48 393.765 150.455 404.338 145.693C417.968 139.574 430.169 134.099 444.847 140.308C455.331 144.759 466.418 149.031 477.906 145.226C483.304 143.446 487.676 138.483 492.539 136.658H499.476C499.9 136.836 500.324 137.014 500.77 137.237C508.689 141.576 516.206 145.226 525.24 140.998C533.761 136.992 538.2 127.868 540.275 119.123C541.234 115.117 541.881 110.8 541.948 106.683C541.993 104.391 541.836 102.122 541.39 99.874C541.056 98.2051 539.115 94.8671 539.338 93.2649C539.963 88.8588 547.993 84.7419 550.67 81.404C553.525 77.8435 555.711 73.4374 556.827 69.0313C558.812 61.2427 556.38 53.4763 549.733 48.8032L549.688 48.9367Z"
    fill="#58770e" stroke="black" stroke-width="5px" />
  <path
    d="M526.266 188.664C524.013 180.43 516.697 175.735 508.644 174.489C503.291 173.665 498.16 174.133 493.119 176.113C488.68 177.849 484.352 181.832 479.333 181.12C473.69 180.319 468.604 175.446 463.183 173.599C458.231 171.907 452.967 171.707 447.881 172.886C439.449 174.845 429.812 184.391 420.957 182.811C415.782 181.899 411.499 177.471 406.324 176.135C400.858 174.711 395.036 175.134 389.928 177.515C386.761 179.006 383.37 183.101 379.935 186.105H366.038C358.52 181.254 352.832 175.379 341.924 178.494C337.061 179.896 333.715 182.656 331.217 186.105H317.811C315.089 184.436 312.234 183.034 309.044 182.166C300.969 179.985 295.281 182.656 291.534 187.574C284.418 183.924 276.298 183.813 271.435 192.669C270.142 195.051 269.45 197.454 269.227 199.857C267.955 201.192 266.84 202.661 265.926 204.286C262.959 209.56 262.557 216.414 265.323 221.866C266.394 223.957 267.889 225.782 269.495 227.496C269.562 227.562 269.628 227.651 269.718 227.74L269.673 227.963C268.848 228.341 268.045 228.764 267.286 229.209C264.699 230.7 262.334 232.414 260.438 234.706C256.914 238.934 253.902 245.12 255.174 250.706C256.981 258.628 261.13 263.857 266.662 267.306C267.152 268.085 267.688 268.864 268.29 269.576C267.219 272.113 266.907 274.939 267.933 278.233C270.498 286.533 278.283 289.448 286.158 290.427C293.831 291.384 300.345 290.249 306.501 285.331C307.527 284.508 311.275 281.949 313.037 280.169C313.639 281.726 314.443 283.173 315.424 284.53C324.146 296.836 336.66 295.123 346.854 286.622C350.401 283.662 352.855 281.037 356.758 284.886C360.707 288.781 363.093 295.056 365.012 300.909C360.037 304.736 356.714 309.921 356.022 317.131C355.174 325.921 358.32 334.221 359.658 342.767C361.22 352.692 354.238 356.096 349.799 364.152C343.91 374.811 347.501 386.049 351.271 396.664C345.36 403.184 343.397 412.908 344.088 422.767C342.906 423.523 341.746 424.324 340.764 425.237C336.95 428.842 333.916 433.426 332.556 438.522C330.949 444.575 332.779 451.139 331.016 457.059C328.518 465.426 313.729 460.597 307.371 459.306C301.661 458.149 296.553 458.26 291.757 461.331C281.25 457.17 270.186 454.477 259.367 459.217C256.401 460.508 253.568 463.601 250.601 465.648H239.827C234.228 462.622 229.521 457.882 222.918 456.391C215.736 454.766 208.531 456.168 201.839 458.861C194.031 461.999 190.373 462.466 182.276 459.061C174.87 455.946 167.91 453.164 159.724 454.722C153.745 455.857 148.95 459.306 143.908 462.377C137.484 459.328 130.034 457.415 123.632 457.86C119.416 458.171 115.49 459.951 112.456 462.911C111.921 463.445 111.43 464.002 110.939 464.602C110.827 464.602 110.738 464.602 110.649 464.58C103.556 464.358 97.4881 459.173 90.0377 459.284C82.9888 459.395 75.8284 463.223 71.9247 469.097C71.8578 469.187 71.8132 469.276 71.7686 469.365C69.8056 471.234 68.2664 473.481 67.1734 475.996C60.1691 479.757 54.5255 486.855 53.2317 494.466C51.9826 501.743 54.8824 506.038 58.2284 510.421C50.9565 514.338 45.179 520.413 45.536 529.515C45.7813 535.501 49.0381 541.064 54.3248 543.89C55.5516 544.558 56.8008 544.981 58.0946 545.314C58.2507 545.604 58.4292 545.893 58.5853 546.182C55.3509 550.255 52.0941 554.327 51.8487 559.935C51.4026 570.238 61.1729 575.579 70.3856 574.933C80.5574 574.199 88.5655 567.434 98.2689 565.453C109.511 563.161 117.899 574.978 129.208 575C141.566 575.022 150.466 563.54 163.226 563.206C176.788 562.85 189.168 569.259 202.909 566.811C210.404 565.476 219.528 559.49 227.67 558.844H230.57C231.796 558.978 232.979 559.245 234.139 559.712C245.872 564.586 253.367 573.376 267.309 570.972C274.871 569.659 281.518 565.587 288.924 563.784C295.393 562.227 300.3 564.719 306.501 566.21C312.903 567.768 319.685 568.68 326.131 566.878C331.752 565.298 336.482 561.782 341.456 558.844H341.701C344.913 560.714 348.014 562.828 351.405 564.341C357.896 567.256 365.056 568.28 372.15 567.834C377.191 567.501 383.058 566.944 387.296 563.962C387.675 563.695 388.01 563.428 388.367 563.139C388.88 563.384 389.437 563.673 389.995 564.007C392.672 565.676 395.036 567.812 397.691 569.526C402.933 572.864 408.577 574.466 414.8 574.021C420.354 573.62 424.905 571.951 429.233 568.524C430.906 567.189 432.757 565.765 434.318 564.318C435.166 563.54 436.081 562.65 436.705 561.693C436.884 561.426 437.04 561.225 437.174 561.025C442.661 560.713 447.1 560.825 450.669 555.35C453.056 551.701 453.547 546.872 453.971 542.666C454.863 533.72 455.532 522.505 452.989 513.715C452.253 511.156 451.472 510.6 452.253 508.107C453.123 505.392 455.867 503.033 457.54 500.786C461.443 495.49 464.031 489.526 464.388 482.872C464.678 477.465 463.317 472.636 461.555 467.584C461.086 466.227 460.596 464.869 460.15 463.512L462.581 452.23C463.25 451.273 463.897 450.36 464.566 449.604C467.042 446.822 469.563 444.063 471.727 441.014C475.72 435.429 479.177 429.175 479.869 422.255C480.515 415.779 478.129 409.415 478.776 402.984C479.4 396.641 484.754 391.034 487.542 385.493C488.457 383.69 488.747 381.91 488.591 380.285C488.724 379.662 488.814 379.017 488.836 378.305C489.059 369.226 490.665 359.679 487.431 350.934C486.873 349.398 486.159 347.952 485.356 346.527L488.033 334.088C488.546 333.398 489.081 332.73 489.594 332.152C492.45 328.97 495.282 325.788 497.848 322.361C503.224 315.151 506.815 306.895 506.77 297.771C506.726 288.113 501.618 280.68 508.332 272.113C513.418 265.615 518.928 260.786 520.913 252.397C523.367 241.916 520.355 230.923 514.221 222.155C522.853 213.231 529.523 200.391 526.311 188.708L526.266 188.664Z"
    fill="#58770e" stroke="black" stroke-width="5px" />
</svg>
  