<svg width="600" height="600" viewBox="0 0 600 600" fill="none" xmlns="http://www.w3.org/2000/svg">
  <path
    d="M230.562 143.795C232.977 132.61 244.822 124.464 258.687 124.464H521.007V25H151.552C151.343 25 151.134 25 150.925 25.0232C147.999 38.0422 144.213 50.9219 140.567 63.7785C134.621 185.73 83.1558 301.068 78 422.857H275.06C276.291 422.857 277.498 422.764 278.683 422.648C279.635 389.949 290.69 357.669 300.839 326.618C296.612 324.576 291.712 323.392 286.393 323.392H225.94C208.173 323.392 194.726 310.257 197.815 295.916L230.562 143.795Z"
    fill="#dd0e23" stroke="black" stroke-width="5px" />
  <path
    d="M84.2011 575H430.316C430.455 575 430.594 575 430.734 575C435.541 549.287 440.581 523.597 445.83 497.977C457.651 440.169 470.424 382.546 483.314 324.947C489.747 296.194 496.204 267.464 502.614 238.711C507.073 218.66 509.813 198.238 514.69 178.304C511.927 177.561 508.977 177.143 505.865 177.143H306.808C302 177.143 297.448 178.141 293.431 179.882C289.645 211.745 289.993 244.049 290.156 276.167C291.875 276.422 293.64 276.608 295.474 276.608H355.928C373.694 276.608 387.141 289.743 384.053 304.084L351.306 456.205C348.891 467.39 337.046 475.536 323.181 475.536H85.5249C84.8514 475.536 84.1779 475.582 83.5276 475.605C84.6191 502.316 85.85 529.027 85.0372 555.762C84.8514 562.051 84.5959 568.502 84.2243 575H84.2011Z"
    fill="#dd0e23" stroke="black" stroke-width="5px" />
</svg>
  