<svg width="484" height="600" viewBox="0 0 484 600" fill="none" xmlns="http://www.w3.org/2000/svg">
  <path
    d="M166.933 130.25C169.556 118.099 182.423 109.25 197.485 109.25H482.451V1.20001H81.1023C80.8753 1.20001 80.6482 1.20001 80.4211 1.22522C77.2422 15.3681 73.1298 29.3597 69.1688 43.3261C62.7101 175.805 6.80185 301.099 1.20093 433.402H215.272C216.609 433.402 217.921 433.301 219.208 433.175C220.242 397.654 232.251 362.587 243.277 328.855C238.685 326.637 233.362 325.351 227.584 325.351H161.912C142.612 325.351 128.004 311.082 131.359 295.503L166.933 130.25Z"
    fill="black" />
  <path
    d="M7.93722 598.679H383.93C384.082 598.679 384.233 598.679 384.385 598.679C389.607 570.746 395.082 542.839 400.784 515.007C413.625 452.208 427.501 389.612 441.504 327.04C448.492 295.805 455.506 264.595 462.469 233.36C467.313 211.578 470.29 189.393 475.589 167.738C472.586 166.931 469.382 166.477 466.001 166.477H249.761C244.538 166.477 239.593 167.561 235.229 169.452C231.116 204.066 231.495 239.158 231.671 274.049C233.538 274.326 235.456 274.528 237.449 274.528H303.121C322.421 274.528 337.029 288.797 333.673 304.377L298.1 469.629C295.476 481.78 282.609 490.629 267.547 490.629H9.37529C8.64364 490.629 7.91199 490.679 7.20557 490.704C8.39135 519.721 9.7285 548.738 8.84548 577.78C8.64364 584.612 8.36612 591.62 7.96245 598.679H7.93722Z"
    fill="black" />
</svg>
  