<svg width="600" height="600" viewBox="0 0 600 600" fill="none" xmlns="http://www.w3.org/2000/svg">
  <path
    d="M540.51 175.738H204.145C199.809 175.738 196.321 179.253 196.321 183.571V274.766C196.321 279.107 199.833 282.599 204.145 282.599H448.076C452.412 282.599 455.9 286.115 455.9 290.433V479.925C455.9 483.865 452.978 487.216 449.089 487.711C427.901 490.354 406.384 491.675 381.684 491.675C266.53 491.675 213.431 501.821 210.014 430.139C209.802 425.868 206.267 422.494 202.001 422.612L53.1209 426.694C49.35 426.789 46.1919 429.573 45.6027 433.301L25.0984 562.13C24.3442 566.896 28.0209 571.214 32.8288 571.214H471.432C475.226 571.214 478.455 568.5 479.138 564.772L548.217 184.987C549.089 180.173 545.388 175.738 540.51 175.738Z"
    fill="#f05421" stroke="black" stroke-width="5px" />
  <path
    d="M567.189 29.0236H116.779C112.937 29.0236 109.661 31.8314 109.048 35.6302L51.1177 399.064C50.3635 403.831 54.0402 408.149 58.848 408.149H395.26C399.596 408.149 403.084 404.633 403.084 400.315V309.12C403.084 304.779 399.573 301.287 395.26 301.287H151.282C146.946 301.287 143.458 297.771 143.458 293.453V103.938C143.458 99.9975 146.38 96.647 150.269 96.1515C171.457 93.5088 192.974 92.1875 217.674 92.1875C332.828 92.1875 385.95 82.0416 389.368 153.723C389.58 157.994 393.115 161.368 397.381 161.25L546.944 157.121C550.644 157.027 553.779 154.337 554.439 150.68L574.872 38.2493C575.744 33.4359 572.044 29 567.166 29L567.189 29.0236Z"
    fill="#f05421" stroke="black" stroke-width="5px" />
</svg>
  