<svg width="600" height="592" viewBox="0 0 600 592" fill="none" xmlns="http://www.w3.org/2000/svg">
  <path
    d="M561.241 160.647H195.87C191.159 160.647 187.371 164.466 187.371 169.156V268.216C187.371 272.931 191.185 276.725 195.87 276.725H460.836C465.546 276.725 469.335 280.543 469.335 285.234V491.066C469.335 495.347 466.16 498.986 461.936 499.524C438.921 502.395 415.548 503.83 388.719 503.83C263.635 503.83 205.957 514.851 202.244 436.988C202.014 432.349 198.174 428.684 193.54 428.812L31.8216 433.246C27.7255 433.348 24.295 436.372 23.655 440.422L1.38254 580.361C0.56332 585.538 4.55701 590.228 9.77952 590.228H486.206C490.327 590.228 493.835 587.281 494.577 583.231L569.612 170.694C570.56 165.466 566.54 160.647 561.241 160.647Z"
    fill="black" />
  <path
    d="M590.221 1.28149H100.969C96.7957 1.28149 93.2372 4.33143 92.5716 8.45782L29.6455 403.233C28.8263 408.41 32.8199 413.101 38.0425 413.101H403.465C408.175 413.101 411.964 409.282 411.964 404.592V305.532C411.964 300.817 408.15 297.023 403.465 297.023H138.448C133.737 297.023 129.948 293.205 129.948 288.514V82.656C129.948 78.3758 133.123 74.7364 137.347 74.1982C160.362 71.3276 183.735 69.8924 210.565 69.8924C335.649 69.8924 393.352 58.8716 397.065 136.735C397.295 141.374 401.135 145.039 405.769 144.911L568.23 140.425C572.249 140.323 575.654 137.401 576.371 133.429L598.566 11.3027C599.514 6.07426 595.494 1.25586 590.195 1.25586L590.221 1.28149Z"
    fill="black" />
</svg>
  