<svg width="600" height="600" viewBox="0 0 600 600" fill="none" xmlns="http://www.w3.org/2000/svg">
  <path
    d="M560.251 64.3315C558.768 58.8264 556.29 53.5295 552.49 48.649C545.146 39.1886 533.771 33.1746 521.979 29.9363C497.421 23.2053 470.825 25.1714 445.642 25.5878C421.362 26.0041 397.06 25.7266 372.803 25.7728C305.942 25.8885 225.643 25.8422 158.805 26.3048C140.318 26.4436 111.683 22.6965 101.674 42.2418C100.562 44.4161 99.7977 46.7754 99.2417 49.1347C92.1988 78.5337 88.5383 107.956 81.8893 137.447C75.634 165.181 72.7381 192.914 66.4829 220.671C60.2277 248.358 56.3819 276.023 51.0765 303.895C46.1882 329.57 40.5585 354.528 42.6667 381.082C44.636 406.016 61.6872 428.708 89.4419 428.846C127.738 429.054 166.034 428.175 204.329 428.939C223.443 429.332 242.579 430.095 261.646 431.645C273.415 432.593 285.578 435.045 296.235 428.939C306.174 423.226 313.355 413.511 317.479 403.241C325.31 383.742 326.7 359.316 320.144 339.354C313.888 320.387 295.47 307.619 276.125 302.623C259.885 298.436 243.737 300.703 227.45 298.32C225.713 298.066 223.836 297.696 222.608 296.47C220.639 294.504 221.103 291.335 221.682 288.675C221.682 278.729 226.477 266.955 228.632 257.194C231.18 245.606 233.752 233.994 236.3 222.406C238.849 210.817 241.166 200.316 243.621 189.283C245.591 180.378 246.054 168.512 254.51 162.683C262.827 156.946 278.095 158.172 287.894 157.64C322.507 155.767 357.258 158.982 391.893 159.167C434.081 159.375 476.246 159.583 518.434 159.791C540.605 159.907 549.664 141.495 554.181 123.338C558.745 104.949 565.325 83.2755 560.251 64.3546V64.3315Z"
    fill="#ffc240" stroke="black" stroke-width="5px" />
  <path
    d="M507.821 179.096C489.343 170.6 465.168 169.581 446.366 169.674C403.226 169.859 360.064 170.067 316.925 170.252C289.369 170.368 265.565 169.975 256.326 198.936C249.726 219.609 240.001 245.768 248.707 266.974C262.369 300.241 299.164 297.046 329.267 298.157C374.143 299.824 351.844 344.574 344.434 368.65C338.483 387.934 333.018 443.957 304.143 443.957C258.989 443.957 213.858 443.448 168.704 443.448C146.127 443.448 123.573 443.587 100.996 443.981C83.8145 444.282 64.3405 443.934 52.5773 458.334C35.0946 479.725 30.8108 530.308 47.5756 553.134C62.1407 572.95 90.1824 575.196 113.199 574.988C142.538 574.733 171.714 572.603 201.099 572.557C245.211 572.557 289.323 572.372 333.458 572.279C355.919 572.233 378.38 572.187 400.841 572.14C416.124 572.117 442.707 576.562 455.443 566.144C468.109 555.773 470.471 530.4 474.153 515.468C485.36 470.117 492.886 423.701 502.565 377.979C508.4 350.477 514.537 322.998 519.816 295.402C525.188 267.298 542.254 236.323 533.64 207.339C529.542 193.518 519.886 184.721 507.775 179.142L507.821 179.096Z"
    fill="#ffc240" stroke="black" stroke-width="5px" />
</svg>
  