<svg width="573" height="600" viewBox="0 0 573 600" fill="none" xmlns="http://www.w3.org/2000/svg">
  <path
    d="M570.82 42.9071C569.202 36.9016 566.498 31.1231 562.353 25.7989C554.341 15.4784 541.932 8.91776 529.068 5.38509C502.278 -1.95782 473.263 0.187017 445.791 0.641218C419.304 1.09542 392.792 0.792618 366.331 0.843085C293.391 0.969251 205.793 0.918785 132.879 1.42345C112.71 1.57485 81.472 -2.51295 70.5538 18.8092C69.3407 21.1812 68.5067 23.755 67.9001 26.3288C60.2169 58.4004 56.2237 90.4972 48.9702 122.67C42.1463 152.925 38.9871 183.179 32.1633 213.459C25.3394 243.664 21.144 273.843 15.3563 304.249C10.0236 332.258 3.88209 359.485 6.18199 388.453C8.33025 415.654 26.9316 440.408 57.2094 440.56C98.9867 440.787 140.764 439.828 182.541 440.661C203.392 441.089 224.268 441.922 245.068 443.613C257.907 444.647 271.176 447.322 282.802 440.661C293.644 434.428 301.479 423.83 305.977 412.626C314.52 391.355 316.036 364.708 308.884 342.932C302.06 322.24 281.968 308.312 260.864 302.861C243.147 298.294 225.532 300.767 207.764 298.168C205.869 297.89 203.822 297.486 202.482 296.149C200.334 294.004 200.839 290.547 201.471 287.645C201.471 276.795 206.703 263.951 209.053 253.303C211.833 240.661 214.639 227.994 217.419 215.352C220.199 202.71 222.726 191.254 225.405 179.218C227.553 169.503 228.059 156.558 237.284 150.199C246.357 143.941 263.012 145.279 273.703 144.698C311.462 142.655 349.372 146.162 387.156 146.364C433.179 146.591 479.177 146.818 525.201 147.045C549.388 147.171 559.269 127.086 564.198 107.277C569.177 87.2169 576.354 63.5732 570.82 42.9323V42.9071Z"
    fill="black" />
  <path
    d="M513.623 168.104C493.465 158.836 467.093 157.725 446.581 157.826C399.52 158.028 352.433 158.255 305.372 158.457C275.312 158.583 249.344 158.154 239.264 189.748C232.065 212.3 221.455 240.838 230.954 263.972C245.857 300.263 285.997 296.778 318.836 297.99C367.792 299.808 343.466 348.626 335.382 374.891C328.89 395.928 322.929 457.044 291.428 457.044C242.169 457.044 192.936 456.489 143.677 456.489C119.048 456.489 94.4434 456.64 69.814 457.07C51.0704 457.398 29.826 457.019 16.9934 472.728C-2.07861 496.063 -6.75188 551.245 11.537 576.146C27.4262 597.764 58.0172 600.214 83.1265 599.987C115.132 599.709 146.961 597.385 179.017 597.335C227.139 597.335 275.261 597.133 323.409 597.032C347.912 596.981 372.415 596.931 396.918 596.88C413.59 596.855 442.59 601.704 456.483 590.339C470.301 579.025 472.878 551.346 476.894 535.057C489.12 485.582 497.33 434.947 507.889 385.068C514.255 355.066 520.949 325.088 526.709 294.985C532.569 264.325 551.186 230.534 541.789 198.915C537.318 183.838 526.784 174.241 513.573 168.155L513.623 168.104Z"
    fill="black" />
</svg>
  