<svg width="600" height="600" viewBox="0 0 600 600" fill="none" xmlns="http://www.w3.org/2000/svg">
  <path
    d="M520.967 104.007L531.554 54.7295L531.578 54.7533C532.812 48.9322 531.317 43.0398 527.376 38.1454C522.249 31.8015 513.68 28 504.447 28H145.113C131.726 28 120.308 35.8882 117.982 46.7701L47.4348 375.247C46.1768 381.068 47.6725 386.96 51.6128 391.855C56.7398 398.198 65.309 402 74.5427 402H260.428C273.816 402 285.234 394.112 287.56 383.23L298.147 333.952C299.405 328.131 297.909 322.239 293.969 317.345C288.842 311.001 280.273 307.199 271.039 307.199H214.568C205.857 307.199 197.786 303.635 192.991 297.695C189.383 293.205 188.006 287.835 189.146 282.537L219.719 140.193C221.879 130.095 232.585 122.777 245.141 122.777H493.836C507.223 122.777 518.641 114.889 520.967 104.007Z"
    fill="#0fa4b7" />
  <path
    d="M434.24 522.053L504.253 196.536L504.301 196.512C505.549 190.744 504.065 184.904 500.156 180.054C495.069 173.767 486.568 170 477.407 170H292.944C279.662 170 268.335 177.817 266.027 188.601L255.524 237.434C254.276 243.203 255.759 249.042 259.668 253.893C264.755 260.179 273.257 263.947 282.417 263.947H338.442C347.084 263.947 355.091 267.478 359.848 273.365C363.427 277.815 364.793 283.136 363.663 288.387L333.331 429.448C331.188 439.455 320.567 446.707 308.11 446.707H87.8513C74.5696 446.707 63.2424 454.524 60.9343 465.308L50.4314 514.141C49.1834 519.91 50.6668 525.749 54.5759 530.6C59.6629 536.886 68.1638 540.654 77.325 540.654H407.323C420.606 540.654 431.933 532.837 434.24 522.053Z"
    fill="#0fa4b7" />
  <path
    d="M553.482 64.4623C546.959 55.7505 540.412 47.0386 533.889 38.3032C526.659 28.6731 511.635 26.1773 500.307 26.1773H143.815C129.662 26.1773 117.581 34.6301 115.085 46.2616C114.92 47.0386 114.755 47.8156 114.591 48.5926C114.12 50.8059 113.625 53.0427 113.154 55.256C112.4 58.7643 111.647 62.2726 110.893 65.7809C109.904 70.4193 108.892 75.0578 107.903 79.6727C106.701 85.2766 105.5 90.8804 104.299 96.4607C102.934 102.865 101.544 109.269 100.155 115.674C98.6476 122.737 97.1168 129.778 95.6097 136.841C93.9848 144.376 92.3598 151.934 90.7349 159.469C89.0394 167.333 87.3438 175.22 85.6482 183.085C83.9291 191.137 82.1865 199.166 80.4674 207.219C78.7247 215.271 77.0056 223.324 75.2629 231.4C73.5674 239.311 71.8718 247.223 70.1527 255.134C68.5278 262.739 66.8793 270.344 65.2544 277.95C63.7237 285.084 62.193 292.218 60.6387 299.353C59.2493 305.875 57.8363 312.373 56.4469 318.895C55.2223 324.617 53.9742 330.338 52.7496 336.084C51.7134 340.863 50.7008 345.643 49.6646 350.423C48.864 354.096 48.0868 357.793 47.2861 361.466C46.7681 363.891 46.25 366.292 45.7319 368.718C44.6957 373.568 44.6721 378.065 45.4964 382.916C46.6974 389.979 48.9817 396.76 52.208 403.141C55.4343 409.546 59.4612 415.503 63.7237 421.248C66.8558 425.462 69.8465 430.407 74.9568 432.408C78.5363 433.821 82.5162 433.797 86.3547 433.774C96.5752 433.68 106.796 433.586 116.993 433.586H151.493C193.458 433.586 230.101 434.669 272.066 434.669H288.951C298.583 434.669 306.825 428.994 308.497 421.224L315.868 386.942C317.587 378.913 317.987 374.157 319.73 366.128C320.437 362.808 321.167 359.488 321.873 356.144C322.674 352.471 323.263 348.704 321.473 344.96C316.41 334.247 307.72 325.606 298.889 317.953C289.893 310.16 281.321 302.861 268.745 302.861H219.292L247.08 173.643C248.752 165.873 256.994 160.198 266.626 160.198L520.489 161.282C530.121 161.282 538.363 155.607 540.035 147.837C542.461 136.535 544.91 125.21 547.336 113.908C549.173 105.408 550.986 96.8845 552.823 88.3846C554.495 80.5675 558.804 71.5966 553.459 64.4859L553.482 64.4623ZM529.038 56.3626L518.535 105.196C516.227 115.98 504.9 123.797 491.618 123.797H244.89C232.432 123.797 221.811 131.049 219.668 141.056L189.337 282.117C188.206 287.368 189.572 292.689 193.152 297.139C197.909 303.026 205.915 306.557 214.558 306.557H270.582C279.743 306.557 288.244 310.325 293.331 316.611C297.24 321.462 298.724 327.301 297.476 333.07L286.973 381.903C284.665 392.687 273.338 400.504 260.056 400.504H75.6397C66.479 400.504 57.9776 396.737 52.8909 390.45C48.9817 385.6 47.4981 379.761 48.7462 373.992L118.735 48.4749C121.043 37.691 132.37 29.8739 145.652 29.8739H502.144C511.305 29.8739 519.806 33.6412 524.893 39.9279C528.802 44.7782 530.286 50.6175 529.061 56.3862L529.038 56.3626Z"
    fill="black" stroke="black" stroke-miterlimit="10" />
  <path
    d="M529.438 205.406C522.114 195.893 514.979 182.331 504.876 175.55C496.751 170.111 484.6 167.215 474.874 167.215H290.411C276.258 167.215 264.177 175.668 261.68 187.299C259.396 197.942 257.112 208.584 254.804 219.227C253.674 224.454 252.426 229.658 251.436 234.908C249.67 244.28 253.485 252.615 256.664 261.138C260.409 271.169 264.412 281.481 269.829 290.782C271.665 293.913 274.892 298.858 278.777 299.423C289.799 301.024 323.309 301.236 323.309 301.236C325.217 301.236 348.083 301.778 356.208 301.519L328.985 428.123C327.03 437.259 317.187 443.899 305.577 443.899H85.3419C71.1887 443.899 59.1078 452.351 56.6116 463.983C54.7041 472.812 52.8201 481.666 50.9126 490.495C48.8873 499.96 46.8385 509.449 45.2372 519.009C44.6013 522.8 43.6829 526.355 44.4836 530.193C45.2607 533.913 46.8385 537.492 48.6989 540.812C49.6645 542.531 50.7242 544.203 51.9017 545.804C56.7293 553.715 63.3232 561.202 68.9515 568.76C71.9187 572.74 72.1542 573.116 76.7935 573.587C82.2805 574.152 88.3092 573.587 93.8433 573.587H439.55C449.181 573.587 457.424 567.913 459.096 560.143C460.414 553.974 461.757 547.781 463.076 541.613C466.514 525.602 469.952 509.591 473.414 493.58C478.171 471.494 482.904 453.741 487.661 431.655C492.913 407.262 498.164 382.845 503.416 358.452C513.236 312.844 520.395 266.742 530.521 221.181C531.699 215.86 533.088 210.139 529.462 205.429L529.438 205.406ZM503.581 197.4L433.568 522.917C431.26 533.701 419.933 541.518 406.651 541.518H76.6522C67.4914 541.518 58.9901 537.751 53.9034 531.464C49.9942 526.614 48.5105 520.775 49.7587 515.006L60.2617 466.173C62.5696 455.389 73.8969 447.572 87.1788 447.572H307.437C319.895 447.572 330.516 440.32 332.659 430.313L362.99 289.251C364.121 284.001 362.755 278.68 359.175 274.229C354.418 268.343 346.411 264.811 337.769 264.811H281.745C272.584 264.811 264.082 261.044 258.996 254.757C255.087 249.907 253.603 244.068 254.851 238.299L265.354 189.466C267.662 178.682 278.989 170.865 292.271 170.865H476.734C485.895 170.865 494.396 174.632 499.483 180.919C503.392 185.769 504.876 191.608 503.628 197.377L503.581 197.4Z"
    fill="black" stroke="black" stroke-miterlimit="10" />
</svg>
  