<svg width="561" height="600" viewBox="0 0 561 600" fill="none" xmlns="http://www.w3.org/2000/svg">
  <g clip-path="url(#clip0_117_208)">
    <path
      d="M556.89 43.0498C549.773 33.546 542.631 24.0421 535.515 14.5126C527.628 4.00702 511.238 1.2843 498.881 1.2843H109.98C94.5405 1.2843 81.3614 10.5056 78.6382 23.1945C78.4584 24.0421 78.2785 24.8898 78.0987 25.7374C77.5849 28.1519 77.0454 30.5921 76.5316 33.0066C75.7095 36.8338 74.8874 40.661 74.0653 44.4882C72.9863 49.5484 71.8816 54.6085 70.8026 59.643C69.4924 65.7562 68.1822 71.8695 66.872 77.9571C65.382 84.9437 63.8663 91.9303 62.3505 98.9169C60.7063 106.623 59.0365 114.303 57.3923 122.009C55.6197 130.228 53.847 138.473 52.0744 146.693C50.2247 155.272 48.375 163.877 46.5253 172.456C44.6499 181.241 42.7488 190 40.8734 198.784C38.9723 207.569 37.0969 216.353 35.1958 225.164C33.3461 233.794 31.4964 242.425 29.621 251.055C27.8484 259.352 26.0501 267.648 24.2774 275.945C22.6076 283.728 20.9377 291.511 19.2421 299.294C17.7264 306.409 16.185 313.498 14.6692 320.613C13.3333 326.855 11.9718 333.096 10.6359 339.364C9.50549 344.578 8.4008 349.792 7.27043 355.007C6.39695 359.014 5.54917 363.046 4.6757 367.053C4.11051 369.699 3.54533 372.319 2.98014 374.965C1.84976 380.256 1.82407 385.162 2.72324 390.453C4.03344 398.159 6.52541 405.557 10.045 412.518C13.5646 419.504 17.9576 426.003 22.6076 432.27C26.0244 436.868 29.287 442.262 34.8619 444.445C38.7668 445.987 43.1085 445.961 47.296 445.935C58.4456 445.832 69.5952 445.73 80.7191 445.73H118.355C164.136 445.73 204.11 446.911 249.89 446.911H268.31C278.817 446.911 287.809 440.721 289.633 432.245L297.674 394.846C299.549 386.087 299.986 380.898 301.887 372.139C302.658 368.518 303.454 364.896 304.225 361.248C305.099 357.241 305.741 353.132 303.788 349.047C298.265 337.36 288.785 327.934 279.151 319.586C269.338 311.084 259.986 303.121 246.268 303.121H192.318L222.633 162.156C224.457 153.68 233.448 147.489 243.956 147.489L520.897 148.671C531.405 148.671 540.396 142.48 542.22 134.004C544.867 121.675 547.538 109.32 550.184 96.9905C552.188 87.7178 554.166 78.4195 556.17 69.1468C557.994 60.619 562.696 50.8327 556.864 43.0755L556.89 43.0498ZM530.223 34.2138L518.765 87.4866C516.247 99.2508 503.89 107.779 489.401 107.779H220.243C206.653 107.779 195.067 115.69 192.729 126.606L159.64 280.491C158.407 286.219 159.897 292.025 163.802 296.879C168.991 303.301 177.726 307.154 187.154 307.154H248.272C258.265 307.154 267.539 311.263 273.088 318.122C277.353 323.413 278.971 329.783 277.61 336.076L266.152 389.349C263.634 401.113 251.277 409.641 236.788 409.641H35.6069C25.6133 409.641 16.3391 405.531 10.79 398.673C6.52541 393.382 4.90691 387.011 6.2685 380.718L82.6202 25.609C85.1379 13.8448 97.4949 5.31701 111.984 5.31701H500.885C510.878 5.31701 520.152 9.42677 525.702 16.2849C529.966 21.5763 531.585 27.9464 530.249 34.2395L530.223 34.2138Z"
      fill="black" stroke="black" stroke-miterlimit="10" />
    <path
      d="M530.66 196.806C522.67 186.429 514.886 171.634 503.865 164.236C495.001 158.303 481.745 155.144 471.135 155.144H269.903C254.463 155.144 241.284 164.365 238.56 177.054C236.068 188.664 233.577 200.274 231.059 211.884C229.826 217.586 228.464 223.263 227.385 228.991C225.458 239.214 229.62 248.307 233.088 257.605C237.173 268.547 241.541 279.798 247.449 289.944C249.453 293.36 252.973 298.754 257.212 299.371C269.235 301.117 305.792 301.349 305.792 301.349C307.873 301.349 332.818 301.939 341.681 301.657L311.983 439.771C309.851 449.737 299.113 456.98 286.447 456.98H46.1912C30.7513 456.98 17.5721 466.201 14.8489 478.89C12.768 488.523 10.7128 498.181 8.63187 507.813C6.4225 518.139 4.18744 528.49 2.4405 538.919C1.74686 543.054 0.744938 546.933 1.61841 551.12C2.46619 555.178 4.18744 559.082 6.21698 562.704C7.27029 564.579 8.42635 566.403 9.71087 568.149C14.9774 576.78 22.1707 584.948 28.3107 593.193C31.5477 597.534 31.8046 597.945 36.8656 598.459C42.8514 599.075 49.4281 598.459 55.4654 598.459H432.6C443.107 598.459 452.099 592.269 453.923 583.792C455.361 577.062 456.826 570.307 458.264 563.577C462.015 546.111 465.766 528.644 469.542 511.178C474.732 487.084 479.896 467.717 485.085 443.623C490.814 417.013 496.543 390.376 502.272 363.766C512.985 314.012 520.795 263.718 531.841 214.016C533.126 208.211 534.642 201.969 530.685 196.832L530.66 196.806ZM502.452 188.073L426.074 543.183C423.557 554.947 411.2 563.474 396.71 563.474H36.7114C26.7179 563.474 17.4437 559.365 11.8945 552.507C7.62995 547.215 6.01146 540.845 7.37305 534.552L18.8309 481.279C21.3486 469.515 33.7057 460.987 48.195 460.987H288.477C302.067 460.987 313.653 453.076 315.991 442.159L349.08 288.274C350.313 282.546 348.823 276.741 344.918 271.887C339.729 265.465 330.994 261.612 321.566 261.612H260.449C250.455 261.612 241.181 257.502 235.632 250.644C231.367 245.353 229.749 238.983 231.11 232.69L242.568 179.417C245.086 167.653 257.443 159.125 271.932 159.125H473.165C483.158 159.125 492.432 163.235 497.982 170.093C502.246 175.384 503.865 181.754 502.503 188.047L502.452 188.073Z"
      fill="black" stroke="black" stroke-miterlimit="10" />
  </g>
  <defs>
    <clipPath id="clip0_117_208">
      <rect width="561" height="600" fill="white" />
    </clipPath>
  </defs>
</svg>
  