<svg id="Layer_1" xmlns="http://www.w3.org/2000/svg" viewBox="0 0 192.79 239">
  <defs>
    <style>.cls-1{fill:#fd8a1a;stroke:#000;stroke-miterlimit:10;stroke-width:2px;}</style>
  </defs>
  <path class="cls-1"
    d="m66.73,52.19c1.04-4.82,6.14-8.33,12.11-8.33h112.95V1H32.72c-.09,0-.18,0-.27.01-1.26,5.61-2.89,11.16-4.46,16.7C25.43,70.26,3.26,119.96,1.04,172.44h84.85c.53,0,1.05-.04,1.56-.09.41-14.09,5.17-28,9.54-41.38-1.82-.88-3.93-1.39-6.22-1.39h-26.03c-7.65,0-13.44-5.66-12.11-11.84l14.1-65.55Z" />
  <path class="cls-1"
    d="m4.98,238h149.03c.06,0,.12,0,.18,0,2.07-11.08,4.24-22.15,6.5-33.19,5.09-24.91,10.59-49.74,16.14-74.56,2.77-12.39,5.55-24.77,8.31-37.16,1.92-8.64,3.1-17.44,5.2-26.03-1.19-.32-2.46-.5-3.8-.5h-85.71c-2.07,0-4.03.43-5.76,1.18-1.63,13.73-1.48,27.65-1.41,41.49.74.11,1.5.19,2.29.19h26.03c7.65,0,13.44,5.66,12.11,11.84l-14.1,65.55c-1.04,4.82-6.14,8.33-12.11,8.33H5.54c-.29,0-.58.02-.86.03.47,11.51,1,23.02.65,34.54-.08,2.71-.19,5.49-.35,8.29Z" />
</svg>