<svg id="Layer_1" xmlns="http://www.w3.org/2000/svg" viewBox="0 0 229.47 242.77">
  <defs>
    <style>.cls-1{fill:#215cd7;stroke:#000;stroke-miterlimit:10;}</style>
  </defs>
  <path class="cls-1"
    d="m195.74,68.63c-4.18,0-8.11.99-11.63,2.71-3.52-1.72-7.45-2.71-11.63-2.71s-8.11.99-11.63,2.71c-3.52-1.72-7.45-2.71-11.63-2.71s-8.11.99-11.63,2.71c-3.52-1.72-7.45-2.71-11.63-2.71-14.68,0-26.59,11.9-26.59,26.59s11.9,26.59,26.59,26.59c4.18,0,8.11-.99,11.63-2.71,3.52,1.72,7.45,2.71,11.63,2.71s8.11-.99,11.63-2.71c.83.4,1.68.77,2.56,1.08-14.01,4.53-24.16,17.67-24.16,33.19,0,16.45,11.4,30.21,26.72,33.89-1.09.37-2.15.81-3.18,1.3-3.69-1.77-7.82-2.79-12.19-2.79s-8.49,1.02-12.19,2.79c-3.69-1.77-7.82-2.79-12.19-2.79s-8.49,1.02-12.19,2.79c-3.69-1.77-7.82-2.79-12.19-2.79s-8.49,1.02-12.19,2.79c-3.69-1.77-7.82-2.79-12.19-2.79s-8.49,1.02-12.19,2.79c-3.69-1.77-7.82-2.79-12.19-2.79s-8.49,1.02-12.19,2.79c-3.69-1.77-7.82-2.79-12.19-2.79-15.6,0-28.25,12.65-28.25,28.25s12.65,28.25,28.25,28.25c4.37,0,8.49-1.02,12.19-2.79,3.69,1.77,7.81,2.79,12.19,2.79s8.49-1.02,12.19-2.79c3.69,1.77,7.82,2.79,12.19,2.79s8.49-1.02,12.19-2.79c3.69,1.77,7.82,2.79,12.19,2.79s8.49-1.02,12.19-2.79c3.69,1.77,7.81,2.79,12.19,2.79s8.49-1.02,12.19-2.79c3.69,1.77,7.82,2.79,12.19,2.79s8.49-1.02,12.19-2.79c3.69,1.77,7.82,2.79,12.19,2.79,15.6,0,28.25-12.65,28.25-28.25,0-12.71-8.4-23.46-19.95-27,14.84-4.02,25.76-17.54,25.76-33.65s-11.08-29.81-26.07-33.73c.39-.17.77-.37,1.15-.55,3.52,1.72,7.45,2.71,11.63,2.71,14.68,0,26.59-11.9,26.59-26.59s-11.9-26.59-26.59-26.59Z" />
  <path class="cls-1"
    d="m33.73,174.14c4.18,0,8.11-.99,11.63-2.71,3.52,1.72,7.45,2.71,11.63,2.71s8.11-.99,11.63-2.71c3.52,1.72,7.45,2.71,11.63,2.71s8.11-.99,11.63-2.71c3.52,1.72,7.45,2.71,11.63,2.71,14.68,0,26.59-11.9,26.59-26.59s-11.9-26.59-26.59-26.59c-4.18,0-8.11.99-11.63,2.71-3.52-1.72-7.45-2.71-11.63-2.71s-8.11.99-11.63,2.71c-.83-.4-1.68-.77-2.56-1.08,14.01-4.53,24.16-17.67,24.16-33.19,0-16.45-11.4-30.21-26.72-33.89,1.09-.37,2.15-.81,3.18-1.3,3.69,1.77,7.82,2.79,12.19,2.79s8.49-1.02,12.19-2.79c3.69,1.77,7.82,2.79,12.19,2.79s8.49-1.02,12.19-2.79c3.69,1.77,7.82,2.79,12.19,2.79s8.49-1.02,12.19-2.79c3.69,1.77,7.82,2.79,12.19,2.79s8.49-1.02,12.19-2.79c3.69,1.77,7.82,2.79,12.19,2.79s8.49-1.02,12.19-2.79c3.69,1.77,7.82,2.79,12.19,2.79,15.6,0,28.25-12.65,28.25-28.25S216.33.5,200.73.5c-4.37,0-8.49,1.02-12.19,2.79-3.69-1.77-7.81-2.79-12.19-2.79s-8.49,1.02-12.19,2.79c-3.69-1.77-7.82-2.79-12.19-2.79s-8.49,1.02-12.19,2.79c-3.69-1.77-7.82-2.79-12.19-2.79s-8.49,1.02-12.19,2.79c-3.69-1.77-7.81-2.79-12.19-2.79s-8.49,1.02-12.19,2.79c-3.69-1.77-7.82-2.79-12.19-2.79s-8.49,1.02-12.19,2.79c-3.69-1.77-7.82-2.79-12.19-2.79-15.6,0-28.25,12.65-28.25,28.25,0,12.71,8.4,23.46,19.95,27-14.84,4.02-25.76,17.54-25.76,33.65s11.08,29.81,26.07,33.73c-.39.17-.77.37-1.15.55-3.52-1.72-7.45-2.71-11.63-2.71-14.68,0-26.59,11.9-26.59,26.59s11.9,26.59,26.59,26.59Z" />
</svg>