<svg id="Layer_1" xmlns="http://www.w3.org/2000/svg" viewBox="0 0 227.69 238.74">
  <defs>
    <style>.cls-1{fill:#e854be;stroke:#000;stroke-miterlimit:10;}</style>
  </defs>
  <path class="cls-1"
    d="m226.4,17.51c-.64-2.38-1.71-4.67-3.35-6.78-3.17-4.09-8.08-6.69-13.17-8.09-10.6-2.91-22.08-2.06-32.95-1.88-10.48.18-20.97.06-31.44.08-28.86.05-63.52.03-92.37.23-7.98.06-20.34-1.56-24.66,6.89-.48.94-.81,1.96-1.05,2.98-3.04,12.71-4.62,25.43-7.49,38.18-2.7,11.99-3.95,23.98-6.65,35.98-2.7,11.97-4.36,23.93-6.65,35.98-2.11,11.1-4.54,21.89-3.63,33.37.85,10.78,8.21,20.59,20.19,20.65,16.53.09,33.06-.29,49.59.04,8.25.17,16.51.5,24.74,1.17,5.08.41,10.33,1.47,14.93-1.17,4.29-2.47,7.39-6.67,9.17-11.11,3.38-8.43,3.98-18.99,1.15-27.62-2.7-8.2-10.65-13.72-19-15.88-7.01-1.81-13.98-.83-21.01-1.86-.75-.11-1.56-.27-2.09-.8-.85-.85-.65-2.22-.4-3.37,0-4.3,2.07-9.39,3-13.61,1.1-5.01,2.21-10.03,3.31-15.04,1.05-4.77,2.1-9.55,3.16-14.32.85-3.85,1.05-8.98,4.7-11.5,3.59-2.48,10.18-1.95,14.41-2.18,14.94-.81,29.94.58,44.89.66,18.21.09,36.41.18,54.62.27,9.57.05,13.48-7.91,15.43-15.76,1.97-7.95,4.81-17.32,2.62-25.5Z" />
  <path class="cls-1"
    d="m203.82,67.24c-7.98-3.67-18.42-4.11-26.54-4.07-18.63.08-37.27.17-55.9.25-11.9.05-22.18-.12-26.17,12.39-2.85,8.93-7.05,20.23-3.29,29.39,5.9,14.37,21.79,12.99,34.79,13.47,19.38.72,9.75,20.05,6.55,30.45-2.57,8.33-4.93,32.53-17.4,32.53-19.5,0-38.99-.22-58.49-.22-9.75,0-19.49.06-29.24.23-7.42.13-15.83-.02-20.91,6.2-7.55,9.24-9.4,31.09-2.16,40.95,6.29,8.56,18.4,9.53,28.34,9.44,12.67-.11,25.27-1.03,37.96-1.05,19.05,0,38.1-.08,57.16-.12,9.7-.02,19.4-.04,29.1-.06,6.6-.01,18.08,1.91,23.58-2.59,5.47-4.48,6.49-15.44,8.08-21.89,4.84-19.59,8.09-39.64,12.27-59.39,2.52-11.88,5.17-23.75,7.45-35.67,2.32-12.14,9.69-25.52,5.97-38.04-1.77-5.97-5.94-9.77-11.17-12.18Z" />
</svg>