<svg width="600" height="600" viewBox="0 0 600 600" fill="none" xmlns="http://www.w3.org/2000/svg">
  <g clip-path="url(#clip0_127_113)">
    <path
      d="M98.0077 575C95.5087 575 93.3208 574.903 91.308 574.699C82.6634 573.814 79.3768 571.13 74.8552 565.063L74.7482 564.917C73.1146 562.73 71.3837 560.542 69.5459 558.208C65.6077 553.221 61.5432 548.077 58.0912 542.486C56.8174 540.727 55.6019 538.821 54.4836 536.818C51.7609 531.947 50.0009 527.416 49.0869 522.963C47.9394 517.421 48.7854 512.773 49.4564 509.039C49.5439 508.534 49.6411 508.028 49.7286 507.523C51.3331 497.906 53.4237 488.232 55.2615 479.695C56.9438 471.839 58.6357 463.993 60.3277 456.137L60.7166 454.338C62.642 445.393 68.311 437.517 76.3137 432.179C74.1259 429.904 72.4047 427.522 70.9364 425.49C70.5378 424.935 70.178 424.44 69.8085 423.944C64.5673 416.914 60.6972 410.818 57.6244 404.751C53.9099 397.429 51.3428 389.69 49.9912 381.756C48.9021 375.29 49.0091 369.427 50.3218 363.292L57.7217 328.872C58.6649 324.468 59.6178 320.073 60.561 315.669L64.5867 296.981C66.0453 290.165 67.5234 283.34 68.9917 276.514L74.0773 252.878C75.5747 245.926 77.0625 238.983 78.56 232.032C79.9991 225.332 81.4382 218.614 82.8871 211.895C82.8871 211.895 105.573 106.42 106.292 103.046L116.143 57.2706C116.289 56.5803 116.454 55.7927 116.629 55.0051C120.266 38.0094 137.127 25.6515 156.711 25.6515H497.426C508.589 25.6515 528.941 27.8294 539.881 42.4333C543.935 47.8588 548 53.2745 552.055 58.6804L558.609 67.4214C566.485 77.9319 563.237 89.7745 561.302 96.8431C560.913 98.2724 560.544 99.6142 560.301 100.752L555.06 125.147C555.06 125.147 549.43 151.321 548.078 157.573C545.394 170.028 533.784 179.304 519.859 180.519C523.69 184.963 526.997 189.805 530.069 194.306C532.004 197.136 533.803 199.771 535.524 202.007C542.603 211.205 540.347 221.356 538.996 227.423L538.918 227.773C533.862 250.505 529.496 273.879 525.275 296.485L525.256 296.573C521.434 317.01 517.487 338.129 513.023 358.887L497.98 428.854C495.686 439.53 493.362 449.253 491.125 458.665L491.106 458.762C488.889 468.037 486.603 477.634 484.357 488.057L474.488 533.969C473.262 539.657 472.037 545.335 470.822 551.004L470.676 551.684C467.797 565.053 454.622 574.757 439.345 574.757H108.908C107.382 574.757 105.729 574.815 103.988 574.864C102.053 574.932 100.059 574.99 97.998 574.99L98.0077 575Z"
      fill="black" />
    <path
      d="M546.308 64.1836L539.754 55.4427C535.699 50.027 531.635 44.6113 527.58 39.1956C518.333 26.8474 500.256 25.0097 490.308 25.0097H149.593C133.043 25.0097 118.836 35.2383 115.812 49.288C115.647 50.0464 115.482 50.8145 115.326 51.534L105.476 97.3099C104.756 100.684 82.3717 204.768 82.3717 204.768C80.8256 211.944 79.2795 219.129 77.7431 226.295C76.2456 233.237 74.7482 240.189 73.2604 247.131L68.1748 270.778C66.7065 277.603 65.2382 284.419 63.7699 291.244L59.7539 309.922C58.8107 314.327 57.8675 318.731 56.9146 323.136L49.5147 357.546C48.377 362.854 48.2895 367.939 49.2327 373.569C50.4773 380.861 52.8402 387.988 56.2631 394.726C59.151 400.453 62.8364 406.248 67.8539 412.976C68.2526 413.511 68.6416 414.046 69.0402 414.6C71.8893 418.548 75.4386 423.458 81.3993 425.811C81.6132 425.898 81.8174 425.976 82.0314 426.044C70.8197 429.544 62.1849 437.974 59.8998 448.592L59.5108 450.39C57.8189 458.247 56.1269 466.093 54.4447 473.949C52.6263 482.418 50.5551 492.014 48.9701 501.485C48.8826 502.019 48.7854 502.554 48.6881 503.079C48.0853 506.434 47.3949 510.235 48.2895 514.552C49.0674 518.344 50.6038 522.263 52.9958 526.55C54.0363 528.408 55.1545 530.167 56.3311 531.772C59.6178 537.129 63.624 542.195 67.4844 547.095C69.3514 549.458 71.1114 551.694 72.8034 553.95L72.9006 554.086C76.4596 558.87 78.171 560.464 84.8124 561.145C86.6016 561.33 88.5755 561.417 90.8509 561.417C92.7957 561.417 94.7405 561.349 96.6172 561.291C98.4161 561.232 100.118 561.174 101.761 561.174H432.218C444.47 561.174 454.991 553.619 457.228 543.206L457.335 542.72C458.57 536.983 459.804 531.247 461.039 525.491L470.909 479.579C473.165 469.097 475.46 459.462 477.687 450.147C479.933 440.745 482.247 431.022 484.532 420.385L499.575 350.419C504.019 329.748 507.967 308.658 511.779 288.279C516.018 265.595 520.404 242.134 525.489 219.256L525.567 218.906C526.812 213.305 528.523 205.643 523.282 198.847C521.444 196.455 519.577 193.733 517.613 190.855C512.304 183.076 506.275 174.258 498.272 168.89C497.3 168.239 496.259 167.607 495.17 167.014L509.62 167.072C521.872 167.072 532.393 159.518 534.63 149.104C535.972 142.843 541.612 116.668 541.612 116.668L546.853 92.2733C547.135 90.951 547.524 89.5217 547.942 88.0147C549.78 81.3253 552.288 72.1565 546.318 64.1836H546.308Z"
      fill="black" />
    <path
      d="M539.871 90.9218C538.121 99.06 536.38 107.188 534.63 115.317C532.306 126.129 529.972 136.931 527.648 147.753C526.053 155.181 518.177 160.606 508.968 160.606L266.338 159.566C257.129 159.566 249.253 164.982 247.658 172.42L221.093 295.931H268.36C280.369 295.931 288.576 302.931 297.163 310.37C305.613 317.691 313.917 325.965 318.759 336.194C320.451 339.772 319.887 343.389 319.139 346.889C318.448 350.068 317.777 353.248 317.087 356.418C315.434 364.089 315.055 368.639 313.402 376.311L306.352 409.087C304.757 416.525 296.871 421.951 287.672 421.951H271.54C231.439 421.951 196.404 420.91 156.302 420.91H123.329C113.566 420.91 103.803 420.988 94.0403 421.085C90.355 421.114 86.5627 421.134 83.1301 419.782C78.2585 417.857 75.3996 413.132 72.4047 409.106C68.3109 403.623 64.4797 397.915 61.3972 391.809C58.305 385.703 56.1172 379.228 54.9697 372.48C54.1821 367.823 54.2016 363.525 55.1934 358.897C55.6893 356.583 56.195 354.269 56.6909 351.955C57.4493 348.445 58.1981 344.925 58.9565 341.405C59.9387 336.836 60.9208 332.256 61.9126 327.686C63.0892 322.212 64.2658 316.738 65.4424 311.264C66.7843 305.041 68.1262 298.819 69.4583 292.596C70.9169 285.77 72.395 278.955 73.8633 272.129C75.4191 264.856 76.9846 257.593 78.5502 250.32C80.1741 242.766 81.798 235.201 83.4316 227.646C85.0846 219.946 86.7377 212.245 88.4005 204.545C90.0535 196.854 91.7066 189.163 93.3694 181.472C94.9835 173.946 96.6074 166.421 98.2216 158.895C99.7774 151.681 101.324 144.476 102.879 137.262C104.328 130.514 105.777 123.776 107.226 117.028C108.539 110.903 109.861 104.787 111.174 98.6516C112.321 93.3039 113.478 87.9466 114.626 82.5989C115.579 78.175 116.532 73.7413 117.485 69.3173C118.204 65.9629 118.924 62.6085 119.643 59.2638C120.1 57.1442 120.557 55.0148 121.014 52.8952C121.17 52.1466 121.335 51.4076 121.491 50.6687C123.883 39.5456 135.425 31.4755 148.951 31.4755H489.666C500.479 31.4755 514.861 33.8673 521.755 43.075C527.998 51.4076 534.241 59.7402 540.483 68.0728C545.589 74.8789 541.485 83.4643 539.871 90.9218ZM517.506 202.794C510.505 193.703 503.688 180.743 494.023 174.267C486.253 169.065 474.653 166.304 465.347 166.304H289.043C275.527 166.304 263.985 174.374 261.593 185.497C259.405 195.668 257.217 205.838 255.029 216.008C253.959 220.996 252.744 225.974 251.81 230.981C250.138 239.936 253.775 247.909 256.818 256.057C260.406 265.654 264.228 275.503 269.411 284.39C271.161 287.384 274.243 292.11 277.958 292.645C288.489 294.171 320.519 294.385 320.519 294.385C322.347 294.385 344.197 294.891 351.957 294.647L325.926 415.66C324.049 424.401 314.636 430.75 303.561 430.75H93.0485C79.5226 430.75 67.9803 438.83 65.5882 449.943C63.7699 458.392 61.9515 466.842 60.1429 475.291C58.1981 484.343 56.2533 493.395 54.7266 502.535C54.114 506.171 53.2486 509.564 53.9974 513.24C54.7266 516.798 56.2533 520.221 58.0133 523.381C58.9371 525.024 59.9484 526.618 61.0763 528.135C65.6855 535.69 71.9865 542.856 77.3639 550.07C80.1935 553.872 80.4172 554.241 84.8415 554.689C90.0924 555.224 95.849 554.689 101.129 554.689H431.576C440.784 554.689 448.661 549.273 450.255 541.835C451.52 535.933 452.793 530.031 454.067 524.12C457.354 508.816 460.65 493.512 463.937 478.198C468.478 457.089 473.019 440.123 477.56 419.004C482.578 395.679 487.586 372.363 492.603 349.038C501.977 305.44 508.842 261.385 518.517 217.826C519.645 212.731 520.968 207.277 517.506 202.775V202.794Z"
      fill="black" />
    <mask id="mask0_127_113" style="mask-type:luminance" maskUnits="userSpaceOnUse" x="53" y="31"
      width="490" height="524">
      <path
        d="M539.871 90.9218C538.121 99.06 536.38 107.188 534.63 115.317C532.306 126.129 529.972 136.931 527.648 147.753C526.053 155.181 518.177 160.606 508.968 160.606L266.338 159.566C257.129 159.566 249.253 164.982 247.658 172.42L221.093 295.931H268.36C280.369 295.931 288.576 302.931 297.163 310.37C305.613 317.691 313.917 325.965 318.759 336.194C320.451 339.772 319.887 343.389 319.139 346.889C318.448 350.068 317.777 353.248 317.087 356.418C315.434 364.089 315.055 368.639 313.402 376.311L306.352 409.087C304.757 416.525 296.871 421.951 287.672 421.951H271.54C231.439 421.951 196.404 420.91 156.302 420.91H123.329C113.566 420.91 103.803 420.988 94.0403 421.085C90.355 421.114 86.5627 421.134 83.1301 419.782C78.2585 417.857 75.3996 413.132 72.4047 409.106C68.3109 403.623 64.4797 397.915 61.3972 391.809C58.305 385.703 56.1172 379.228 54.9697 372.48C54.1821 367.823 54.2016 363.525 55.1934 358.897C55.6893 356.583 56.195 354.269 56.6909 351.955C57.4493 348.445 58.1981 344.925 58.9565 341.405C59.9387 336.836 60.9208 332.256 61.9126 327.686C63.0892 322.212 64.2658 316.738 65.4424 311.264C66.7843 305.041 68.1262 298.819 69.4583 292.596C70.9169 285.77 72.395 278.955 73.8633 272.129C75.4191 264.856 76.9846 257.593 78.5502 250.32C80.1741 242.766 81.798 235.201 83.4316 227.646C85.0846 219.946 86.7377 212.245 88.4005 204.545C90.0535 196.854 91.7066 189.163 93.3694 181.472C94.9835 173.946 96.6074 166.421 98.2216 158.895C99.7774 151.681 101.324 144.476 102.879 137.262C104.328 130.514 105.777 123.776 107.226 117.028C108.539 110.903 109.861 104.787 111.174 98.6516C112.321 93.3039 113.478 87.9466 114.626 82.5989C115.579 78.175 116.532 73.7413 117.485 69.3173C118.204 65.9629 118.924 62.6085 119.643 59.2638C120.1 57.1442 120.557 55.0148 121.014 52.8952C121.17 52.1466 121.335 51.4076 121.491 50.6687C123.883 39.5456 135.425 31.4755 148.951 31.4755H489.666C500.479 31.4755 514.861 33.8673 521.755 43.075C527.998 51.4076 534.241 59.7402 540.483 68.0728C545.589 74.8789 541.485 83.4643 539.871 90.9218ZM517.506 202.794C510.505 193.703 503.688 180.743 494.023 174.267C486.253 169.065 474.653 166.304 465.347 166.304H289.043C275.527 166.304 263.985 174.374 261.593 185.497C259.405 195.668 257.217 205.838 255.029 216.008C253.959 220.996 252.744 225.974 251.81 230.981C250.138 239.936 253.775 247.909 256.818 256.057C260.406 265.654 264.228 275.503 269.411 284.39C271.161 287.384 274.243 292.11 277.958 292.645C288.489 294.171 320.519 294.385 320.519 294.385C322.347 294.385 344.197 294.891 351.957 294.647L325.926 415.66C324.049 424.401 314.636 430.75 303.561 430.75H93.0485C79.5226 430.75 67.9803 438.83 65.5882 449.943C63.7699 458.392 61.9515 466.842 60.1429 475.291C58.1981 484.343 56.2533 493.395 54.7266 502.535C54.114 506.171 53.2486 509.564 53.9974 513.24C54.7266 516.798 56.2533 520.221 58.0133 523.381C58.9371 525.024 59.9484 526.618 61.0763 528.135C65.6855 535.69 71.9865 542.856 77.3639 550.07C80.1935 553.872 80.4172 554.241 84.8415 554.689C90.0924 555.224 95.849 554.689 101.129 554.689H431.576C440.784 554.689 448.661 549.273 450.255 541.835C451.52 535.933 452.793 530.031 454.067 524.12C457.354 508.816 460.65 493.512 463.937 478.198C468.478 457.089 473.019 440.123 477.56 419.004C482.578 395.679 487.586 372.363 492.603 349.038C501.977 305.44 508.842 261.385 518.517 217.826C519.645 212.731 520.968 207.277 517.506 202.775V202.794Z"
        fill="white" />
    </mask>
    <g mask="url(#mask0_127_113)">
      <path
        d="M228.279 129.24L256.04 166.294H526.277L488.412 110.961L231.449 107.723L228.279 129.24Z"
        fill="#215CD7" />
      <path
        d="M512.236 43.9501L524.721 34.3438L548.613 70.8341L526.277 166.294L488.412 110.961L512.236 43.9501Z"
        fill="#FD8A1A" />
      <path d="M138.245 41.7138L127.889 29.4142L527.133 31.4755L505.886 49.4727L138.245 41.7138Z"
        fill="#DD0E23" />
      <path d="M260.611 169.163L219.799 115.492L188.08 291.526L219.158 301.881L260.611 169.163Z"
        fill="#E854BE" />
      <path
        d="M142.806 48.1699L127.889 29.4142L113.722 34.3438L48.2798 366.607L61.125 378.994L142.806 48.1699Z"
        fill="#B9D956" />
      <path
        d="M72.8714 376.962L46.335 369.845L79.4934 428.873L305.885 424.858L255.797 360.618L72.8714 376.962Z"
        fill="#DD0E23" />
      <path
        d="M267.865 375.514L305.885 424.858L329.183 326.481L292.943 296.709L223.251 285.887L217.213 310.301L267.865 375.514Z"
        fill="#FFC240" />
      <path
        d="M478.309 195.434L508.969 160.597L538.694 211.467L457.471 563.449L398.34 500.95L478.309 195.434Z"
        fill="#618A00" />
      <path d="M449.419 554.941L398.34 500.95L53.9976 513.249L70.2851 560.114L449.419 554.941Z"
        fill="#8E69FB" />
      <path
        d="M275.002 234.365L244.771 255.376L256.692 286.995L267.699 290.233L286.719 298.41L360.903 294.122L366.728 266.286L275.002 234.365Z"
        fill="#0FA4B7" />
      <path d="M80.8547 512.287L37 523.429L57.7119 421.951L94.2348 451.392L80.8547 512.287Z"
        fill="#7A2E20" />
      <path d="M80.8548 450.546L57.7119 421.951L305.885 424.858L339.539 436.506L80.8548 450.546Z"
        fill="#F05421" />
      <path d="M328.541 448.796L305.885 424.858L351.947 294.657L373.738 294.142L328.541 448.796Z"
        fill="#FD8A1A" />
      <path
        d="M275.002 234.365L244.771 255.376L260.611 169.163L275.002 166.294L298.689 162.464L512.294 166.294L481.294 188.628L275.002 234.365Z"
        fill="#8E69FB" />
    </g>
    <path
      d="M516.213 59.6819L506.178 106.352C503.961 116.659 493.148 124.145 480.458 124.145H244.654C232.742 124.145 222.6 131.078 220.548 140.635L191.552 275.464C190.472 280.471 191.766 285.576 195.198 289.815C199.749 295.455 207.402 298.819 215.667 298.819H269.207C277.958 298.819 286.087 302.416 290.949 308.425C294.693 313.063 296.103 318.644 294.917 324.157L284.881 370.827C282.664 381.133 271.851 388.62 259.162 388.62H82.8677C74.1162 388.62 65.9871 385.032 61.1251 379.014C57.3814 374.376 55.9715 368.795 57.1578 363.282L124.058 52.1271C126.275 41.8208 137.088 34.3341 149.778 34.3341H490.493C499.245 34.3341 507.374 37.9219 512.236 43.9404C515.979 48.5782 517.389 54.1592 516.213 59.6722V59.6819Z"
      fill="#EBE9E3" />
    <path
      d="M259.162 389.573H82.8677C73.8245 389.573 65.4133 385.849 60.3666 379.607C56.4284 374.736 54.9504 368.863 56.2048 363.068L123.105 51.9229C125.419 41.1693 136.631 33.3715 149.768 33.3715H490.493C499.536 33.3715 507.947 37.0954 512.994 43.3376C516.932 48.2088 518.41 54.0814 517.166 59.8861L507.131 106.556C504.816 117.31 493.605 125.118 480.468 125.118H244.654C233.189 125.118 223.456 131.729 221.491 140.84L192.495 275.668C191.484 280.384 192.709 285.197 195.947 289.203C200.313 294.609 207.684 297.837 215.657 297.837H269.197C278.24 297.837 286.651 301.561 291.698 307.803C295.636 312.674 297.114 318.547 295.869 324.342L285.834 371.012C283.52 381.765 272.308 389.563 259.171 389.563L259.162 389.573ZM149.768 35.3064C137.535 35.3064 127.121 42.4625 125.001 52.3313L58.1009 363.467C56.9827 368.678 58.3246 373.977 61.8738 378.382C66.551 384.177 74.3982 387.628 82.8677 387.628H259.162C271.394 387.628 281.809 380.472 283.929 370.604L293.964 323.933C295.082 318.722 293.74 313.423 290.191 309.018C285.514 303.223 277.666 299.772 269.197 299.772H215.657C207.1 299.772 199.175 296.271 194.44 290.408C190.822 285.936 189.461 280.549 190.599 275.24L219.595 140.412C221.744 130.417 232.285 123.154 244.654 123.154H480.458C492.691 123.154 503.105 115.997 505.225 106.129L515.26 59.4583C516.378 54.2467 515.036 48.9477 511.477 44.5432C506.8 38.7483 498.953 35.2966 490.493 35.2966H149.768V35.3064Z"
      fill="black" />
    <path
      d="M491.883 194.501L424.973 505.636C422.756 515.943 411.943 523.429 399.254 523.429H83.8399C75.0884 523.429 66.9592 519.832 62.0973 513.823C58.3536 509.185 56.9436 503.604 58.1299 498.091L68.165 451.421C70.382 441.115 81.195 433.628 93.8847 433.628H304.397C316.309 433.628 326.451 426.695 328.503 417.138L357.499 282.309C358.579 277.292 357.285 272.197 353.853 267.958C349.302 262.319 341.649 258.954 333.384 258.954H279.844C271.093 258.954 262.964 255.367 258.102 249.348C254.358 244.71 252.948 239.129 254.134 233.616L264.169 186.946C266.386 176.64 277.199 169.153 289.889 169.153H466.183C474.935 169.153 483.064 172.741 487.926 178.759C491.67 183.397 493.08 188.978 491.893 194.491L491.883 194.501Z"
      fill="#EBE9E3" />
    <path
      d="M399.263 524.392H83.8399C74.7966 524.392 66.3855 520.668 61.3388 514.426C57.4006 509.555 55.9226 503.682 57.1672 497.877L67.2023 451.207C69.5166 440.453 80.7282 432.656 93.8652 432.656H304.378C315.842 432.656 325.576 426.044 327.54 416.933L356.537 282.105C357.548 277.389 356.323 272.576 353.085 268.57C348.719 263.164 341.348 259.936 333.374 259.936H279.835C270.791 259.936 262.38 256.213 257.333 249.97C253.395 245.099 251.917 239.227 253.172 233.422L263.207 186.752C265.521 175.998 276.733 168.19 289.87 168.19H466.164C475.207 168.19 483.618 171.914 488.665 178.156C492.603 183.028 494.081 188.9 492.836 194.705L425.926 505.84C423.612 516.594 412.4 524.402 399.263 524.402V524.392ZM93.8749 434.6C81.6423 434.6 71.228 441.756 69.1082 451.625L59.0731 498.295C57.9549 503.507 59.2968 508.806 62.846 513.21C67.5232 519.005 75.3704 522.457 83.8301 522.457H399.263C411.496 522.457 421.91 515.301 424.03 505.432L490.94 194.297C492.058 189.085 490.717 183.786 487.167 179.382C482.49 173.587 474.643 170.135 466.183 170.135H289.889C277.656 170.135 267.242 177.291 265.122 187.16L255.087 233.83C253.969 239.042 255.301 244.341 258.86 248.745C263.537 254.54 271.385 257.992 279.844 257.992H333.384C341.941 257.992 349.866 261.492 354.602 267.355C358.219 271.828 359.58 277.214 358.443 282.523L329.446 417.352C327.297 427.347 316.756 434.61 304.387 434.61H93.8749V434.6Z"
      fill="black" />
    <path d="M416.024 518.206L414.611 519.542L448.718 555.593L450.131 554.257L416.024 518.206Z"
      fill="black" />
    <path d="M498.546 175.235L489.638 181.448L490.75 183.043L499.659 176.829L498.546 175.235Z"
      fill="black" />
    <path d="M495.421 120.109L493.831 121.228L520.938 159.709L522.528 158.59L495.421 120.109Z"
      fill="black" />
    <path d="M519.169 36.7606L511.604 43.2036L512.864 44.684L520.43 38.2411L519.169 36.7606Z"
      fill="black" />
    <path d="M132.792 33.7144L131.304 34.9667L134.41 38.6561L135.898 37.4038L132.792 33.7144Z"
      fill="black" />
    <path d="M57.7216 371.926H52.4609V373.87H57.7216V371.926Z" fill="black" />
    <path d="M71.419 436.322L69.7729 437.358L72.7663 442.114L74.4123 441.079L71.419 436.322Z"
      fill="black" />
    <path d="M64.3511 515.475L53.4854 518.239L53.9647 520.123L64.8304 517.36L64.3511 515.475Z"
      fill="black" />
    <path d="M275.779 383.621L274.23 384.797L305.108 425.459L306.657 424.283L275.779 383.621Z"
      fill="black" />
    <path
      d="M345.092 299.83L347.26 294.356L349.069 295.075L348.884 295.532L354.68 292.353L355.613 294.054L345.092 299.83Z"
      fill="black" />
    <path d="M256.007 246.389L251.291 249.638L252.394 251.239L257.11 247.991L256.007 246.389Z"
      fill="black" />
    <path d="M223.728 284.431L219.132 298.498L220.981 299.102L225.576 285.035L223.728 284.431Z"
      fill="black" />
    <path d="M231.392 127.154L229.813 128.29L255.775 164.388L257.354 163.253L231.392 127.154Z"
      fill="black" />
  </g>
  <defs>
    <clipPath id="clip0_127_113">
      <rect width="526.636" height="550" fill="white" transform="translate(37 25)" />
    </clipPath>
  </defs>
</svg>
  