<svg id="Layer_1" xmlns="http://www.w3.org/2000/svg" viewBox="0 0 232.64 249.14">
  <defs>
    <style>.cls-1{fill:#f687a8;stroke:#000;stroke-miterlimit:10;stroke-width:2px;}</style>
  </defs>
  <path class="cls-1"
    d="m228.16,11.74c-1.7-1.2-3.68-1.82-5.71-2.23-1.25-2.21-3.18-4-5.94-5.11-3.16-1.27-6.64-1.51-9.99-.99-3.95.61-7.57,2.64-11.52,3.13-3.51.44-6.85-.96-10.12-2.02-3.52-1.14-7.04-1.65-10.72-1.05-8.65,1.42-16.27,5.92-24.92,1.79-3.63-1.73-7.05-3.5-11.08-4.05-4.58-.62-9.18.08-13.55,1.52-4.14,1.36-8,3.2-12.47,2.68-4.34-.51-8.22-2.16-12.69-1.9-3.61.22-7.09,1.16-10.62,1.86-4.74.94-8.44.43-12.95-1.13-3.96-1.37-7.89-2.6-12.13-1.94-4.38.69-7.86,3-12.41,2.91-7.31-.14-14.25,2.84-15.2,10.88-.21,1.77-.11,3.58.23,5.37-2.58,3.02-5.25,5.97-6.53,9.86-1.72,5.22-1.07,11-.83,16.38.21,4.72.45,8.55-1.96,12.77-2.82,4.93-6.09,9.5-6.92,15.27-.73,5.1,1.6,8.81,2.5,13.61.06.31.09.62.1.92l-.6,2.79c-1.42,3.1-5.04,5.51-7.04,8.13-7.33,9.63-4.95,20.68-6.23,31.8-.62,5.42-5.55,9.3-6.33,14.86-.6,4.3,1.49,7.38,3.97,10.38-2.87,3.44-6.31,7.15-5.31,11.78,1.51,7,11.16,7.48,16.82,7.42,1.44-.02,2.87-.05,4.3-.07,4.66,2.61,9.51,3.98,14.86,4.02,6.32.05,12.25-.17,18.56.51,5.29.57,10.72,1.31,16.04,1.52,5.29.21,9.55-1.49,14.32-3.54,2.45-1.05,4.91-1.77,7.62-1.51,2.31.22,4.52,1.12,6.85,1.19,4.53.15,10.23-2.07,13.47-5.25,5.74-5.65.92-13.34,4.86-19.52,2.9-4.54,6.06-10.29,1.76-15.17-1.89-2.14-4.37-2.77-6.99-2.99-.62-.34-1.28-.64-1.98-.89-1.86-3.81-7.12-4.66-12.25-3.65-3.14.62-6.17,1.7-9.26,2.53-.95.26-1.91.12-1.88.32h-.04c-1.36-1.19-1.9-3.27-3.64-4.4-2.15-1.39-4.44-1.69-6.94-1.5-1.19.09-5.22,1.21-6.01-.21-1.04-1.88,2.68-7.24,3.46-8.94,1.74-3.83,2.46-7.44,1.76-11.54,1.21-1.29,2.31-2.67,3.19-4.22,2.72-4.76.99-8.2-1.1-11.98.73-1.38,1.48-2.76,2.03-4.2,1.79-4.74,1.15-8.86-.83-13.32l1.6-7.43c1.11-.75,2.26-1.47,3.22-2.42,1.49-1.48,2.51-3.35,3.17-5.34.23-.68.42-1.38.53-2.1.02-.15.12-.42.16-.64,3.05,0,7.36,1.03,10.74-.35,2.06-.84,3.82-2.29,5.45-3.78.6-.55,1.1-1.03,1.57-1.4h4.21c4.48,2.47,7.77,5.44,13.26,4.88,4.47-.45,7.97-3.14,12.12-4.51,4.83-1.59,8.03,2.82,12.15,4.6,4.96,2.14,9.91,1.23,14.65-.91,6.11-2.75,11.58-5.21,18.16-2.42,4.7,2,9.67,3.92,14.82,2.21,2.42-.8,4.38-3.03,6.56-3.85h3.11c.19.08.38.16.58.26,3.55,1.95,6.92,3.59,10.97,1.69,3.82-1.8,5.81-5.9,6.74-9.83.43-1.8.72-3.74.75-5.59.02-1.03-.05-2.05-.25-3.06-.15-.75-1.02-2.25-.92-2.97.28-1.98,3.88-3.83,5.08-5.33,1.28-1.6,2.26-3.58,2.76-5.56.89-3.5-.2-6.99-3.18-9.09Z" />
  <path class="cls-1"
    d="m217.66,74.53c-1.01-3.7-4.29-5.81-7.9-6.37-2.4-.37-4.7-.16-6.96.73-1.99.78-3.93,2.57-6.18,2.25-2.53-.36-4.81-2.55-7.24-3.38-2.22-.76-4.58-.85-6.86-.32-3.78.88-8.1,5.17-12.07,4.46-2.32-.41-4.24-2.4-6.56-3-2.45-.64-5.06-.45-7.35.62-1.42.67-2.94,2.51-4.48,3.86h-6.23c-3.37-2.18-5.92-4.82-10.81-3.42-2.18.63-3.68,1.87-4.8,3.42h-6.01c-1.22-.75-2.5-1.38-3.93-1.77-3.62-.98-6.17.22-7.85,2.43-3.19-1.64-6.83-1.69-9.01,2.29-.58,1.07-.89,2.15-.99,3.23-.57.6-1.07,1.26-1.48,1.99-1.33,2.37-1.51,5.45-.27,7.9.48.94,1.15,1.76,1.87,2.53.03.03.06.07.1.11l-.02.1c-.37.17-.73.36-1.07.56-1.16.67-2.22,1.44-3.07,2.47-1.58,1.9-2.93,4.68-2.36,7.19.81,3.56,2.67,5.91,5.15,7.46.22.35.46.7.73,1.02-.48,1.14-.62,2.41-.16,3.89,1.15,3.73,4.64,5.04,8.17,5.48,3.44.43,6.36-.08,9.12-2.29.46-.37,2.14-1.52,2.93-2.32.27.7.63,1.35,1.07,1.96,3.91,5.53,9.52,4.76,14.09.94,1.59-1.33,2.69-2.51,4.44-.78,1.77,1.75,2.84,4.57,3.7,7.2-2.23,1.72-3.72,4.05-4.03,7.29-.38,3.95,1.03,7.68,1.63,11.52.7,4.46-2.43,5.99-4.42,9.61-2.64,4.79-1.03,9.84.66,14.61-2.65,2.93-3.53,7.3-3.22,11.73-.53.34-1.05.7-1.49,1.11-1.71,1.62-3.07,3.68-3.68,5.97-.72,2.72.1,5.67-.69,8.33-1.12,3.76-7.75,1.59-10.6,1.01-2.56-.52-4.85-.47-7,.91-4.71-1.87-9.67-3.08-14.52-.95-1.33.58-2.6,1.97-3.93,2.89h-4.83c-2.51-1.36-4.62-3.49-7.58-4.16-3.22-.73-6.45-.1-9.45,1.11-3.5,1.41-5.14,1.62-8.77.09-3.32-1.4-6.44-2.65-10.11-1.95-2.68.51-4.83,2.06-7.09,3.44-2.88-1.37-6.22-2.23-9.09-2.03-1.89.14-3.65.94-5.01,2.27-.24.24-.46.49-.68.76-.05,0-.09,0-.13-.01-3.18-.1-5.9-2.43-9.24-2.38-3.16.05-6.37,1.77-8.12,4.41-.03.04-.05.08-.07.12-.88.84-1.57,1.85-2.06,2.98-3.14,1.69-5.67,4.88-6.25,8.3-.56,3.27.74,5.2,2.24,7.17-3.26,1.76-5.85,4.49-5.69,8.58.11,2.69,1.57,5.19,3.94,6.46.55.3,1.11.49,1.69.64.07.13.15.26.22.39-1.45,1.83-2.91,3.66-3.02,6.18-.2,4.63,4.18,7.03,8.31,6.74,4.56-.33,8.15-3.37,12.5-4.26,5.04-1.03,8.8,4.28,13.87,4.29,5.54.01,9.53-5.15,15.25-5.3,6.08-.16,11.63,2.72,17.79,1.62,3.36-.6,7.45-3.29,11.1-3.58h1.3c.55.06,1.08.18,1.6.39,5.26,2.19,8.62,6.14,14.87,5.06,3.39-.59,6.37-2.42,9.69-3.23,2.9-.7,5.1.42,7.88,1.09,2.87.7,5.91,1.11,8.8.3,2.52-.71,4.64-2.29,6.87-3.61h.11c1.44.84,2.83,1.79,4.35,2.47,2.91,1.31,6.12,1.77,9.3,1.57,2.26-.15,4.89-.4,6.79-1.74.17-.12.32-.24.48-.37.23.11.48.24.73.39,1.2.75,2.26,1.71,3.45,2.48,2.35,1.5,4.88,2.22,7.67,2.02,2.49-.18,4.53-.93,6.47-2.47.75-.6,1.58-1.24,2.28-1.89.38-.35.79-.75,1.07-1.18.08-.12.15-.21.21-.3,2.46-.14,4.45-.09,6.05-2.55,1.07-1.64,1.29-3.81,1.48-5.7.4-4.02.7-9.06-.44-13.01-.33-1.15-.68-1.4-.33-2.52.39-1.22,1.62-2.28,2.37-3.29,1.75-2.38,2.91-5.06,3.07-8.05.13-2.43-.48-4.6-1.27-6.87-.21-.61-.43-1.22-.63-1.83l1.09-5.07c.3-.43.59-.84.89-1.18,1.11-1.25,2.24-2.49,3.21-3.86,1.79-2.51,3.34-5.32,3.65-8.43.29-2.91-.78-5.77-.49-8.66.28-2.85,2.68-5.37,3.93-7.86.41-.81.54-1.61.47-2.34.06-.28.1-.57.11-.89.1-4.08.82-8.37-.63-12.3-.25-.69-.57-1.34-.93-1.98l1.2-5.59c.23-.31.47-.61.7-.87,1.28-1.43,2.55-2.86,3.7-4.4,2.41-3.24,4.02-6.95,4-11.05-.02-4.34-2.31-7.68.7-11.53,2.28-2.92,4.75-5.09,5.64-8.86,1.1-4.71-.25-9.65-3-13.59,3.87-4.01,6.86-9.78,5.42-15.03Z" />
</svg>