<svg id="Layer_1" xmlns="http://www.w3.org/2000/svg" viewBox="0 0 215.94 233.18">
  <defs>
    <style>.cls-1{fill:#f05421;stroke:#000;stroke-miterlimit:10;}</style>
  </defs>
  <path class="cls-1"
    d="m161.8,230.97c-1.3.05-2.6.06-3.9.15-4.5.31-9.02.13-13.51.05-5.14-.1-10.26.3-15.39.32-5.96.02-11.92-.34-17.88.02-4.17.25-8.37.13-12.54.42-6.14.44-12.3.3-18.43.24-5.37-.05-10.71.42-16.06.33-4.4-.07-8.81.29-13.19.09-6.1-.27-12.18.21-18.27.03-3.99-.12-7.96-.63-11.94-.85-2.07-.12-4.14.16-6.22-.12-3.81-.53-7.64-.86-11.19-2.52-1.22-.57-2.04-1.51-2.58-2.71-.44-.99-.12-1.85.89-2.08,1.07-.24,2.13-.54,3.27-.55,5.87-.05,11.72-.87,17.61-.62,3.1.13,6.2.24,9.31.59,2.92.33,5.92.12,8.88-.08,5.47-.37,10.94-.06,16.39,0,5.56.07,11.12-.02,16.67.04,5.19.06,10.4-.12,15.6.34,2.24.2,4.52-.08,6.79-.13,4.82-.11,9.62.24,14.43.39,3.65.11,7.31.12,10.96-.02,4.56-.17,9.1.09,13.65.2,5.08.12,10.16.47,15.26.46,3.97,0,7.95.19,11.92.29,1.74.04,3.39-.41,5.09-.28.77.06,1.35-.19,1.29-1.13-.3-4.78,1.4-9.18,2.55-13.69,2.7-10.57,5.87-21.01,8.06-31.72,1.41-6.86,3.09-13.67,4.65-20.51.93-4.07,2.02-8.11,2.76-12.22,1.36-7.48,3.17-14.85,4.52-22.33,1.26-7.01,2.8-13.99,4.99-20.78,2.11-6.57,3.6-13.3,5.4-19.95,1.32-4.87,2.73-9.71,4.12-14.56.27-.94.74-1.84.9-2.8.26-1.61.96-.89,1.48-.3,1.28,1.43,1.07,3.19.76,4.87-1.28,6.83-2.58,13.66-4.23,20.42-1.2,4.91-2.51,9.8-3.63,14.74-1.94,8.55-3.95,17.08-5.54,25.72-1.31,7.11-2.98,14.15-4.39,21.25-.98,4.96-1.82,9.95-2.67,14.93-1.34,7.84-3.28,15.54-5.07,23.28-1.37,5.96-2.78,11.92-3.87,17.92-1.13,6.21-2.78,12.26-4.25,18.38-.62,2.57-2.8,4.09-5.46,4.15-2.66.05-5.32.19-7.98.28,0,.01,0,.03,0,.04Z" />
  <path class="cls-1"
    d="m190.81,90.53c.63-.02.98-.07,1.31-.04.85.08,1.82-.43,2.54.22.4.36-.85,3.24-1.58,3.67-4.79,2.75-9.39,5.81-14.51,7.98-3.52,1.49-7.05,2.98-10.65,4.24-6.02,2.12-12.01,4.29-17.75,7.11-5.3,2.6-9.8,6.21-13.46,10.78-3,3.75-4.77,8.1-5.52,12.91-.83,5.27-.89,10.54-.81,15.84.05,2.98.75,5.79,1.7,8.57,1.74,5.12,3.82,10.08,6.65,14.7.99,1.62,2.26,3.05,3.6,4.36,5.07,4.98,10.41,9.62,16.44,13.48,3.1,1.99,5.65,4.82,9.38,5.86.65.18.52,1.09.28,1.61-1.64,3.54-2.07,7.38-2.85,11.13-.18.87-.45,1.06-1.34.51-4.37-2.73-8.06-6.33-12.16-9.4-4.71-3.52-8.96-7.63-12.95-11.89-2.81-3-5.59-6.25-7.35-10.15-.67-1.48-1.89-2.71-2.6-4.18-1.43-2.98-2.98-5.93-3.62-9.22-.02-.11.03-.27-.02-.33-2.32-2.7-.84-5.57-.27-8.32.68-3.29.66-6.65,1.26-9.94,1.19-6.55,2.07-13.17,3.48-19.68.94-4.33,2.62-8.52,4.58-12.51,1.14-2.33,3.35-3.85,5.64-5.06,3.07-1.62,6.17-3.2,9.2-4.86,3.65-2,7.08-4.48,10.2-7.34,1.74-1.59,3.19-3.42,4.47-5.33,2.55-3.81,2.28-8.74-1.33-12.13-2.22-2.08-4.68-3.88-6.87-5.99-1.02-.98-2.46-1.24-3.65-1.95-1.11-.67-1.07-1.33-.73-2.35.66-2,2.35-3.08,3.8-4.34,2.82-2.44,5.99-4.45,9.21-6.25,2.3-1.28,5.16-1.17,7.83-.58.55.12.51.47-.1,1.25-1.09,1.41-2.23,2.79-3.26,4.24-2.19,3.08-3.74,6.3-3.37,10.33.29,3.17,1.76,5.22,4.16,7.15,4.44,3.58,9.66,4.65,15.05,5.46,2.09.32,4.17.68,6,.45Z" />
  <path class="cls-1"
    d="m38.77,39.36c3.14,0,6.1-1.09,9.2-1.42,5.31-.56,10.32-2.52,15.46-3.85,8.33-2.15,15.45-6.3,21.81-11.99,4.72-4.22,8.26-9.39,12.04-14.38,1.51-2,3.13-3.9,4.43-6.05.58-.96,1.69-.91,2.56-.69.96.24,1.89.21,2.83.16,5.28-.25,10.55.4,15.83.12.87-.05,1.73.33,2.65.24.8-.08,1.08.83.79,1.19-1.61,1.95-2.63,4.28-4.29,6.21-3.11,3.63-6.93,6.37-11.01,8.71-3.52,2.02-6.94,4.26-10.74,5.74-1.83.71-3.73,1.31-5.66,1.71-4.12.85-7.56,2.93-10.6,5.69-2.5,2.26-5.05,4.51-6.76,7.51-.68,1.19-1.06,2.38-.98,3.76.24,3.86-1.12,7.49-1.77,11.22-.19,1.08-.48,2.15-.44,3.28.04.96-.2,1.45-1.41,1.09-5.24-1.54-10.67-2.28-15.93-3.82-2-.59-4.24-.81-6.44-.61-4.64.41-9.24-.11-13.82-.82-.06,0-.11,0-.17,0-.91-.15-2.1.61-2.67-.37-.41-.71.41-1.6.53-2.48.33-2.44.87-4.85,1.33-7.27q.54-2.8,3.21-2.88Z" />
  <path class="cls-1"
    d="m198.15,50.39c-5.67.01-11.35.16-17.02,0-3.81-.11-7.62-.08-11.41-.3-3.92-.22-7.83.08-11.75-.1-12.67-.58-25.31.46-37.95,1.12-8.29.43-16.58.63-24.86,1.14-.96.06-1.84-.33-2.82-.27-4.33.23-5.59,1.41-5.93,5.71-.36,4.56-1.31,9.05-1.8,13.59-.44,4.07-1.16,8.11-1.36,12.21-.2,4-.35,8.01-.55,12.01-.23,4.63-.28,9.26-.58,13.88-.08,1.28-.06,2.62-.37,3.93-.25,1.07-.49,1.55-1.6,1.83-1.52.37-3.08.24-4.59.67-1.07.3-1.53-.43-1.7-1.52-.3-1.94.37-3.77.63-5.61.2-1.43.33-2.95.28-4.27-.14-3.66.37-7.27.39-10.9.02-3.43.81-6.78,1.1-10.19.23-2.68.62-5.34.95-8.01.61-4.96,1.43-9.9,1.79-14.87.29-4.01.79-7.95,1.69-11.85.53-2.29,1.2-2.71,3.6-3.05,7.11-1,14.29-.91,21.44-1.18,4.57-.17,9.15-.82,13.71-.75,3.9.06,7.83-.34,11.73.33.7.12,1.47-.2,2.22-.23,5.71-.23,11.43-.64,17.14-.57,4.82.05,9.66-.28,14.47.13,3.53.3,7.06-.28,10.55.27,3.97.63,7.98.48,11.96.87.73.07,1.48.03,2.2-.07,3.66-.49,7.23.41,10.83.73,2.21.2,4.38,0,6.55-.04,1.44-.03,1.47.45.99,1.55-.84,1.95-2.83,2.25-4.43,2.91-1.7.7-3.62,1.01-5.52.91Z" />
  <path class="cls-1"
    d="m61.63,218.95c-1.19.04-2.38,0-3.56.16-1.16.15-1.19-.32-1-1.23.89-4.24,1.15-8.52.43-12.81-.95-5.74-4.22-9.68-9.5-12-2.09-.92-4.17-1.87-6.3-2.67-5.42-2.04-10.98-2.25-16.69-1.37-2.68.41-5.35.77-7.99,1.37-1.83.42-3.51,1.21-5.18,1.95-1.71.75-3.57,1.01-5.22,1.88-.76.4-.93-.25-.82-.81.94-4.77,1.91-9.53,2.87-14.29.03-.16-.02-.34.03-.49.41-1.11.08-3.12.98-3.25,1.44-.21,3.05-.25,4.62-.03,2.03.29,4.12.39,6.17.28,7.19-.41,14.38.53,21.58-.02,1.39-.11,2.88.17,4.33.11,1.53-.06,2.65.93,3.61,1.78,3.68,3.27,7.31,6.58,10.73,10.13,2.5,2.6,3.51,5.84,4.29,9.14,1.07,4.54,2.06,9.13,1.89,13.85-.09,2.5-.3,5-.38,7.49-.02.65-.3.73-.82.74-1.36.03-2.71.09-4.06.14,0-.02,0-.05,0-.07Z" />
  <path class="cls-1"
    d="m160.2,220.16c-4.29.16-8.08.47-11.87.39-3.59-.08-7.17-.58-10.76-.88-.56-.05-1.13-.02-1.7.02-5.33.32-10.66-.26-16-.18-4.84.07-9.7-.45-14.57-.42-6.06.04-11.77-1.7-17.4-3.81-2.9-1.08-2.23-5.07-.53-7.05,3.73-4.34,8.01-8,12.59-11.44,4.37-3.29,7.09-7.82,7.01-13.52-.03-1.78-.61-3.56-1.01-5.33-.23-1.01-.24-1.22,1.05-1.15,3.6.21,7.18.54,10.75,1.04,1.61.23,3.03.39,3.34,2.42.12.78.63,1.52,1.07,2.21,3.1,4.92,6.35,9.73,9.98,14.29,1.79,2.25,4.19,3.84,6.09,5.94,4.56,5.06,10.21,8.87,15.37,13.24,1.87,1.58,3.98,2.88,6.58,4.21Zm-30.84-2.6c.91-.03,1.65-.05,2.38-.09,2.22-.12,3.77-1.57,4.3-3.71.39-1.58.18-3.09-.2-4.59-.58-2.29-1.45-4.64-3.46-5.91-3.48-2.18-6.21-4.96-8.54-8.29-.91-1.29-1.43-2.57-1.56-4.07-.14-1.6-1.46-2.87-3.09-2.88-1.19,0-2.38.12-3.56.11-1.04-.01-1.77.39-2.46,1.16-2.2,2.44-4.4,4.87-6.73,7.18-2.73,2.72-4.52,5.83-5,9.7-.25,2,.61,3.99,2.19,5.24,1.92,1.51,4.31,1.57,6.44,2.4,3.44,1.34,7.21,1.19,10.73,2.32,2.81.9,5.69,1.82,8.56,1.42Z" />
  <path class="cls-1"
    d="m136.96,147.18c-1.03-3.71-.3-7.88,1.74-11.74,3.22-6.11,8.13-10.61,14.15-13.9,6.18-3.38,12.86-5.53,19.45-7.9,5.59-2,11.1-4.18,16.36-6.97.4-.21.84-.77,1.35-.39.57.42-.1.92-.17,1.35-.37,2.15-.93,4.26-1.39,6.39-.28,1.28-.77,2.33-1.97,3.08-5.7,3.55-11.47,6.7-18.24,8.02-6.6,1.29-12.79,3.96-17.57,9.02-1.74,1.85-2.33,4.35-3.26,6.65-2.03,5.01-3.16,10.25-2.54,15.6.64,5.56,2.58,10.7,6.34,15.13,2.88,3.4,6.64,5.43,10.22,7.81,2.16,1.44,4.32,2.89,6.62,4.07,1,.51,2.18.71,3.29.96,1.3.29,1.58,1.11,1.3,2.26-.36,1.48-.71,2.97-1.16,4.43-.35,1.15-.99,1.69-2.21.81-4-2.87-8.03-5.7-12.05-8.54-4.13-2.92-7.88-6.3-10.84-10.4-3.73-5.18-5.92-11.11-7.73-17.19-.77-2.59-1.55-5.18-1.71-8.54Z" />
  <path class="cls-1"
    d="m50.34,160.28c-2.98.46-5.95-.2-8.93-.03-1.34.08-1.92-1.21-2.85-1.87-3.14-2.26-6.29-4.48-9.5-6.65-3.72-2.52-7.07-5.53-10.34-8.6-.37-.35-.73-.75-1.18-.95-1.15-.52-1.33-1.53-1.16-2.52.36-2.09.98-4.14,1.35-6.24.2-1.11.64-1.07,1.28-.49,1.79,1.64,3.64,3.23,5.28,5.02,1.22,1.33,2.43,2.64,4.05,3.41,2.63,1.25,4.73,3.25,7.1,4.86,3.5,2.36,6.94,4.82,10.9,6.4,2.59,1.03,5.19.87,7.4-.65,4.78-3.28,9.49-6.7,14.05-10.28,5.3-4.15,10.39-8.57,15.62-12.82,2.06-1.68,4.7-2.3,6.97-3.63,3.04-1.78,6.1-3.5,8.74-5.88.63-.57,1.49-.67,2.33-.72,2.42-.13,4.83-.14,7.24.02.45.03.84.07.71.62-.28,1.15-.23,2.37-1.21,3.32-3.31,3.2-6.96,5.95-10.8,8.47-5.09,3.35-10.46,6.18-15.87,8.96-6.8,3.5-12.89,7.99-17.71,13.91-2.16,2.66-4.81,4.29-7.68,5.76-1.81.93-3.88.26-5.81.56Z" />
  <path class="cls-1"
    d="m25.77,97.42c-.76-4.11.64-7.88,1.36-11.72.12-.63.15-1.3.33-1.95.67-2.39,1.5-3.07,3.97-3.36,3.83-.45,7.53.26,11.21,1.1,1.77.4,3.59.27,5.32.27,5.83-.01,11.43.89,16.85,2.97,1.56.6,3.21.9,4.82,1.01,1.32.09,1.3.64,1.19,1.55-.34,2.62-.93,5.24-.95,7.87-.03,3.03-.47,6.07-.06,9.09.14,1.05-.29,1.8-1.11,2.25-3.58,1.93-6.71,4.54-10.1,6.75-1.69,1.1-3.33,2.28-5,3.42-2.62,1.78-5.41,1.68-8.29.74-2.84-.93-5.76-1.71-8.44-3.05-3.48-1.74-5.55-4.98-7.95-7.88-2.24-2.71-3.69-5.55-3.13-9.05Zm23.55,9.9c1.93-.13,3.37-.09,4.79-.53,5.82-1.8,10.22-5.16,8.54-12.43-.5-2.15-.92-4.13-3.06-5.53-3.72-2.45-7.86-2.43-11.94-2.48-3.07-.03-6.04.73-8.79,2.46-3.87,2.43-5.71,5.87-4.96,10.19.57,3.3,2.32,5.66,5.46,6.89,3.36,1.31,6.89,1.46,9.96,1.43Z" />
  <path class="cls-1"
    d="m69.19,115.87c.03.72.04,1.15.06,1.57.12,2.5.52,2.93,3.02,2.93,2.9,0,5.78-.28,8.62-.95.6-.14,1.35-.34,1.92.3-5.89,2.92-10.16,7.93-15.31,11.8-4.98,3.74-9.92,7.55-14.91,11.28-.46.34-.82.75-1.24,1.11-1.03.9-2.18,1.08-3.36.42-4.47-2.5-8.88-5.11-12.62-8.69-.16-.16-.31-.4-.5-.45-3.86-1.04-5.79-4.46-8.55-6.85-1.58-1.37-3.36-2.53-5.12-3.67-1.26-.82-1.59-1.71-1.21-3.21.74-2.92,1.22-5.9,1.82-8.86.06-.3-.21-.76.23-.87.44-.11.61.31.86.62,3.22,4.02,6.59,7.94,11.52,9.88,3.27,1.3,6.44,3.02,9.96,3.56,5.68.87,11,0,15.74-3.57,2.87-2.16,5.89-4.14,9.08-6.37Z" />
  <path class="cls-1"
    d="m126.09,59.68c-2.5,3.59-3.67,7.4-4.09,11.36-.39,3.71,1.33,6.9,3.62,9.72,1.87,2.3,4.05,4.29,6.62,5.84,2.88,1.74,2.97,2.55.99,5.23-2.35,3.18-5.82,5.1-8.61,7.78-.23.22-.74.14-1.12.19-3.14.38-6.29-.17-9.43.03-.91.06-1.01-.36-1-1.09.02-1.72.44-3.39.61-5.09.28-2.89.43-5.87-.23-8.56-.71-2.92-1.87-5.88-3.6-8.46-1.28-1.91-2.36-3.96-3.93-5.67-1.73-1.88-4.16-2.67-6.28-3.93-.75-.45-1.55-.85-2.26-1.36-.61-.44-.9-1.11-.88-1.89.09-2.81,2.99-5.16,5.74-4.62,1.64.33,3.31.55,4.96.42,4.17-.33,8.33-.03,12.49-.02,2.03,0,4.11,0,6.39.11Z" />
  <path class="cls-1"
    d="m179.92,38.87c-1.97-.62-4.62.23-7.2-.35-.43-.09-.86-.21-.93-.59-.47-2.61-2.19-4.66-3.12-7.07-.68-1.77-1.16-3.57-1.45-5.39-.41-2.55,1.49-4.05,3.11-5.55.94-.87,2-1.05,3.42-.92,7.39.69,14.45-.15,20.75-4.7,2.98-2.15,5.76-4.48,7.96-7.35,2.33-3.04,5.23-3.56,8.57-2.74,1.16.29,2.3.04,3.46.36.87.23,1.04.58.92,1.18-.34,1.77-.81,3.51-1.17,5.27-.1.51-.41.82-.77,1.07-3.88,2.67-7.78,5.31-11.65,7.99-3.14,2.18-5.8,4.86-8.07,7.93-.17.23-.32.47-.53.66-2.36,2.27-4.39,4.82-6.48,7.32-1.66,1.98-3.67,2.95-6.82,2.87Z" />
  <path class="cls-1"
    d="m79.37,218.83c-1.23.07-2.46.13-3.69.2-.98.05-.98-.59-1.07-1.32-.38-3.37.43-6.7.34-10.05-.14-4.68-1.49-9.16-2.29-13.73-.95-5.47-3.87-9.87-7.5-13.88-1.3-1.44-3.05-2.35-4.78-3.74,3-.3,5.7-.07,8.41-.08,7-.02,13.99.6,21,.36,1.47-.05,2.94.16,4.45-.03,1.84-.24,3.7,2.18,4.29,4.11.95,3.1-.01,5.55-1.75,7.89-1.34,1.81-3.29,2.93-5.09,4.22-4.41,3.17-8.16,7.08-11.46,11.31-2.58,3.31-2.89,7.43-1.81,11.53.25.94.39,1.93,1.02,2.73l-.07.48Z" />
  <path class="cls-1"
    d="m92.17,1.34c-3.88,4.96-7.3,10.25-11.96,14.37-4.76,4.22-9.91,8.08-16.14,10-5.11,1.58-10.23,3.21-15.46,4.33-2.62.56-5.42.51-8.09,1.08-.27.06-.6,0-.82.13-.52.31-1.03.46-1.55.08-.73-.53-.1-1.12,0-1.66.45-2.48.95-4.95,1.4-7.43.24-1.33.66-2.37,2.27-2.57,2.14-.26,4.24-.86,6.38-1.03,5.78-.46,10.75-2.89,15.19-6.35,3.73-2.91,7.17-6.21,10.07-10.01,1.27-1.66,3.26-1.16,4.89-1.03,4.13.33,8.22-.15,12.33-.1.44,0,.89-.18,1.47.19Z" />
  <path class="cls-1"
    d="m152.87,154.63c-.49-5.34,1.65-9.92,3.74-14.39,1.25-2.67,4.36-3.5,6.87-4.9,4.66-2.59,9.99-2.76,14.87-4.53,2.15-.78,4.1-1.84,6.02-3.01.35-.22.67-.52,1.02-.28.28.19.11.57.04.92-.47,2.25-.89,4.52-1.32,6.78-.22,1.13-.77,1.65-2.04,1.94-4.75,1.06-9.4,2.45-13.84,4.54-3.06,1.44-5.05,3.51-5.81,6.87-.65,2.88.39,5.36,1.54,7.81,2.52,5.39,6.83,8.4,12.71,9.13.58.07.53.28.44.68-.71,3.14-1.4,6.29-2.15,9.43-.13.56-.39,1-1.3.72-2.5-.75-4.8-1.72-6.88-3.41-2.39-1.94-5.39-2.94-7.8-4.98-3.75-3.17-6.17-8.41-6.11-13.31Z" />
  <path class="cls-1"
    d="m16.18,163.18c2.87.26,5.74.49,8.6.79,1.97.21,3.93.61,5.9.76,3.76.28,7.53.06,11.3-.04,5.05-.13,10.1-.28,15.14-.19,3.12.06,6.24.44,9.38.28,4.18-.21,8.32.38,12.48.55,3.29.14,6.59.18,9.88.32,3.88.17,7.75.55,11.62.82,3.43.24,6.8,1.18,10.3.83,1.39-.14,1.83-.84,2.01-1.89.52-3.01.75-6.06.67-9.1-.18-6.46.07-12.93.16-19.38.07-4.81.7-9.7,1.72-14.48.34-1.57.87-1.64,2.22-.66,1.62,1.18,1.82,2.82,1.6,4.5-.65,4.96-.79,9.96-1.19,14.94-.4,4.82.59,9.54.31,14.34-.26,4.45-.87,8.9-.56,13.38.05.79-.41.69-.92.81-1.69.4-3.36.09-4.98-.25-1.77-.37-3.56-.31-5.31-.36-5.05-.16-10.15.07-15.16-.32-6.03-.46-12.01-.53-17.99-.03-2.64.22-5.24.13-7.86.07-3.84-.09-7.67-.38-11.5-.57-1.46-.07-2.93-.02-4.37.02-4.47.13-8.94-.69-13.41.2-1.64.33-3.38.22-5.07.25-3.71.08-7.41.45-11.14.14-1.48-.13-2.26-1.16-3.28-1.84-1.04-.7-1.84-1.79-2.67-2.77-.4-.47-.36-.96.43-1,.56-.04,1.13-.04,1.7-.07,0-.02,0-.05,0-.07Z" />
  <path class="cls-1"
    d="m1.32,215.17c1.03-3.69,1.6-6.94,2.17-10.2.19-1.08,1.22-1.95,2.05-2.13,4.41-.93,8.4-3.01,12.67-4.31,7.95-2.44,15.85-3.48,23.6.76,1.16.64,2.42,1.09,3.63,1.66,2.36,1.11,3.82,2.94,4.34,5.5.76,3.77.37,7.45-.83,11.08-.5,1.52-1.8,1.11-2.68.98-2.42-.37-4.83-.11-7.23-.05-.96.02-1.3-.16-1.49-1.23-1.07-5.85-4.1-11.08-11.48-11.59-4.14-.29-8.14.57-12.22.65-1.99.04-3.35,2.17-5.05,3.27-2.48,1.6-4.83,3.39-7.47,5.61Z" />
  <path class="cls-1"
    d="m139.57,59.6c3.68.38,7.36.76,11.05,1.14.3.03.74-.21.82.28.06.38-.3.53-.6.71-2.1,1.25-3.76,3-5.27,4.86-2.25,2.78-3.4,8.95-1.62,11.74,1.59,2.48,4,3.98,6.44,5.39,2.19,1.27,4.03,2.95,6.01,4.45,1.57,1.19,1.47,1.76.43,3.32-2.58,3.86-6.34,6.35-10.17,8.7-2.78,1.71-5.71,3.19-8.47,4.96-1.66,1.07-1.92.93-2.71-.78-1.08-2.35-.71-3.99,1.53-5.42,3.63-2.33,5.43-5.7,5.93-9.85.5-4.12-1.77-6.57-5.08-8.57-3.13-1.89-5.99-4.17-7.49-7.73-.21-.51-.32-.99-.25-1.45.73-4.41,2.62-8.2,6.16-11.03.95-.76,2.17-.41,3.28-.72Z" />
  <path class="cls-1"
    d="m71.03,77.93c-2-.36-4.02-.86-5.95-1.6-3.52-1.36-7.04-2.34-10.92-2.28-2.41.04-4.88-.23-7.32-.38-2.91-.18-5.8-.84-8.68-1.39-2.25-.43-4.48-.01-6.72.01-1.15.01-1.82.15-1.36-1.53.81-2.95,1.25-6,1.76-9.03.17-1.03.66-1.5,1.66-1.41,2.75.23,5.52.35,8.24.79,1.65.27,3.26.13,4.86.03,3.76-.23,7.43.23,11,1.32,4.39,1.35,9.05,1.6,13.37,3.22.32.12.82-.15,1.12-.12.59.06,1.29-.08,1.2,1.24-.22,3.21-.53,6.41-.8,9.62-.08.92-.2,1.72-1.47,1.51Z" />
  <path class="cls-1"
    d="m109.05,39.7c-4.84.17-9.67.58-14.53.43-2.63-.08-5.23.52-7.84.85-.37.05-.93.34-1.18-.24-.27-.61.34-.7.65-.97,2.56-2.19,4.93-4.65,8.03-6.1,2.43-1.14,5.11-1.58,7.68-2.3,3.45-.95,6.41-2.89,9.52-4.57,3.44-1.86,6.76-3.88,9.94-6.17,4.5-3.24,8.05-7.3,10.87-12.06,1.11-1.87,2.01-3.8,2.62-5.87.28-.96.85-1.46,1.83-1.27.88.17,1.75.25,2.65.25.8,0,.97.48.73,1.28-.6,1.96-1.41,3.8-2.5,5.54-2.69,4.3-5.23,8.7-8.13,12.85-2.04,2.93-4.58,5.52-6.87,8.28-1.32,1.59-2.5,3.31-3.93,4.79-1.16,1.2-2.33,2.32-2.99,3.9-.41.97-1.53.77-2.32.95-1.37.3-2.81.3-4.21.43Z" />
  <path class="cls-1"
    d="m193.21,4c-1.48.59-2.53,1.36-3.33,2.75-1.21,2.1-3.68,2.01-5.76,2.42-3.66.72-7.39.52-11.09.8-2.77.21-5.21,1.39-7.25,3.27-2.82,2.61-5.76,5.16-6.31,9.33-.28,2.07-.14,4.09.34,6.11.76,3.2,1.5,6.41,3.52,9.41-1.66-.06-3.04.39-4.67.12-2.3-.38-4.72,0-7.09.05-.45.01-.9.03-1.36.05-2.39.08-2.47-.01-1.71-2.3,2.09-6.31,3.94-12.7,6.84-18.71,1.33-2.76,3.1-5.22,5-7.56,1.61-1.99,3.48-3.78,5.21-5.68.68-.75,1.46-1.04,2.48-1.11,4.22-.28,8.44-.06,12.65,0,4.13.06,8.34-.37,12.53,1.04Z" />
  <path class="cls-1"
    d="m87.56,160.95c-4.93-.41-9.91-.05-14.82-.8-.22-.03-.46.05-.68,0-.76-.13-1.87.57-2.21-.55-.28-.91.86-1.17,1.36-1.66,2.03-1.98,4.07-3.98,6.31-5.71,3.6-2.79,7.63-4.92,11.71-6.95,2.85-1.42,5.68-2.85,8.38-4.53,1.17-.73,2.35-1.31,3.82-1.45,1.96-.18,3.12-1.83,4.38-3.13.95-.97,2.05-1.71,3.04-2.59.36-.31.75-.37,1.09-.25.57.2-.03.59.03.93.28,1.56-.37,3.09-.16,4.68.12.92-.27,1.35-1.35,1.61-8.36,2.02-14.24,6.93-17.17,15.13-.37,1.03-.67,2.13-.43,3.24.35,1.68-.33,2.23-1.93,2.01-.44-.06-.9.02-1.36.04Z" />
  <path class="cls-1"
    d="m105.97,90.28c.23,2.7-.33,5.13-.8,7.57-.18.94-.69,1.68-1.93,1.71-3.84.08-7.68.24-11.52.42-1.01.05-1.16-.15-1.1-1.26.43-7.66,1.35-15.25,3.14-22.72.06-.27.07-.55.1-.82.18-1.67.5-1.82,1.84-.86.18.13.37.25.58.31,4.38,1.3,6.04,5.09,7.73,8.72,1.03,2.22,2.25,4.5,1.96,6.94Z" />
  <path class="cls-1"
    d="m104.01,104.61c3.79-.14,7.58-.46,11.37-.37,5.46.13,10.92.14,16.36.7.45.05.9-.05,1.36-.05,1.29,0,1.81.6,1.42,1.86-.39,1.25-.39,2.53-.24,3.8.11.92-.25,1.06-1.09,1.17-3.1.4-6.05-.56-9.07-.89-1.32-.15-2.67-.26-3.97-.3-4.09-.14-8.19-.61-12.28-.21-2.71.27-5.41.11-8.04-.23-1.84-.24-3.72-.77-5.58-1.17-.57-.12-1.1-.1-1.65-.16-1.54-.17-2.67-2.07-2-3.37.27-.53.8-.3,1.21-.32,4.07-.17,8.14-.31,12.22-.46Z" />
  <path class="cls-1"
    d="m155.86,2.63c-7.2,7.29-10.24,16.63-13.39,25.9-.94,2.76-1.89,5.52-2.68,8.33-.24.86-.6,1.11-1.35,1.12-3.64.05-7.28.09-10.92.16-.44,0-.81-.12-.97-.49-.21-.48.38-.43.55-.66,3.93-5.47,9.1-9.97,12.29-16.01,2.26-4.28,5.61-7.93,7.29-12.55.6-1.65,1.17-3.3,2.02-4.83.35-.64.72-1.28,1.53-1.3,1.81-.03,3.64-.47,5.64.32Z" />
  <path class="cls-1"
    d="m198.95,74.24c-.6,2.23-.91,4.19-1.81,5.99-.34.69-.76,1.03-1.51,1.35-3.87,1.65-7.75,1.16-11.66.28-2.98-.67-5.89-1.41-8.48-3.21-2.43-1.69-2.68-2.39-1.14-4.96,1.43-2.39,3.25-4.49,4.9-6.71,1.09-1.48,2.24-2.91,3.39-4.35.23-.3.43-.71.88-.72.39,0,.87-.08,1.14.11.44.32-.07.74-.2,1.01-.66,1.34-1.13,2.66-1.17,4.22-.09,3.67,1.04,5.08,4.92,6.11,2.91.78,5.88,1.45,8.94,1.3.54-.03,1.09.03,1.78-.42Z" />
  <path class="cls-1"
    d="m63.58,1.25c-6.04,6.45-12.88,10.67-22.01,9.97.83-1.94,1.02-4.02,1.44-6.04.65-3.12,1.25-3.43,4.31-4.29,2.56-.72,5.12-.23,7.55-.2,2.78.04,5.7.05,8.71.56Z" />
  <path class="cls-1"
    d="m109.07,146.62c.08,2.22.4,4.46.17,6.64-.21,2.04-.06,4.03-.04,6.05.03,2.69-.28,3.12-2.88,2.97-1.64-.09-3.27-.4-4.91-.64-2.49-.36-2.86-1.02-2.16-4.02.86-3.67,3.6-5.85,6.71-7.61,1.37-.77,2.82-1.44,2.49-3.53.2.05.4.09.6.14Z" />
  <path class="cls-1"
    d="m178.18,157.66c-2.72-.52-5.23-1.5-6.61-4.1-2.06-3.88-1.74-3.5,1.64-5.15,2.38-1.17,4.99-1.88,7.53-2.73.58-.19,1.22-.23.95.88-.81,3.35-1.52,6.72-2.21,10.09-.16.8-.58,1.02-1.31,1.01Z" />
  <path class="cls-1"
    d="m211.36,23.8c-.35,2.02-.57,3.91-.89,5.77-.18,1.06-.72,1.95-1.57,2.66-1.99,1.66-3.96,3.35-5.94,5.02-1.97,1.67-4.3,1.94-6.76,1.73-.36-.03-.74-.03-.86-.34-.14-.36.28-.56.49-.79,4.27-4.55,8.66-8.97,13.76-12.61.62-.44,1.18-.96,1.77-1.44Z" />
  <path class="cls-1"
    d="m29.82,218.9c-4.42-.17-8.63-.45-12.83-.09-1.8.15-3.6.24-5.41.34-.32.02-.88.02-.91-.08-.12-.43.3-.68.6-.87,3.11-1.92,6.34-3.57,9.92-4.52,1.43-.38,2.83-.49,4.28-.32,3.16.37,3.52,2.98,4.35,5.54Z" />
  <path class="cls-1"
    d="m14.44,150.48c3.72,2.47,6.41,6.05,10.31,8.09.39.21.61.59.46.99-.26.66-.61.03-.93,0-3.19-.36-6.37-.79-9.59-.68-1.94.07-2.11-.1-1.73-1.94.45-2.15.98-4.29,1.48-6.46Z" />
  <path class="cls-1"
    d="m195.99,66.55c-.51.02-1.07.18-1.51.02-.71-.25-1.81.09-2.02-1.04-.16-.85,1.22-2.23,2.18-2.34,2.13-.23,4.16.45,6.25.67.27.03.96-.14.95.37,0,.42-.23.85-.73,1.17-1.33.84-2.83.83-4.27,1.11-.27.05-.56.03-.85.04Z" />
  <path class="cls-1" d="m79.37,218.83c.02-.16.04-.32.07-.48.06.13.13.27.19.4-.09.03-.17.05-.26.08Z" />
  <path class="cls-1"
    d="m126.9,209.57c-3.05-.83-5.72-1.76-8.47-2.26-2.3-.42-4.59-.83-6.88-1.32-1.5-.32-1.79-1.04-.97-2.34,1.22-1.93,3.14-3.18,4.57-4.89.56-.67.84-.4,1.27.14,1.77,2.19,3.57,4.34,5.18,6.66.86,1.25,2.11,2.06,3.52,2.61.6.23,1.27.35,1.78,1.4Z" />
  <path class="cls-1"
    d="m48.78,94.41c1.2.11,2.4-.07,3.65.1,1.62.21,1.93,1.35,2.43,2.39.26.53.09,1.13-.71,1.43-3.8,1.39-7.61,1.62-11.45.2-1.34-.5-1.28-1.17-.36-2.09,1.8-1.81,4.05-2.12,6.44-2.02Z" />
</svg>