<svg width="600" height="600" viewBox="0 0 600 600" fill="none" xmlns="http://www.w3.org/2000/svg">
  <path
    d="M77.8574 27.8721H153.916V114.777H216.425V27.8721H292.484V272.211H216.425V184.596H153.916V272.211H77.8574V27.8721Z"
    fill="#6d49d9" stroke="black" stroke-width="5px" />
  <path
    d="M337.612 27.8721H521.308V90.7039H413.642V117.234H510.88V180.066H413.642V209.38H521.632V272.211H337.583V27.8721H337.612Z"
    fill="#6d49d9" stroke="black" stroke-width="5px" />
  <path
    d="M175.774 507.904H153.887V572.128H77.8574V327.789H199.398C261.2 327.789 294.899 364.801 294.899 418.187C294.899 453.097 279.257 479.982 253.217 494.995L301.498 572.128H212.949L175.803 507.904H175.774ZM190.709 447.501C208.766 447.501 218.84 435.272 218.84 418.542C218.84 400.392 209.119 388.873 190.709 388.873H153.887V447.501H190.709Z"
    fill="#6d49d9" stroke="black" stroke-width="5px" />
  <path
    d="M333.459 327.789H517.155V390.62H409.488V417.151H506.727V479.983H409.488V509.296H517.479V572.128H333.429V327.789H333.459Z"
    fill="#6d49d9" stroke="black" stroke-width="5px" />
</svg>
  