<svg width="491" height="600" viewBox="0 0 491 600" fill="none" xmlns="http://www.w3.org/2000/svg">
  <path
    d="M3.11719 3.13324H86.0905V97.9381H154.282V3.13324H237.255V269.685H154.282V174.105H86.0905V269.685H3.11719V3.13324Z"
    fill="#ffc240" stroke="black" stroke-width="5" />
  <path
    d="M286.486 3.13324H486.882V71.677H369.427V100.619H475.506V169.163H369.427V201.141H487.235V269.685H286.454V3.13324H286.486Z"
    fill="#ffc240" stroke="black" stroke-width="5" />
  <path
    d="M109.935 526.805H86.0584V596.867H3.11719V330.315H135.707C203.127 330.315 239.89 370.692 239.89 428.931C239.89 467.015 222.826 496.345 194.419 512.721L247.088 596.867H150.49L109.967 526.805H109.935ZM126.227 460.91C145.926 460.91 156.917 447.569 156.917 429.319C156.917 409.518 146.312 396.953 126.227 396.953H86.0584V460.91H126.227Z"
    fill="#ffc240" stroke="black" stroke-width="5" />
  <path
    d="M281.955 330.315H482.351V398.859H364.896V427.801H470.975V496.345H364.896V528.323H482.704V596.867H281.923V330.315H281.955Z"
    fill="#ffc240" stroke="black" stroke-width="5" />
</svg>
  