<svg width="496" height="600" viewBox="0 0 496 600" fill="none" xmlns="http://www.w3.org/2000/svg">
  <path
    d="M484.053 565.501C494.402 542.962 492.579 522.508 492.495 499.575C492.27 446.919 492.018 361.581 491.794 308.925C491.653 275.286 508.397 32.0081 473.199 20.7387C448.071 12.6811 364.747 18.0059 359.306 20.7387C320.211 40.3756 337.711 287.26 336.365 323.998C334.346 378.767 281.312 375.612 250.714 375.189C223.734 374.823 158.641 372.118 159.229 326.027C159.903 270.919 159.875 215.84 159.846 160.733C159.846 133.179 159.678 105.654 159.201 78.0999C158.837 57.1107 159.257 33.3886 141.757 19.0201C115.759 -2.3354 54.3111 -7.54749 26.574 12.9065C2.48289 30.6839 -0.237523 64.8865 0.0148869 93.0037C0.323388 128.784 2.90358 164.423 2.98771 200.288C2.98771 254.128 3.21208 307.967 3.35231 361.807C3.4084 389.22 3.46449 416.632 3.52058 444.045C3.54863 462.696 -1.86416 495.152 10.8124 510.676C23.4329 526.143 54.255 529.016 72.3724 533.524C127.482 547.217 183.881 556.373 239.44 568.206C272.842 575.305 306.244 582.828 339.787 589.251C373.946 595.816 413.575 605.958 448.8 595.478C465.599 590.463 477.266 580.292 484.053 565.529V565.501Z"
    fill="#f05421" stroke="black" stroke-width="5" />
</svg>
  