<svg width="600" height="600" viewBox="0 0 600 600" fill="none" xmlns="http://www.w3.org/2000/svg">
  <path
    d="M516.715 543.376C526.202 522.715 524.531 503.966 524.453 482.944C524.248 434.676 524.016 356.45 523.811 308.181C523.682 277.346 539.03 54.3407 506.766 44.0105C483.731 36.6243 407.352 41.5054 402.364 44.0105C366.527 62.011 382.569 288.322 381.335 321.998C379.484 372.203 330.869 369.311 302.821 368.923C278.09 368.588 218.42 366.108 218.96 323.858C219.577 273.343 219.552 222.853 219.526 172.338C219.526 147.081 219.372 121.849 218.935 96.5916C218.6 77.3514 218.986 55.6062 202.944 42.4351C179.112 22.8592 122.785 18.0815 97.3595 36.8309C75.276 53.1269 72.7823 84.4793 73.0136 110.253C73.2964 143.052 75.6616 175.721 75.7387 208.598C75.7387 257.95 75.9444 307.303 76.0729 356.656C76.1244 381.785 76.1758 406.913 76.2272 432.041C76.2529 449.138 71.2912 478.889 82.9114 493.119C94.4802 507.298 122.734 509.932 139.341 514.064C189.858 526.615 241.558 535.008 292.486 545.855C323.105 552.363 353.724 559.259 384.471 565.147C415.784 571.164 452.11 580.462 484.4 570.855C499.799 566.258 510.494 556.935 516.715 543.402V543.376Z"
    fill="#f687a8" stroke="black" stroke-width="5px" />
</svg>
  