<svg id="Layer_1" xmlns="http://www.w3.org/2000/svg" viewBox="0 0 894.71 124.45"><defs><style>.cls-1{fill:#202427;}</style></defs><path class="cls-1" d="m75.9,44.79c-1.88-7.18-7.01-13.85-18.46-13.85-13.85,0-20,8.38-20,22.22v18.63c0,14.02,5.81,24.1,20.68,24.1,10.94,0,16.75-5.47,18.63-11.97h-19.15v-28.21h55.04v17.78c0,30.43-22.39,50.94-55.73,50.94C21.88,124.45,0,103.08,0,69.92v-15.56C0,19.15,23.25,0,56.58,0s53.16,18.46,54.87,44.79h-35.56Z"/><path class="cls-1" d="m236.58,122.05h-37.61l-4.96-18.12h-36.75l-4.79,18.12h-37.61L156.58,2.39h38.29l41.71,119.66Zm-71.28-47.86h20.68l-10.26-38.29-10.43,38.29Z"/><path class="cls-1" d="m240.86,76.41V2.39h37.44v74.02c0,12.14,7.01,16.58,16.41,16.58s16.41-4.44,16.41-16.58V2.39h37.44v74.02c0,29.75-20.34,48.04-53.85,48.04s-53.85-18.29-53.85-48.04Z"/><path class="cls-1" d="m366.5,2.39h35.56l35.21,56.07V2.39h36.58v119.66h-35.56l-35.21-56.07v56.07h-36.58V2.39Z"/><path class="cls-1" d="m516.76,34.02h-30.09V2.39h97.78v31.62h-30.26v88.04h-37.44V34.02Z"/><path class="cls-1" d="m597.27,2.39h37.44v88.55h48.55v31.11h-85.98V2.39Z"/><path class="cls-1" d="m696.93,2.39h90.43v30.77h-52.99v12.99h47.86v30.77h-47.86v14.36h53.16v30.77h-90.6V2.39Z"/><path class="cls-1" d="m827.02,34.02h-30.09V2.39h97.78v31.62h-30.26v88.04h-37.44V34.02Z"/></svg>