<svg id="Layer_1" data-name="Layer 1" xmlns="http://www.w3.org/2000/svg" viewBox="0 0 1663.16 231.33">
<defs><style>.cls-1{fill:#fff;}</style></defs>
  <path class="cls-1" d="M141.09,83.25c-3.5-13.35-13.03-25.74-34.32-25.74-25.74,0-37.18,15.57-37.18,41.31v34.64c0,26.06,10.8,44.8,38.45,44.8,20.34,0,31.14-10.17,34.64-22.24h-35.59v-52.43h102.32v33.05c0,56.56-41.63,94.69-103.59,94.69C40.67,231.33,0,191.61,0,129.97v-28.92C0,35.59,43.22,0,105.18,0s98.83,34.32,102,83.25h-66.1Z"/>
  <path class="cls-1" d="M439.78,226.88h-69.91l-9.21-33.68h-68.32l-8.9,33.68h-69.91L291.07,4.45h71.18l77.53,222.44Zm-132.51-88.97h38.45l-19.07-71.18-19.38,71.18Z"/>
  <path class="cls-1" d="M447.73,142.04V4.45h69.59V142.04c0,22.56,13.03,30.82,30.51,30.82s30.5-8.26,30.5-30.82V4.45h69.59V142.04c0,55.29-37.81,89.29-100.1,89.29s-100.1-34-100.1-89.29Z"/>
  <path class="cls-1" d="M681.28,4.45h66.1l65.46,104.23V4.45h68V226.88h-66.09l-65.46-104.23v104.23h-68V4.45Z"/>
  <path class="cls-1" d="M960.59,63.24h-55.93V4.45h181.76V63.24h-56.24V226.88h-69.59V63.24Z"/>
  <path class="cls-1" d="M1110.26,4.45h69.59V169.05h90.25v57.83h-159.84V4.45Z"/>
  <path class="cls-1" d="M1295.51,4.45h168.1V61.65h-98.51v24.15h88.97v57.2h-88.97v26.69h98.83v57.2h-168.42V4.45Z"/>
  <path class="cls-1" d="M1537.33,63.24h-55.93V4.45h181.76V63.24h-56.24V226.88h-69.59V63.24Z"/>
</svg>