<svg width="473" height="504" viewBox="0 0 473 504" fill="none" xmlns="http://www.w3.org/2000/svg">
  <path
    d="M472.518 26.06L462.198 74.06C459.918 84.66 448.798 92.36 435.748 92.36H193.248C180.998 92.36 170.568 99.49 168.458 109.32L138.638 247.99C137.528 253.14 138.858 258.39 142.388 262.75C147.068 268.55 154.938 272.01 163.438 272.01H218.498C227.498 272.01 235.858 275.71 240.858 281.89C244.708 286.66 246.158 292.4 244.938 298.07L234.618 346.07C232.338 356.67 221.218 364.37 208.168 364.37H26.8677C17.8677 364.37 9.50771 360.68 4.50771 354.49C0.657714 349.72 -0.792286 343.98 0.427714 338.31L69.2277 18.29C71.5077 7.68999 82.6277 -0.0100098 95.6777 -0.0100098H446.068C455.068 -0.0100098 463.428 3.67999 468.428 9.86999C472.278 14.64 473.728 20.38 472.518 26.05V26.06Z"
    fill="#1C1C1C" />
  <path
    d="M447.498 164.72L378.688 484.72C376.408 495.32 365.288 503.02 352.238 503.02H27.8677C18.8677 503.02 10.5077 499.32 5.50771 493.14C1.65771 488.37 0.207714 482.63 1.42771 476.96L11.7477 428.96C14.0277 418.36 25.1477 410.66 38.1977 410.66H254.688C266.938 410.66 277.368 403.53 279.478 393.7L309.298 255.03C310.408 249.87 309.078 244.63 305.548 240.27C300.868 234.47 292.998 231.01 284.498 231.01H229.438C220.438 231.01 212.078 227.32 207.078 221.13C203.228 216.36 201.778 210.62 202.998 204.95L213.318 156.95C215.598 146.35 226.718 138.65 239.768 138.65H421.068C430.068 138.65 438.428 142.34 443.428 148.53C447.278 153.3 448.728 159.04 447.508 164.71L447.498 164.72Z"
    fill="#1C1C1C" />
</svg>
  