<svg width="631" height="492" viewBox="0 0 631 492" fill="none" xmlns="http://www.w3.org/2000/svg">
  <path
    d="M355.222 340.249L354.77 340.179C333.756 336.917 312.219 339.129 290.117 341.873L289.801 341.913L289.482 341.912C259.69 341.797 229.777 340.68 199.971 339.568C183.385 338.948 166.833 338.33 150.353 337.887L143.775 337.71L145.708 331.42L145.71 331.414C150.764 314.969 155.817 298.529 160.835 282.089L161.915 278.549H165.617H165.624H165.63H165.637H165.644H165.65H165.657H165.664H165.67H165.677H165.684H165.69H165.697H165.704H165.71H165.717H165.724H165.73H165.737H165.744H165.75H165.757H165.764H165.77H165.777H165.784H165.79H165.797H165.804H165.81H165.817H165.824H165.83H165.837H165.844H165.851H165.857H165.864H165.871H165.877H165.884H165.891H165.897H165.904H165.911H165.917H165.924H165.931H165.937H165.944H165.951H165.957H165.964H165.971H165.977H165.984H165.991H165.997H166.004H166.011H166.017H166.024H166.031H166.037H166.044H166.051H166.057H166.064H166.071H166.077H166.084H166.091H166.097H166.104H166.111H166.117H166.124H166.131H166.138H166.144H166.151H166.158H166.164H166.171H166.178H166.184H166.191H166.198H166.204H166.211H166.218H166.224H166.231H166.238H166.244H166.251H166.258H166.264H166.271H166.278H166.284H166.291H166.298H166.304H166.311H166.318H166.324H166.331H166.338H166.344H166.351H166.358H166.364H166.371H166.378H166.384H166.391H166.398H166.405H166.411H166.418H166.425H166.431H166.438H166.445H166.451H166.458H166.465H166.471H166.478H166.485H166.491H166.498H166.505H166.511H166.518H166.525H166.531H166.538H166.545H166.551H166.558H166.565H166.571H166.578H166.585H166.591H166.598H166.605H166.611H166.618H166.625H166.631H166.638H166.645H166.651H166.658H166.665H166.672H166.678H166.685H166.692H166.698H166.705H166.712H166.718H166.725H166.732H166.738H166.745H166.752H166.758H166.765H166.772H166.778H166.785H166.792H166.798H166.805H166.812H166.818H166.825H166.832H166.838H166.845H166.852H166.858H166.865H166.872H166.878H166.885H166.892H166.898H166.905H166.912H166.918H166.925H166.932H166.938H166.945H166.952H166.959H166.965H166.972H166.979H166.985H166.992H166.999H167.005H167.012H167.019H167.025H167.032H167.039H167.045H167.052H167.059H167.065H167.072H167.079H167.085H167.092H167.099H167.105H167.112H167.119H167.125H167.132H167.139H167.145H167.152H167.159H167.165H167.172H167.179H167.185H167.192H167.199H167.205H167.212H167.219H167.226H167.232H167.239H167.246H167.252H167.259H167.266H167.272H167.279H167.286H167.292H167.299H167.306H167.312H167.319H167.326H167.332H167.339H167.346H167.352H167.359H167.366H167.372H167.379H167.386H167.392H167.399H167.406H167.412H167.419H167.426H167.432H167.439H167.446H167.452H167.459H167.466H167.472H167.479H167.486H167.493H167.499H167.506H167.513H167.519H167.526H167.533H167.539H167.546H167.553H167.559H167.566H167.573H167.579H167.586H167.593H167.599H167.606H167.613H167.619H167.626H167.633H167.639H167.646H167.653H167.659H167.666H167.673H167.679H167.686H167.693H167.699H167.706H167.713H167.719H167.726H167.733H167.739H167.746H167.753H167.759H167.766H167.773H167.78H167.786H167.793H167.8H167.806H167.813H167.82H167.826H167.833H167.84H167.846H167.853H167.86H167.866H167.873H167.88H167.886H167.893H167.9H167.906H167.913H167.92H167.926H167.933H167.94H167.946H167.953H167.96H167.966H167.973H167.98H167.986H167.993H168H168.006H168.013H168.02H168.026H168.033H168.04H168.047H168.053H168.06H168.067H168.073H168.08H168.087H168.093H168.1H168.107H168.113H168.12H168.127H168.133H168.14H168.147H168.153H168.16H168.167H168.173H168.18H168.187H168.193H168.2H168.207H168.213H168.22H168.227H168.233H168.24H168.247H168.253H168.26H168.267H168.273H168.28H168.287H168.293H168.3H168.307H168.314H168.32H168.327H168.334H168.34H168.347H168.354H168.36H168.367H168.374H168.38H168.387H168.394H168.4H168.407H168.414H168.42H168.427H168.434H168.44H168.447H168.454H168.46H168.467H168.474H168.48H168.487H168.494H168.5H168.507H168.514H168.52H168.527H168.534H168.54H168.547H168.554H168.56H168.567H168.574H168.58H168.587H168.594H168.601H168.607H168.614H168.621H168.627H168.634H168.641H168.647H168.654H168.661H168.667H168.674H168.681H168.687H168.694H168.701H168.707H168.714H168.721H168.727H168.734H168.741H168.747H168.754H168.761H168.767H168.774H168.781H168.787H168.794H168.801H168.807H168.814H168.821H168.827H168.834H168.841H168.847H168.854H168.861H168.868H168.874H168.881H168.888H168.894H168.901H168.908H168.914H168.921H168.928H168.934H168.941H168.948H168.954H168.961H168.968H168.974H168.981H168.988H168.994H169.001H169.008H169.014H169.021H169.028H169.034C176.717 278.549 184.194 279.212 191.43 279.878C191.728 279.906 192.025 279.933 192.322 279.96C199.307 280.604 206.065 281.227 212.929 281.326L212.93 281.326C227.569 281.54 241.838 281.97 256.537 283.231L256.543 283.231C259.646 283.501 262.703 283.803 265.736 284.103C275.403 285.058 284.812 285.987 294.591 285.777C309.173 285.446 317.441 275.727 319.58 264.329L319.648 263.969L319.767 263.623C320.686 260.955 321.239 257.911 321.239 254.429C321.239 242.882 321.394 231.346 321.548 219.83C321.99 186.867 322.429 154.076 319.234 121.709L319.234 121.703C317.629 105.26 318.147 87.0388 318.895 70.5829L318.895 70.5761C319.788 51.4945 318.341 35.6187 302.566 26.5526L302.56 26.5492C296.677 23.1572 288.606 21.7908 279.606 21.6096C270.825 21.4329 261.8 22.3833 254.046 23.1998L253.678 23.2385L253.674 23.2389C232.055 25.4977 211.023 26.7188 189.227 26.7547L189.219 26.7547C180.029 26.7547 170.817 27.5673 161.391 28.3986L160.623 28.4664C151.011 29.3136 141.172 30.1578 131.376 30.0294L131.372 30.0293C117.508 29.8357 103.658 29.8896 89.763 29.9436C83.2581 29.9689 76.7431 29.9942 70.2119 29.9942C66.9972 29.9942 64.1734 30.4817 61.6141 31.3149L59.9328 31.8623L58.2812 31.231C52.7704 29.1249 46.2707 29.4902 41.3379 32.1627C36.6493 34.7029 33.1695 39.4067 33.3111 46.8998L33.3111 46.8998C33.5285 58.4014 32.9935 69.837 32.3836 81.1188C32.3046 82.5805 32.2243 84.039 32.1442 85.4948C31.6034 95.3245 31.0696 105.029 30.9622 114.754C30.8803 123.751 36.0223 128.953 42.6466 130.957L43.3502 131.169L43.9628 131.576C46.8068 133.462 50.1779 134.618 53.9511 134.732L53.9583 134.732L53.9654 134.732C101.309 136.291 148.934 134.767 196.094 130.09L201.588 129.546V134.461C202.176 136.61 202.755 138.884 203.181 141.261C203.74 144.325 204.009 151.115 203.865 156.766L203.864 156.777C203.529 168.921 201.506 179.354 197.41 191.842C197.303 192.198 197.2 192.507 197.124 192.736L197.117 192.755C197.027 193.026 196.982 193.164 196.946 193.291L195.866 197.07L191.939 196.913C188.439 196.774 184.944 196.629 181.455 196.484C166.147 195.849 150.938 195.217 135.719 195.102C135.716 195.102 135.714 195.102 135.712 195.102L135.749 190.102C135.127 190.098 134.494 190.094 133.85 190.089C110.528 189.934 73.6849 189.687 53.7652 205.623L355.222 340.249ZM355.222 340.249L355.679 340.236C367.43 339.902 379.923 340.434 390.226 344C400.291 347.483 407.94 353.709 411.06 364.916C414.096 375.855 413.565 387.378 412.046 399.575C411.615 403.034 411.094 406.594 410.566 410.207C409.283 418.987 407.953 428.084 407.746 436.826L407.746 436.833C407.616 442.615 405.383 446.708 402.269 449.454C399.066 452.278 394.686 453.88 390.125 454.055L389.516 454.078L388.931 454.247C387.479 454.666 385.907 454.929 384.164 455.018C326.886 457.678 269.6 456.438 212.171 454.504C199.921 454.091 187.662 453.646 175.395 453.202C130.203 451.563 84.906 449.921 39.6046 449.851H39.5969C34.2916 449.851 30.4558 448.04 27.7891 445.478L26.9157 444.639L25.7551 444.293C23.4469 443.604 21.359 442.899 19.5046 442.048L19.4975 442.044C12.9894 439.069 8.28304 434.593 6.26377 427.797C4.00625 420.191 5.02515 412.041 7.33409 403.129C8.248 399.602 9.3207 396.103 10.4205 392.516C10.7097 391.573 11.0007 390.624 11.2912 389.666C12.663 385.145 14.0081 380.485 14.8893 375.872C17.3195 363.219 20.0212 350.645 22.7331 338.023C23.6623 333.698 24.5927 329.368 25.5138 325.027L25.5138 325.027C27.7928 314.283 29.8549 303.599 31.9075 292.963C35.3119 275.324 38.6903 257.819 42.9896 240.399C43.4853 238.415 43.9345 236.191 44.3792 233.972L44.4489 233.624C44.8628 231.558 45.2825 229.463 45.7625 227.366C45.8059 227.233 45.877 226.996 45.9337 226.686L355.222 340.249Z"
    fill="#9C7BFC" stroke="black" stroke-width="10" />
  <path
    d="M470.174 60.4517L470.175 60.4437C472.256 39.9633 465.491 20.4716 447.438 11.3358L447.429 11.3313C438.972 7.0303 429.83 5.48346 420.096 5.10248C413.754 4.85428 407.547 5.09346 401.16 5.33956C397.483 5.48123 393.747 5.6252 389.891 5.67982L470.174 60.4517ZM470.174 60.4517C469.612 66.0713 468.577 71.6442 467.456 77.4065C467.341 77.9932 467.226 78.5823 467.111 79.1737C466.104 84.3255 465.062 89.6512 464.354 95.0419M470.174 60.4517L464.354 95.0419M376.432 11.9923L375.707 12.422C374.813 12.9522 374.096 13.4127 373.452 13.9326L373.412 13.9647L373.372 13.9961C368.677 17.6315 365.419 23.5286 363.598 30.1626L363.597 30.1662C360.249 42.3281 360.589 55.3332 360.942 68.8427C361.002 71.1507 361.063 73.4735 361.106 75.8093L361.106 75.8175C361.289 86.835 361.261 97.8912 361.233 108.882C361.223 112.861 361.213 116.83 361.213 120.787C361.232 131.477 361.243 142.723 361.255 154.235C361.288 187.098 361.323 222.136 361.533 252.65L361.534 252.661C361.542 254.48 361.505 256.179 361.468 257.879C361.417 260.225 361.365 262.573 361.434 265.238C361.545 269.543 361.989 273.446 363.129 276.633L363.292 277.09L363.364 277.57C363.61 279.2 363.976 280.78 364.49 282.351L364.495 282.368L364.501 282.384C368.377 294.524 378.306 301.083 391.342 305.474C404.597 309.935 418.267 313.663 432.006 317.41C437.068 318.79 442.138 320.173 447.201 321.596C461.135 325.504 474.027 326.073 488.129 326.695C492.872 326.904 497.752 327.12 502.855 327.47C503.155 327.484 503.579 327.479 504.13 327.472C504.525 327.468 504.986 327.462 505.515 327.462H509.119L510.258 330.881C510.31 331.035 510.375 331.225 510.449 331.439C510.67 332.078 510.966 332.932 511.184 333.712L511.216 333.827L511.243 333.944C511.441 334.808 511.808 336.429 512.131 337.875C512.292 338.598 512.444 339.286 512.558 339.818L512.577 339.904C512.643 340.21 512.757 340.736 512.813 341.115L512.814 341.115C514.648 353.919 513.591 370.881 512.602 384.299C512.602 384.301 512.602 384.303 512.602 384.305L507.615 383.938C506.875 394.162 505.569 404.45 504.26 414.76L376.432 11.9923ZM376.432 11.9923L376.976 11.3488M376.432 11.9923L376.976 11.3488M376.976 11.3488C379.726 8.09694 383.902 5.76652 389.889 5.67984L376.976 11.3488ZM464.354 95.0419C463.069 104.758 462.932 114.932 462.8 124.641M464.354 95.0419L462.8 124.641M462.8 124.641C462.753 128.178 462.706 131.653 462.604 135.022L462.8 124.641ZM621.286 151.066L621.288 151.069L462.604 135.023C461.926 157.506 461.641 179.977 461.499 202.459L461.473 206.538L465.464 207.382C469.134 208.159 472.773 208.971 476.445 209.791L476.454 209.793L476.463 209.795C479.776 210.522 483.099 211.257 486.428 211.994L486.457 212C489.794 212.739 493.136 213.478 496.47 214.209L502.872 215.613L502.534 209.068C501.594 190.849 501.71 172.003 506.052 156.574C510.337 141.345 518.511 130.09 533.479 125.578C540.317 123.517 548.456 123.072 557.073 123.407C563.782 123.667 570.479 124.38 576.87 125.06C578.694 125.254 580.493 125.446 582.261 125.623C600.408 127.472 614.548 134.687 621.286 151.066ZM619.04 430.608L614.042 430.447L614.041 430.474L619.04 430.608Z"
    fill="#9C7BFC" stroke="black" stroke-width="10" />
</svg>
  