<svg width="1793" height="1908" viewBox="0 0 1793 1908" fill="none"
  xmlns="http://www.w3.org/2000/svg">
  <path
    d="M916.796 1127.98L916.797 1127.98C920.61 1110.24 916.195 1092.13 903.722 1076.67C887.357 1056.44 859.315 1043.66 828.295 1043.66H619.564C584.289 1043.66 550.783 1029.32 530.423 1004.08C514.931 984.926 508.794 961.363 513.816 938.044L513.817 938.038M916.796 1127.98L525.548 940.565L513.817 938.038M916.796 1127.98L877.674 1310.02M916.796 1127.98L877.674 1310.02M513.817 938.038L626.862 412.128L513.817 938.038ZM877.674 1310.02C870.524 1343.28 834.54 1369.95 789.134 1369.95M877.674 1310.02L789.134 1369.95M789.134 1369.95H101.831M789.134 1369.95H101.831M101.831 1369.95C70.798 1369.95 42.761 1357.2 26.404 1336.94L101.831 1369.95ZM732.573 338.323C682.195 338.323 636.377 367.792 626.863 412.123L26.4012 1336.94C13.9304 1321.48 9.51587 1303.37 13.3291 1285.64L13.3296 1285.63L274.148 71.927C274.148 71.9266 274.148 71.9262 274.149 71.9258C281.299 38.6714 317.282 12 362.688 12H1691.01C1722.04 12 1750.08 24.7497 1766.43 45.0058C1778.91 60.4655 1783.33 78.5879 1779.54 96.3318L1779.28 97.5696V97.598L1740.42 278.396L1752.16 280.918L1740.42 278.397C1733.27 311.651 1697.29 338.323 1651.88 338.323H732.573ZM1.59781 1283.11H1.59794H1.59781ZM1685.1 620.343L1684.7 622.234L1423.84 1835.87C1416.69 1869.12 1380.71 1895.79 1335.3 1895.79H105.622C74.6021 1895.79 46.5595 1883.01 30.195 1862.79C17.7221 1847.33 13.3066 1829.21 17.1201 1811.48L17.1205 1811.48L56.2432 1629.43C56.2432 1629.43 56.2433 1629.43 56.2434 1629.43C63.3938 1596.18 99.377 1569.51 144.783 1569.51H965.49C1015.87 1569.51 1061.69 1540.04 1071.2 1495.7L1184.25 969.787C1189.27 946.425 1183.13 922.893 1167.63 903.737C1147.27 878.505 1113.77 864.167 1078.5 864.167H869.768C838.736 864.167 810.699 851.417 794.342 831.161C781.869 815.701 777.453 797.586 781.267 779.855L781.267 779.853L820.39 597.809C827.54 564.554 863.523 537.882 908.929 537.882H1596.23C1627.27 537.882 1655.3 550.632 1671.66 570.888C1683.7 585.81 1688.23 603.206 1685.1 620.343Z"
    fill="#EBE9E3" stroke="#1C1C1C" stroke-width="24" />
</svg>
  