<svg id="Layer_1" data-name="Layer 1" xmlns="http://www.w3.org/2000/svg" viewBox="0 0 1157.81 241.51">
  <defs>
    <style>
      .cls-1 {
        fill: #b9d956;
        stroke-width: .96px;
      }

      .cls-1, .cls-2, .cls-3, .cls-4, .cls-5, .cls-6, .cls-7, .cls-8, .cls-9, .cls-10, .cls-11, .cls-12, .cls-13 {
        stroke: #000;
        stroke-miterlimit: 10;
      }

      .cls-2 {
        fill: #ffc240;
      }

      .cls-2, .cls-3, .cls-4, .cls-5, .cls-6, .cls-7, .cls-8, .cls-9, .cls-10, .cls-11, .cls-12, .cls-13 {
        stroke-width: .75px;
      }

      .cls-3 {
        fill: #fd8a1a;
      }

      .cls-4 {
        fill: #e854be;
      }

      .cls-5 {
        fill: #f687a8;
      }

      .cls-6 {
        fill: #f05421;
      }

      .cls-7 {
        fill: #ede9d7;
      }

      .cls-8 {
        fill: #8e69fb;
      }

      .cls-9 {
        fill: #dd0e23;
      }

      .cls-10 {
        fill: #acdde5;
      }

      .cls-11 {
        fill: #618a00;
      }

      .cls-12 {
        fill: #215cd7;
      }

      .cls-13 {
        fill: #202427;
      }
    </style>
  </defs>
  <g>
    <path d="M98.22,57.96c-2.43-9.29-9.07-17.92-23.89-17.92-17.92,0-25.88,10.84-25.88,28.76v24.11c0,18.14,7.52,31.19,26.77,31.19,14.16,0,21.68-7.08,24.11-15.48h-24.77v-36.5h71.23v23.01c0,39.38-28.98,65.92-72.11,65.92C28.31,161.04,0,133.39,0,90.47v-20.13C0,24.77,30.08,0,73.22,0s68.8,23.89,71.01,57.96h-46.01Z"/>
    <path d="M306.15,157.94h-48.67l-6.42-23.45h-47.56l-6.19,23.45h-48.67L202.63,3.1h49.55l53.97,154.84Zm-92.24-61.94h26.77l-13.27-49.55-13.49,49.55Z"/>
    <path d="M311.69,98.88V3.1h48.44V98.88c0,15.71,9.07,21.46,21.24,21.46s21.24-5.75,21.24-21.46V3.1h48.44V98.88c0,38.49-26.32,62.16-69.68,62.16s-69.68-23.67-69.68-62.16Z"/>
    <path d="M474.28,3.1h46.01l45.57,72.56V3.1h47.34V157.94h-46.01l-45.57-72.56v72.56h-47.34V3.1Z"/>
    <path d="M668.72,44.02h-38.93V3.1h126.53V44.02h-39.15v113.92h-48.44V44.02Z"/>
    <path d="M772.91,3.1h48.44V117.68h62.82v40.26h-111.27V3.1Z"/>
    <path d="M901.87,3.1h117.02V42.91h-68.57v16.81h61.94v39.82h-61.94v18.58h68.79v39.82h-117.24V3.1Z"/>
    <path d="M1070.21,44.02h-38.93V3.1h126.53V44.02h-39.15v113.92h-48.44V44.02Z"/>
  </g>
  <path class="cls-4" d="M17.7,202.94H202.98v32H17.7c-7.73,0-14-6.27-14-14v-4c0-7.73,6.27-14,14-14Z"/>
  <rect class="cls-12" x="81.41" y="202.94" width="199.27" height="32"/>
  <rect class="cls-3" x="209.9" y="202.94" width="111.56" height="32"/>
  <rect class="cls-7" x="169.89" y="202.94" width="55.4" height="32"/>
  <rect class="cls-9" x="269.14" y="202.94" width="111.56" height="32"/>
  <rect class="cls-11" x="340.7" y="202.94" width="111.56" height="32"/>
  <rect class="cls-2" x="389.94" y="202.94" width="111.56" height="32"/>
  <rect class="cls-8" x="466.11" y="202.94" width="111.56" height="32"/>
  <rect class="cls-10" x="492.59" y="202.94" width="111.56" height="32"/>
  <rect class="cls-13" x="595.45" y="202.94" width="90.79" height="32"/>
  <rect class="cls-5" x="664.45" y="202.94" width="90.79" height="32"/>
  <rect class="cls-6" x="705.45" y="202.94" width="66.79" height="32"/>
  <rect class="cls-1" x="756.24" y="202.94" width="139.73" height="32"/>
  <g>
    <path d="M932.79,227.89l20.97-18.68c1.61-1.45,3.44-3.29,3.44-6.12,0-2.45-1.45-3.75-3.83-3.75-2.76,0-3.9,1.53-3.9,3.98v1.15h-15.92v-1.76c0-11.02,7.65-16.92,19.75-16.92,12.86,0,20.51,6.74,20.51,17.22,0,8.57-4.59,13.24-11.33,18.14l-7.88,5.74h18.37v13.55h-40.18v-12.55Z"/>
    <path d="M1023.19,221.69c0,12.02-8.96,19.82-22.12,19.82s-22.12-7.81-22.12-19.82v-16.07c0-12.02,8.96-19.82,22.12-19.82s22.12,7.81,22.12,19.82v16.07Zm-16.53-16.76c0-4.13-2.53-5.66-5.59-5.66s-5.59,1.53-5.59,5.66v17.45c0,4.13,2.53,5.66,5.59,5.66s5.59-1.53,5.59-5.66v-17.45Z"/>
    <path d="M1028.32,227.89l20.97-18.68c1.61-1.45,3.44-3.29,3.44-6.12,0-2.45-1.45-3.75-3.83-3.75-2.76,0-3.9,1.53-3.9,3.98v1.15h-15.92v-1.76c0-11.02,7.65-16.92,19.75-16.92,12.86,0,20.51,6.74,20.51,17.22,0,8.57-4.59,13.24-11.33,18.14l-7.88,5.74h18.37v13.55h-40.18v-12.55Z"/>
    <path d="M1098.58,230.95h-23.88v-11.94l14.62-32.15h15l-13.55,31.61h7.81v-9.34h14.85v9.34h5.28v12.48h-5.28v9.49h-14.85v-9.49Z"/>
  </g>
</svg>