<svg width="856" height="296" viewBox="0 0 856 296" fill="none" xmlns="http://www.w3.org/2000/svg">
  <path
    d="M72.5342 219.663C70.7245 212.818 65.841 206.467 54.884 206.467C41.6464 206.467 35.7713 214.449 35.7713 227.645V245.413C35.7713 258.782 41.3242 268.395 55.5533 268.395C66.0145 268.395 71.5674 263.181 73.377 256.978H55.0823V230.092H107.711V247.044C107.711 276.056 86.2923 295.603 54.4378 295.603C20.9223 295.603 0 275.24 0 243.634V228.807C0 195.248 22.2362 176.986 54.0908 176.986C85.9453 176.986 104.934 194.581 106.545 219.663H72.5589H72.5342Z"
    fill="black" />
  <path
    d="M226.155 293.305H190.185L185.45 276.031H150.299L145.713 293.305H109.743L149.63 179.26H186.244L226.13 293.305H226.155ZM158.008 247.687H177.791L167.974 211.187L158.008 247.687Z"
    fill="black" />
  <path
    d="M230.245 249.787V179.235H266.041V249.787C266.041 261.352 272.734 265.603 281.733 265.603C290.732 265.603 297.425 261.377 297.425 249.787V179.235H333.221V249.787C333.221 278.132 313.761 295.578 281.733 295.578C249.705 295.578 230.245 278.156 230.245 249.787Z"
    fill="black" />
  <path
    d="M350.351 179.235H384.337L418.001 232.687V179.235H452.979V293.28H418.993L385.329 239.828V293.28H350.351V179.235Z"
    fill="black" />
  <path d="M494.006 209.383H465.25V179.235H558.731V209.383H529.802V293.305H494.006V209.383Z"
    fill="black" />
  <path d="M570.977 179.235H606.773V263.626H653.179V293.28H570.977V179.235Z" fill="black" />
  <path
    d="M666.243 179.235H752.709V208.568H702.039V220.948H747.801V250.281H702.039V263.972H752.858V293.305H666.243V179.26V179.235Z"
    fill="black" />
  <path d="M790.612 209.383H761.856V179.235H855.338V209.383H826.408V293.305H790.612V209.383Z"
    fill="black" />
  <path
    d="M74.1455 104.852V101.368H107.983V103.839C107.983 110.635 113.834 114.268 121.494 114.268C129.153 114.268 135.153 111.277 135.153 105.149C135.153 101.837 133.368 99.5146 130.269 98.6991L104.091 92.0763C86.1932 87.6035 75.1371 79.0037 75.1371 58.147C75.1371 34.473 92.8616 21.2275 120.527 21.2275C146.556 21.2275 163.958 34.9673 163.958 56.8372V59.8274H131.112V57.1832C131.112 52.3891 128.187 48.7318 120.378 48.7318C113.71 48.7318 109.793 51.0547 109.793 55.8488C109.793 58.9872 111.255 60.6429 114.032 61.4831L143.482 69.4403C160.884 74.0861 169.833 84.8357 169.833 102.381C169.833 125.24 150.646 141.797 121.37 141.797C92.0932 141.797 74.1951 127.884 74.1951 104.877L74.1455 104.852Z"
    fill="black" />
  <path
    d="M182.798 23.5504H268.842V53.3529H218.42V65.9312H263.959V95.7337H218.42V109.646H269.016V139.449H182.823V23.5504H182.798Z"
    fill="black" />
  <path
    d="M283.642 23.5504H369.686V53.3529H319.264V65.9312H364.803V95.7337H319.264V109.646H369.86V139.449H283.667V23.5504H283.642Z"
    fill="black" />
  <path
    d="M694.627 139.449H658.831L654.121 121.903H619.143L614.582 139.449H578.811L618.499 23.5504H654.939L694.627 139.449ZM626.803 93.0895H646.486L636.719 55.997L626.803 93.0895Z"
    fill="black" />
  <path d="M716.74 54.1683H688.108V23.5504H781.143V54.1931H752.362V139.449H716.74V54.1683Z"
    fill="black" />
  <path
    d="M538.726 45.3956C544.13 41.1452 547.626 34.5718 547.626 27.1583C547.626 14.3576 537.214 3.95389 524.348 3.95389C511.483 3.95389 501.071 14.3329 501.071 27.1583C501.071 34.5718 504.566 41.1452 509.97 45.3956C504.566 49.6461 501.071 56.2194 501.071 63.633C501.071 69.3167 503.128 74.5062 506.525 78.5342C503.128 82.5622 501.071 87.7764 501.071 93.4354C501.071 99.6134 503.525 105.223 507.467 109.399C505.583 110.734 503.922 112.365 502.534 114.193C498.989 105.89 490.734 100.083 481.115 100.083C475.017 100.083 469.489 102.431 465.324 106.261C464.333 104.309 463.069 102.505 461.606 100.898C465.448 96.7715 467.828 91.2361 467.828 85.157C467.828 80.2146 466.266 75.6676 463.639 71.9114C466.266 68.1552 467.828 63.5835 467.828 58.6659C467.828 52.5868 465.448 47.0513 461.606 42.9244C465.448 38.7976 467.828 33.2621 467.828 27.183C467.828 14.3823 457.417 3.9786 444.551 3.9786C431.685 3.9786 421.273 14.3576 421.273 27.183C421.273 33.2621 423.653 38.7976 427.496 42.9244C423.653 47.0513 421.273 52.5868 421.273 58.6659C421.273 63.6082 422.835 68.1552 425.463 71.9114C422.835 75.6676 421.273 80.2393 421.273 85.157C421.273 91.2361 423.653 96.7715 427.496 100.898C423.653 105.025 421.273 110.561 421.273 116.64C421.273 129.441 431.685 139.844 444.551 139.844C450.649 139.844 456.177 137.497 460.342 133.666C464.159 141.253 472.018 146.467 481.115 146.467C488.651 146.467 495.345 142.884 499.584 137.324C503.129 145.627 511.383 151.434 521.002 151.434C533.843 151.434 544.279 141.055 544.279 128.23C544.279 122.052 541.825 116.442 537.883 112.266C543.758 108.065 547.626 101.195 547.626 93.4354C547.626 87.7517 545.568 82.5622 542.172 78.5342C545.568 74.5062 547.626 69.292 547.626 63.633C547.626 56.2194 544.13 49.6461 538.726 45.3956Z"
    fill="#f05421" />
  <path
    d="M521.051 155.363C512.077 155.363 503.847 150.989 498.815 143.897C493.932 148.073 487.734 150.396 481.165 150.396C472.414 150.396 464.407 146.294 459.325 139.424C454.962 142.241 449.856 143.749 444.6 143.749C429.603 143.749 417.381 131.566 417.381 116.615C417.381 110.931 419.166 105.445 422.463 100.874C419.166 96.302 417.381 90.816 417.381 85.1323C417.381 80.4617 418.571 75.9147 420.852 71.8867C418.571 67.834 417.381 63.3117 417.381 58.6412C417.381 52.9575 419.166 47.4714 422.463 42.8997C419.166 38.3281 417.381 32.842 417.381 27.1583C417.381 12.2076 429.603 0.0247118 444.6 0.0247118C459.598 0.0247118 471.819 12.2076 471.819 27.1583C471.819 32.842 470.034 38.3281 466.737 42.8997C470.034 47.4714 471.819 52.9575 471.819 58.6412C471.819 63.3117 470.629 67.8587 468.349 71.8867C470.629 75.9395 471.819 80.4617 471.819 85.1323C471.819 90.3712 470.307 95.4618 467.456 99.8111C471.596 97.3893 476.306 96.1043 481.165 96.1043C487.734 96.1043 493.931 98.4519 498.741 102.505C497.699 99.6134 497.154 96.5491 497.154 93.4107C497.154 88.0977 498.741 82.9082 501.641 78.5095C498.741 74.1108 497.154 68.9213 497.154 63.6083C497.154 56.7878 499.683 50.338 504.219 45.3709C499.683 40.4038 497.154 33.9788 497.154 27.1336C497.154 12.1829 509.375 0 524.373 0C539.371 0 551.592 12.1829 551.592 27.1336C551.592 33.9541 549.063 40.4038 544.527 45.3709C549.063 50.338 551.592 56.7631 551.592 63.6083C551.592 68.9213 550.005 74.1108 547.105 78.5095C550.005 82.9082 551.592 88.0977 551.592 93.4107C551.592 100.725 548.592 107.694 543.411 112.76C546.56 117.282 548.27 122.62 548.27 128.205C548.27 143.156 536.049 155.339 521.051 155.339V155.363ZM500.625 129.564L503.277 135.767C506.326 142.884 513.292 147.48 521.051 147.48C531.711 147.48 540.362 138.831 540.362 128.23C540.362 123.287 538.478 118.592 535.033 114.984L531.909 111.697L535.578 109.053C540.635 105.421 543.659 99.5887 543.659 93.4107C543.659 88.8885 542.048 84.4898 539.123 81.0301L536.991 78.5095L539.123 75.9889C542.048 72.5292 543.659 68.1305 543.659 63.6083C543.659 57.6774 540.957 52.1667 536.272 48.4846L532.33 45.3956L536.272 42.3067C540.982 38.6246 543.659 33.1139 543.659 27.183C543.659 16.5569 534.983 7.9325 524.348 7.9325C513.714 7.9325 505.037 16.5816 505.037 27.183C505.037 33.1139 507.739 38.6246 512.424 42.3067L516.366 45.3956L512.424 48.4846C507.714 52.1667 505.037 57.6774 505.037 63.6083C505.037 68.1305 506.648 72.5292 509.574 75.9889L511.705 78.5095L509.574 81.0301C506.648 84.4898 505.037 88.8885 505.037 93.4107C505.037 98.3531 506.921 103.048 510.367 106.656L513.49 109.943L509.821 112.562C508.26 113.674 506.896 115.009 505.706 116.541L501.591 121.903L498.939 115.701C495.89 108.584 488.924 103.987 481.165 103.987C476.306 103.987 471.646 105.816 468.076 109.127L464.234 112.686L461.879 108.015C461.061 106.409 460.019 104.902 458.78 103.567L456.301 100.898L458.78 98.2295C462.102 94.6463 463.936 90.0005 463.936 85.157C463.936 81.2031 462.721 77.3975 460.466 74.1602L458.879 71.9114L460.466 69.6627C462.746 66.4254 463.936 62.6198 463.936 58.6659C463.936 53.8224 462.102 49.1765 458.78 45.5933L456.301 42.9245L458.78 40.2556C462.102 36.6724 463.936 32.0265 463.936 27.183C463.936 16.5569 455.26 7.9325 444.625 7.9325C433.99 7.9325 425.314 16.5816 425.314 27.183C425.314 32.0265 427.148 36.6724 430.47 40.2556L432.949 42.9245L430.47 45.5933C427.148 49.1765 425.314 53.8224 425.314 58.6659C425.314 62.6198 426.504 66.4254 428.785 69.6627L430.371 71.9114L428.785 74.1602C426.504 77.3975 425.314 81.2031 425.314 85.157C425.314 90.0005 427.148 94.6463 430.47 98.2295L432.949 100.898L430.47 103.567C427.148 107.151 425.314 111.796 425.314 116.64C425.314 127.266 433.99 135.89 444.625 135.89C449.484 135.89 454.119 134.062 457.714 130.75L461.556 127.192L463.911 131.862C467.208 138.436 473.827 142.513 481.165 142.513C487.213 142.513 492.816 139.745 496.509 134.927L500.625 129.564Z"
    fill="black" />
</svg>
  