<svg width="132" height="154" viewBox="0 0 132 154" fill="none" xmlns="http://www.w3.org/2000/svg">
  <path
    d="M121.511 139.905C121.759 139.534 122.006 139.163 122.23 138.793C126.27 132.219 127.336 124.262 127.51 116.552C128.154 86.1564 124.709 55.9092 124.461 25.4889C124.411 19.4098 124.089 12.6387 119.775 8.31416C115.685 4.212 109.265 3.66834 103.489 3.91546C97.6633 4.18729 91.0443 5.57115 88.1439 10.6124C86.6566 13.2071 86.4335 16.3208 86.3095 19.3109C85.4171 38.4132 86.508 57.5648 87.0781 76.6671C87.2021 80.9422 87.2518 85.4892 84.9959 89.1466C82.9136 92.4827 79.1455 94.509 75.3031 95.3245C68.8826 96.7084 61.6688 95.8929 55.3722 94.1878C43.3493 90.9505 44.0187 83.2899 44.2666 72.7873C44.4401 65.5221 44.6136 58.2321 44.8119 50.9668C45.0598 41.5516 45.3079 32.0869 44.0932 22.7459C43.2503 16.222 41.2422 9.67331 34.9209 6.53491C26.3437 2.28447 13.7259 2.95169 8.66886 12.0209C1.40552 25.0441 5.47101 46.3951 5.57017 60.6785C5.7189 79.0394 5.86775 97.4003 5.9917 115.761C6.11564 131.75 21.1132 134.097 33.731 136.42C49.2245 139.287 64.6683 142.475 80.1121 145.588C94.4901 148.48 111.669 154.287 121.486 139.905H121.511Z"
    fill="#F27044" />
  <path
    d="M102.646 153.15C96.3746 153.15 89.9539 151.742 84.1283 150.457C82.517 150.111 80.9307 149.765 79.3689 149.443L71.1386 147.788C58.6695 145.267 45.7542 142.648 33.0371 140.3L32.0458 140.127C19.4527 137.804 2.22379 134.641 2.07505 115.811L1.65383 60.7279C1.62904 57.3671 1.38091 53.5121 1.10823 49.4593C0.215804 36.1149 -0.800458 20.9913 5.24819 10.1181C11.3464 -0.853959 26.3194 -2.11426 36.6814 3.0258C45.1595 7.22681 47.2169 15.9995 48.0101 22.2516C49.2496 31.9139 49.0018 41.6504 48.7539 51.0656C48.5556 58.3309 48.3819 65.6209 48.2083 72.8861V74.0476C47.9109 84.7231 48.2085 88.2075 56.4138 90.4068C63.0326 92.1861 69.4532 92.5815 74.4855 91.4942C77.7329 90.8022 80.3603 89.196 81.6494 87.0955C83.2359 84.5501 83.2609 81.0658 83.137 76.8153C83.013 72.8861 82.889 68.9817 82.7403 65.0525C82.1949 50.0277 81.6495 34.484 82.3684 19.1626C82.5419 15.5053 82.8395 11.9715 84.7236 8.70952C87.7727 3.39648 94.0196 0.48048 103.291 0.0603787C108.943 -0.18674 117.049 0.0850906 122.552 5.59583C127.807 10.8595 128.304 18.3224 128.378 25.4889C128.502 38.7344 129.221 52.2023 129.94 65.2255C130.857 82.0295 131.799 99.4267 131.452 116.651C131.328 123.15 130.559 132.763 125.601 140.868C125.329 141.313 125.056 141.733 124.758 142.153C118.933 150.704 110.951 153.175 102.646 153.175V153.15ZM24.113 7.94345C19.1551 7.94345 14.4204 9.79684 12.1397 13.9237C7.20663 22.7706 8.14856 36.6586 8.96662 48.9404C9.2393 53.1167 9.51194 57.0706 9.53673 60.6785L9.95826 115.761C10.0574 127.227 19.3287 129.798 33.4835 132.417L34.4751 132.59C47.2417 134.962 60.1817 137.582 72.7004 140.102L80.9307 141.758C82.5172 142.079 84.1533 142.425 85.8141 142.796C101.035 146.132 111.521 147.59 118.264 137.705C118.487 137.384 118.685 137.063 118.883 136.742C121.908 131.799 123.395 125.349 123.593 116.453C123.94 99.5255 122.998 82.2766 122.106 65.6209C121.387 52.4989 120.643 38.9321 120.544 25.5136C120.495 19.9534 120.172 14.2697 116.999 11.0819C114.496 8.56125 110.257 7.54806 103.687 7.84461C97.2916 8.14115 93.2013 9.72271 91.59 12.5646C90.5736 14.3191 90.4003 16.7409 90.2764 19.4839C89.5823 34.484 90.1274 49.8547 90.648 64.7312C90.7967 68.6604 90.9208 72.6143 91.0447 76.5435C91.1686 80.7198 91.3423 86.4282 88.3924 91.1976C85.9382 95.1762 81.5999 97.9934 76.171 99.1548C68.164 100.86 59.909 99.4514 54.3809 97.9687C39.8294 94.0642 40.0775 83.7841 40.3254 73.8499V72.6885C40.5237 65.3985 40.6972 58.1332 40.8955 50.8432C41.1434 41.7245 41.3665 32.3093 40.2014 23.2154C39.2841 16.0242 37.1028 11.9715 33.186 10.0192C30.4344 8.6601 27.2365 7.91874 24.113 7.91874V7.94345Z"
    fill="black" />
</svg>
  