<svg id="Isolation_Mode" xmlns="http://www.w3.org/2000/svg" viewBox="0 0 58.55 160.2"><defs><style>.cls-1{fill:#710e02;}</style></defs><path class="cls-1" d="m24.67,16.29c-.57,0-1.11-.11-1.5-.43-.25-.2-.54-.59-.53-1.26v-.23c-.01-.78-.02-1.97.57-2.56.23-.23.56-.34.87-.34.27,0,.67.14.86.23.12.06.21.15.27.21h0s.09.04.09.04l.08-.04c.62-.23,1.18-.63,1.64-1.19l.37.3c.53-.01,1.6.05,1.93.39.39.4.29,1.12.15,1.89l-.04.22c-.22,1.53-.96,2.27-2.47,2.48-.14.02-.32.05-.51.09-.53.1-1.17.22-1.77.22Zm-.63-3.83c-.07,0-.1.02-.14.05-.29.29-.28,1.34-.28,1.84v.25c0,.31.1.43.18.49.45.37,1.75.13,2.45,0,.21-.04.41-.08.56-.1,1.05-.14,1.46-.55,1.61-1.63,0-.07.03-.16.05-.26.04-.19.14-.74.11-.98-.33-.09-1.17-.16-1.37-.1.03,0,.12-.06.18-.17l-.06-.04c-.45.42-.96.75-1.52.97-.2.17-.41.25-.64.23-.15-.01-.36-.08-.55-.3-.05-.04-.09-.08-.13-.12-.12-.08-.37-.15-.44-.15h0Z"/><path class="cls-1" d="m15.35,19.61c-1.15,0-2.32-.22-3.49-.66-.85-.32-1.62-.82-2.36-1.3-1.05-.68-2.05-1.33-3.22-1.46l-.49-.06c-1.75-.21-3.57-.42-4.94.62l-.49.37-.26-.55c-.27-.57.11-1.1.33-1.41l.1-.15c.14-.23.28-.45.42-.68.32-.52.64-1.04,1-1.55,1.16-1.63,2.41-3.39,3.87-4.65.84-.73,1.36-1.67,1.9-2.67.16-.29.32-.59.5-.89l.17-.29c.43-.77.94-1.65,2.09-1.61,1.82.05,3.07,1.18,3.95,2.15.5.55.63,1.2.76,1.77.09.43.18.85.41,1.16.43.59,1.23.95,2,1.3.26.12.51.23.75.35,1.97,1.01,3.74,2.31,5.31,3.46l.47.34-.41.41c-1.42,1.42-2.62,1.96-3.67,1.66-.1-.03-.19-.07-.29-.11-.06-.03-.11-.05-.17-.07-.11-.03-.22-.04-.34-.04.03.03.07.06.1.09l-.7.7s.06.01.08,0c-.06.02-.21.17-.31.25-.18.17-.37.35-.62.44-.54.19-1.52.08-1.91.02l-.39-.06-.03-.4c-.06-.77.83-1.35,1.26-1.62.62-.4,1.13-.43,1.78-.43h.29c.32-.01.67-.02,1.03.07.12.03.23.08.34.13.05.02.1.05.16.06.57.16,1.35-.18,2.26-1-1.42-1.03-2.99-2.15-4.69-3.03-.22-.11-.46-.22-.7-.33-.85-.38-1.81-.82-2.39-1.62-.36-.49-.48-1.05-.58-1.54-.11-.51-.2-.96-.52-1.31-1.13-1.25-2.1-1.79-3.24-1.82-.01,0-.02,0-.03,0-.49,0-.72.32-1.16,1.1l-.18.31c-.17.29-.33.58-.48.86-.56,1.03-1.15,2.1-2.13,2.95-1.37,1.18-2.58,2.89-3.65,4.4-.4.56-.71,1.06-1.02,1.57-.09.14-.17.28-.26.42,1.4-.47,2.95-.29,4.36-.13l.48.06c1.4.16,2.54.9,3.65,1.61.73.47,1.42.92,2.18,1.21,2.3.87,4.6.79,6.68-.24l.22-.12c3.52-1.91,4.5-2,4.99-1.84.27.09.4.27.47.4l-.91.42c.04.08.1.12.13.12-.11-.03-.8-.07-4.2,1.77-.13.07-.22.12-.26.14-1.27.63-2.61.94-3.98.94Zm1.45-3.97c.3.01.54,0,.66-.04.05-.02.18-.15.27-.23.09-.08.22-.21.38-.32-.32.02-.56.07-.85.26-.2.13-.34.23-.46.32Z"/><path class="cls-1" d="m13.35,21.85h-.56c-1.97,0-4-.01-6.01-.68-.74-.24-1.43-.64-2.09-1.02-.25-.14-.5-.28-.74-.42-.67-.36-1.38-.72-2.14-.95-1.4-.42-1.42-.89-1.28-2.18l.04-.35.99.1-.04.36q-.1.92.58,1.12c.84.25,1.61.64,2.32,1.02.25.14.51.28.77.43.62.36,1.27.73,1.91.94,1.86.61,3.72.62,5.7.62h.51s.03,0,.04,0c.8,0,1.54-.1,2.39-.34.45-.12.9-.17,1.33-.21.48-.05.94-.09,1.36-.24.34-.12.67-.26,1.01-.39.37-.15.74-.3,1.11-.43.19-.07.48-.24.75-.41.59-.36,1.2-.73,1.77-.67l-.1,1c-.24-.04-.79.31-1.15.53-.33.2-.65.39-.95.5-.36.12-.71.27-1.06.41-.35.14-.7.29-1.05.41-.54.19-1.07.24-1.59.29-.41.04-.79.08-1.17.18-.94.26-1.76.37-2.65.37Z"/><path class="cls-1" d="m39.83,19.45c-1.67,0-3.29-.36-4.83-1.08-.05-.02-.15-.08-.31-.15-4.31-2.2-5.14-2.1-5.26-2.05.01,0,.06-.03.09-.09l-.9-.44c.07-.14.21-.32.49-.41.81-.27,2.61.37,6.03,2.11.14.07.23.12.28.14,2.58,1.21,5.45,1.3,8.3.28.94-.34,1.79-.86,2.69-1.41,1.34-.82,2.73-1.67,4.42-1.84l.59-.06c1.8-.2,3.8-.42,5.57.24-.15-.23-.3-.46-.45-.68-.37-.57-.76-1.17-1.18-1.73l-.06-.08c-1.32-1.75-2.81-3.73-4.5-5.11-1.19-.97-1.9-2.2-2.59-3.39-.19-.33-.38-.67-.59-1l-.21-.36c-.53-.88-.85-1.35-1.57-1.32-1.44.04-2.66.68-4.07,2.15-.4.42-.52.94-.65,1.54-.13.59-.27,1.21-.7,1.76-.7.91-1.87,1.4-2.89,1.84-.3.13-.6.25-.87.39-2.12,1.03-4.08,2.35-5.84,3.56,1.19,1.02,2.21,1.44,2.97,1.23.07-.02.14-.05.21-.08.13-.05.26-.11.4-.14.83-.19,1.55-.45,2.25-.7,1.63-.59,3.04-1.1,4.9-.31l-.39.92c-1.5-.64-2.62-.23-4.17.33-.69.25-1.47.53-2.37.74-.08.02-.16.05-.23.09-.11.05-.22.09-.33.12-1.23.33-2.7-.3-4.38-1.89l-.45-.42.51-.35c1.92-1.33,4.09-2.83,6.49-4,.28-.14.59-.27.91-.41.96-.41,1.95-.83,2.49-1.53.29-.38.4-.86.52-1.37.15-.66.32-1.4.91-2.02C42.13,1.34,43.63.06,45.82,0c.02,0,.05,0,.07,0,1.31,0,1.88.96,2.38,1.81l.21.34c.21.34.41.68.61,1.02.67,1.16,1.31,2.26,2.36,3.12,1.78,1.45,3.32,3.49,4.67,5.28l.06.08c.44.58.84,1.19,1.22,1.78.17.26.34.53.52.79.04.05.08.11.13.18.27.35.71.95.4,1.57l-.26.52-.47-.34c-1.73-1.23-3.98-.98-6.16-.74l-.6.06c-1.46.15-2.7.91-4,1.7-.9.55-1.84,1.12-2.88,1.49-1.42.51-2.84.76-4.23.76Z"/><path class="cls-1" d="m37.96,16.38c-.57,0-1.13-.1-1.69-.19l-.3-.05c-1.51-.25-2.68-.65-3.78-1.29-.35-.21-.67-.34-1.01-.42-.48-.12-1.03-.03-1.6.07-.18.03-.35.06-.52.08l-.14-.99c.16-.02.32-.05.49-.08.62-.11,1.33-.23,2.01-.06.43.11.84.28,1.27.53,1,.59,2.03.94,3.43,1.17l.3.05c.89.15,1.74.3,2.52.02.08-.03.17-.07.25-.11.21-.1.44-.21.72-.24.13-.01.26-.01.39,0h.15s0,1,0,1h-.2c-.08,0-.16-.01-.24,0-.11.01-.25.08-.41.15-.11.05-.22.1-.34.14-.45.16-.9.22-1.34.22Z"/><path class="cls-1" d="m42.28,22.05c-1.08,0-2.07-.13-3.21-.43-.47-.12-.95-.17-1.45-.21-.63-.06-1.28-.12-1.92-.33-.43-.14-.86-.31-1.29-.47-.43-.17-.87-.34-1.31-.48-.35-.11-.73-.33-1.13-.56-.52-.3-1.15-.65-1.5-.63l-.09-1c.67-.07,1.38.36,2.09.76.36.21.7.4.95.48.46.15.91.32,1.36.5.41.16.82.32,1.24.46.54.18,1.1.23,1.7.29.52.05,1.07.1,1.61.24,1.07.28,2.03.4,3.02.39h.63c2.44,0,4.74-.01,7.04-.73.8-.25,1.59-.68,2.37-1.1.31-.17.63-.34.94-.49.87-.44,1.8-.89,2.82-1.18q.91-.25.78-1.37l-.05-.42.99-.11.04.41c.17,1.49.14,1.99-1.5,2.45-.94.26-1.82.69-2.65,1.11-.3.15-.6.32-.91.48-.81.44-1.66.9-2.55,1.17-2.44.76-4.93.77-7.33.77h-.62s-.04,0-.06,0Z"/><path class="cls-1" d="m18.64,141.63l.16-4.11c.13-3.02.26-5.88-.98-8.63-.8-1.78-1.58-3.08-2.53-4.2-.28-.33-.52-.68-.75-1.03-.23-.34-.44-.66-.69-.95-.58-.69-.95-1.31-1.22-2.09-.58-1.65-.28-3.07.04-4.58l.09-.44c.46-2.27.81-4.41,1.03-6.38.3-2.7.26-5.5.23-8.21-.01-1.04-.03-2.09-.02-3.12,0-1.94-.06-3.92-.12-5.82-.1-3.06-.21-6.22-.01-9.36l.17-2.8c.29-4.83.59-9.81.99-14.7.06-.77.13-1.54.2-2.32.35-3.98.72-8.1.36-12.04-.2-2.21-.3-4.44-.39-6.61-.08-1.91-.16-3.89-.32-5.82-.15-1.79.11-3.59.36-5.33.09-.66.19-1.32.26-1.98.24-2.15.92-4.31,1.44-5.74.22-.59.67-1.73,1.22-2.7.2-.35.44-.68.67-1.01.36-.5.7-.98.9-1.51l.32-.88.55.76c.22.3.29.73.2,1.15l-.4-.09c-.22.41-.49.79-.76,1.16-.22.3-.44.61-.62.92-.38.67-.79,1.57-1.15,2.54-.51,1.38-1.16,3.45-1.39,5.5-.07.67-.17,1.34-.27,2.01-.24,1.69-.49,3.43-.36,5.1.16,1.96.24,3.94.33,5.86.09,2.15.19,4.38.39,6.56.37,4.03,0,8.2-.36,12.22-.07.77-.14,1.54-.2,2.31-.4,4.87-.7,9.85-.99,14.67l-.17,2.8c-.19,3.09-.08,6.23.02,9.26.06,1.92.13,3.9.12,5.86,0,1.03,0,2.07.02,3.11.04,2.74.07,5.58-.23,8.34-.22,1.99-.57,4.17-1.04,6.46l-.09.45c-.3,1.43-.56,2.66-.07,4.04.23.66.53,1.18,1.04,1.77.29.34.53.69.76,1.04.23.33.44.65.68.94,1.01,1.19,1.84,2.56,2.68,4.43.63,1.4.93,2.84,1.06,4.29.06-1.33.04-2.68.01-4.01-.01-.75-.02-1.5-.02-2.24,0-3.33-.26-6.7-.51-9.96-.26-3.33-.53-6.77-.51-10.19,0-1.48.15-2.77.44-3.95.19-.76.32-1.55.45-2.31.14-.8.28-1.62.48-2.43,1.97-8.01,2.55-16.16,2.96-23.81.34-6.17.31-11.73-.1-17-.04-.54-.08-1.07-.11-1.6-.12-1.78-.24-3.45-.52-5.18-.32-1.95-.6-4.08-.83-6.32-.27-2.6-.19-5.32-.11-7.95.04-1.25.08-2.49.08-3.71,0-5.11.83-9.83,2.06-15.35l.98.22c-1.22,5.46-2.04,10.12-2.04,15.14,0,1.23-.04,2.48-.08,3.74-.08,2.6-.16,5.29.1,7.82.23,2.22.51,4.33.82,6.26.29,1.77.41,3.55.53,5.28.04.53.07,1.06.11,1.59.41,5.32.44,10.93.1,17.14-.42,7.7-1,15.9-2.99,24-.19.78-.33,1.58-.46,2.36-.13.78-.27,1.58-.46,2.38-.27,1.1-.4,2.32-.41,3.71-.02,3.38.25,6.8.51,10.11.26,3.28.52,6.67.51,10.04,0,.73,0,1.47.02,2.22.05,3.37.11,6.86-1.09,10.02l-1.08,2.86Z"/><path class="cls-1" d="m10.87,158.46l-.49-.22c-.61-.28-.53-1.23-.36-2.54.02-.13.03-.24.04-.3.03-.46.04-.91.06-1.37.01-.43.03-.85.05-1.28.02-.3.03-.6.05-.91.04-.88.08-1.79.25-2.69.06-.35.14-.69.21-1.03.14-.66.27-1.28.35-1.93.04-.38.11-.77.17-1.15.08-.47.16-.93.2-1.4,0-.08.02-.15.03-.23l-.19.24c-.22.28-.46.56-.7.83-.35.4-.68.78-.96,1.19-.22.32-.41.67-.61,1.04-.18.32-.35.65-.55.95l-.43.65c-.3.45-.59.9-.87,1.36l-.05.09c-.19.33-.41.71-.99.85l-.54.12-.07-.55c-.1-.88.04-1.72.19-2.52.07-.37.13-.75.17-1.12.11-1.03.33-1.96.73-3.1.18-.53.33-1.07.47-1.61.18-.67.36-1.36.62-2.04l.33-.84c.74-1.9,1.5-3.86,2.38-5.74.65-1.39,1.21-2.79,1.68-3.97l.28-.7c.59-1.46,1.2-2.97,1.03-4.51-.04-.34-.13-.77-.27-1.28-.04-.13-.07-.26-.09-.39l-.06-.26c-.01-.05-.03-.1-.05-.16-.02-.06-.05-.13-.07-.21l-.22-.05.04-.43.62-.44h0s.18-.13.18-.13c.04.06.08.12.11.18l.14.03.06.47s.03.15.07.24c.03.08.06.17.08.25.03.1.05.2.07.3.02.11.05.23.08.34.15.56.25,1.04.3,1.43.2,1.8-.46,3.43-1.09,5l-.27.69c-.47,1.2-1.04,2.61-1.7,4.03-.87,1.85-1.62,3.8-2.36,5.68l-.33.85c-.24.62-.41,1.25-.59,1.93-.15.55-.3,1.12-.49,1.68-.37,1.07-.58,1.93-.68,2.88-.04.4-.11.8-.18,1.19-.06.32-.11.64-.15.95.21-.34.44-.68.66-1.02l.42-.64c.18-.29.35-.59.51-.89.2-.38.42-.77.67-1.14.32-.46.68-.88,1.03-1.28.23-.26.45-.52.67-.79l.24-.31c.42-.54.89-1.16,1.43-1.54l1.38-.96-.64,1.56c-.04.09-.06.21-.08.35-.03.15-.06.31-.11.45-.14.41-.25.78-.28,1.13-.04.5-.12.99-.21,1.48-.06.36-.12.73-.17,1.1-.08.69-.22,1.37-.36,2.02-.07.33-.14.67-.21,1.01-.15.83-.19,1.67-.23,2.56-.01.31-.03.62-.05.92-.03.42-.04.83-.05,1.25,0,.23-.01.45-.02.68.09-.3.17-.61.25-.92.18-.68.36-1.37.61-2.05.38-1.03.9-1.98,1.39-2.87.46-.82.97-1.61,1.46-2.37.65-1.01,1.33-2.05,1.86-3.15.19-.4.41-.79.62-1.18.14-.26.28-.51.41-.77.6-1.15.89-2.38,1.19-3.68l.11-.48.97.23-.11.48c-.32,1.36-.62,2.64-1.28,3.91-.14.27-.28.53-.42.79-.21.37-.41.75-.6,1.14-.56,1.15-1.25,2.22-1.92,3.25-.49.75-.99,1.53-1.43,2.31-.47.85-.97,1.77-1.33,2.73-.23.63-.41,1.3-.58,1.95-.1.37-.2.74-.31,1.11-.25.86-.55,1.74-.94,2.78l-.19.5Z"/><path class="cls-1" d="m26.52,64.81l-.99-.16c.37-3.92.65-8.09.31-12.03-.04-.5-.04-1-.03-1.48,0-.24,0-.49,0-.73,0-.83-.12-1.61-.23-2.45-.07-.52-.14-1.04-.19-1.58-.05-.61-.11-1.21-.17-1.82-.2-2.04-.4-4.14-.4-6.26,0-1.59.08-2.97.27-4.34.07-.51.13-1.04.19-1.56.14-1.16.28-2.37.52-3.52.23-1.09.43-2.19.63-3.3.25-1.39.51-2.82.83-4.22.05-.21.1-.43.15-.65.15-.61.3-1.24.35-1.83.02-.26.02-.52.02-.77,0-.55-.01-1.12.21-1.74l.16-.44.2.04c-.01-.22-.03-.43-.04-.65l1-.07c.12,1.76.24,3.53.38,5.29.09.57.1,1.19.03,1.81-.03.29-.09.57-.14.85-.05.29-.11.57-.14.87-.04.41-.08.82-.11,1.22-.07.86-.14,1.74-.29,2.62-.13.79-.32,1.55-.62,2.47-.11.34-.18.69-.26,1.03-.09.41-.18.83-.32,1.24-.38,1.1-.61,2.03-.6,3.24,0,1.62.15,3.17.3,4.8.07.74.13,1.48.19,2.23.05.74.11,1.48.17,2.22.32,3.94.62,7.66.07,11.6-.17,1.17-.42,2.36-.68,3.51l-.18.82c-.12.57-.2,1.16-.28,1.74-.09.65-.18,1.32-.33,1.98Zm2.13-44.95c-.07.37-.16.73-.25,1.09-.05.21-.1.42-.15.63-.31,1.38-.57,2.8-.82,4.18-.2,1.11-.4,2.22-.63,3.32-.23,1.11-.37,2.29-.51,3.44-.06.53-.12,1.06-.2,1.58-.18,1.32-.26,2.66-.26,4.2,0,2.07.2,4.16.39,6.17.06.61.12,1.22.17,1.83.04.52.11,1.02.18,1.53.11.83.23,1.68.24,2.57,0,.25,0,.5,0,.76,0,.48-.02.93.02,1.37.12,1.34.17,2.71.16,4.08.54-3.83.24-7.49-.08-11.37-.06-.74-.12-1.48-.18-2.23-.05-.74-.12-1.48-.19-2.22-.15-1.59-.29-3.23-.3-4.89,0-1.36.25-2.37.66-3.57.12-.35.2-.73.29-1.12.08-.38.16-.76.28-1.13.28-.89.46-1.59.58-2.34.14-.84.21-1.67.28-2.54.03-.41.07-.83.11-1.24.03-.32.09-.63.15-.95.05-.26.1-.52.13-.79.06-.53.05-1.06-.03-1.58-.02-.26-.04-.53-.06-.79Z"/><path class="cls-1" d="m32.15,139.81l-.99-.11c.01-.83.04-1.65.06-2.47.02-.78.05-1.56.06-2.33.04-2.03-.3-3.83-.82-5.92-.32-1.31-.89-2.55-1.44-3.72-.16-.33-.29-.65-.43-.98-.23-.54-.44-1.05-.73-1.54-.2-.35-.42-.7-.63-1.04-.28-.45-.56-.89-.82-1.36l-.2-.37c-.2-.36-.4-.72-.58-1.08-.31-.61-.34-1.12-.38-1.67l-.02-.3c-.13-1.78.1-3.57.32-5.29.17-1.35.36-2.74.36-4.09v-11.68c0-.29,0-.59,0-.88,0-.84.17-1.32.4-1.97l.07-.21c.4-1.15.5-2.49.6-3.78l.05-.69c.18-2.13.17-4.43-.03-6.64-.08-.9-.24-1.84-.39-2.74-.07-.43-.14-.86-.21-1.28-.07-.46-.15-.92-.22-1.38-.14-.84-.29-1.72-.38-2.61-.21-1.96-.22-3.93-.22-6.11v-1.12c0-.75,0-1.5,0-2.24v-.26c0-.31-.01-.61.02-.91.03-.28.12-.7.2-.93.02-.21.05-.55.39-.66l.32-.1.28.3-.36.3.38.12c-.01.13-.02.24-.06.35-.05.17-.13.52-.15.74-.03.26-.02.52-.02.78v.27c0,.75,0,1.5,0,2.25v1.12c0,2.16.02,4.1.21,6.01.09.86.23,1.71.37,2.54.08.46.16.93.23,1.4.06.42.13.84.21,1.27.15.92.31,1.88.4,2.82.2,2.27.21,4.62.03,6.81l-.05.68c-.1,1.36-.21,2.76-.65,4.03l-.07.21c-.21.61-.34.97-.35,1.65,0,.29,0,.58,0,.87v11.68c0,1.42-.18,2.85-.36,4.22-.23,1.75-.44,3.41-.32,5.09l.02.31c.03.52.05.86.27,1.28.18.36.38.7.57,1.05l.21.37c.25.45.52.88.79,1.32.22.35.44.7.65,1.07.32.55.55,1.11.78,1.65.13.31.26.63.41.94.57,1.21,1.16,2.51,1.5,3.9.38,1.55.67,2.95.79,4.41.09-.93.14-1.87.14-2.81,0-.86,0-1.72-.01-2.58-.02-2.17-.04-4.41.13-6.6.11-1.43.07-2.88.03-4.28-.02-.84-.05-1.68-.04-2.53,0-1.37-.19-2.77-.39-4.12-.24-1.69-.5-3.45-.35-5.21.24-3.02.66-6.06,1.08-8.99.24-1.69.47-3.38.68-5.07l.22-1.81c.28-2.3.57-4.68.8-7.03.16-1.7.16-3.44.16-5.12v-.9c0-2.58-.18-5.19-.35-7.72l-.08-1.16c-.15-2.33-.14-4.71-.13-7,0-.66,0-1.32,0-1.97v-1.48c0-3.84,0-7.81-.24-11.7l-.06-.89c-.08-1.08-.16-2.19-.13-3.32.01-.49.03-.98.05-1.48.04-.97.07-1.98.07-2.97-.02-2.49-.25-5.06-.48-7.55-.1-1.16-.21-2.31-.29-3.45l1-.07c.08,1.14.19,2.28.29,3.43.23,2.51.46,5.1.48,7.63,0,1.01-.03,2.03-.07,3.02-.02.49-.04.98-.05,1.46-.03,1.07.05,2.11.13,3.22l.06.9c.25,3.92.25,7.91.25,11.77v1.48c0,.66,0,1.32,0,1.98-.01,2.28-.03,4.63.13,6.93l.08,1.16c.17,2.55.35,5.18.35,7.79v.89c0,1.71,0,3.47-.16,5.22-.23,2.36-.52,4.75-.8,7.05l-.22,1.81c-.2,1.7-.44,3.4-.68,5.09-.41,2.92-.83,5.94-1.07,8.94-.13,1.65.1,3.27.35,4.99.2,1.39.41,2.83.4,4.27,0,.83.02,1.66.04,2.49.04,1.43.08,2.9-.03,4.38-.16,2.15-.14,4.37-.12,6.51,0,.87.02,1.73.01,2.6-.01,3.28-.59,6.49-1.22,9.47Zm-5.77-77.82l-.34.29.34-.29Z"/><path class="cls-1" d="m30.82,157.99l-.48-.78c-.17-.27-.27-.68-.36-1.04-.03-.12-.06-.24-.09-.33-.28-.93-.49-1.85-.68-2.71-.54-2.52-.86-4.76-.97-6.85-.08-1.58-.12-3.19-.15-4.74-.02-1.05-.04-2.09-.08-3.14-.01-.36-.06-.67-.12-1-.03-.16-.05-.33-.08-.51-.01-.12-.02-.25-.03-.39,0-.01,0-.02,0-.04-.43.47-.75,1.08-1.08,1.86-.65,1.52-1.35,2.91-2.13,4.44-.14.28-.31.57-.49.88-.26.44-.53.91-.74,1.38-.01.07-.03.15-.04.22-.08.47-.17.96-.39,1.28l-1,1.43.08-1.74c.02-.51.17-1.01.38-1.49.02-.08.03-.16.05-.22.07-.28.16-.55.24-.82.06-.2.12-.39.18-.59.27-.94.42-1.89.58-2.89.07-.44.14-.88.22-1.31.2-1.08.48-2.15.75-3.18.27-1.03.55-2.09.74-3.15l.18-.96c.18-.96.38-1.94.49-2.92.26-2.28.13-4.66,0-6.97-.04-.65-.07-1.29-.1-1.93l1-.04c.03.63.06,1.27.1,1.92.13,2.35.27,4.77,0,7.14-.12,1.01-.31,2.02-.5,2.99l-.18.95c-.2,1.1-.49,2.18-.76,3.23-.27,1.02-.54,2.06-.73,3.11-.08.43-.15.86-.22,1.29-.04.23-.08.47-.12.71.53-1.05,1.02-2.07,1.48-3.15.44-1.03.96-2.09,2.02-2.78l.37-.24.29.33c.29.34.31.82.33,1.21,0,.11,0,.22.02.31.02.17.05.33.07.48.06.35.11.71.13,1.12.04,1.05.06,2.1.08,3.15.03,1.55.07,3.15.15,4.71.11,2.03.42,4.22.95,6.69.07.31.14.63.21.96v-1.41s0-1.38,0-1.38c0-.34,0-.68-.01-1.03-.02-1.05-.04-2.15.11-3.21.07-.47.08-.93.09-1.42,0-.38.02-.77.05-1.15.03-.38.08-.75.13-1.13.09-.7.17-1.36.17-2.04h1c0,.74-.09,1.47-.18,2.16-.05.36-.09.73-.12,1.09-.03.36-.04.73-.05,1.09-.01.5-.03,1.01-.1,1.54-.14.99-.12,2.04-.1,3.05,0,.35.01.7.01,1.05v1.38s0,2.76,0,2.76c0,.12,0,.24.01.36.02.5.05,1.07-.2,1.57l-.39.82Z"/></svg>