<svg id="Layer_1" class="mb-6" style="max-width: 400px;" xmlns="http://www.w3.org/2000/svg" viewBox="0 0 1855.42 1080"><defs><style>
  .fill-cashmere { fill: #e1dcd4; }
  .fill-trench-coat { fill: #b18654; }
</style></defs>
            <path class="fill-cashmere" d="m598.9,332.94c-2.6-4.63-3.9-7.54-3.78-9.29.03-1.33,1.48-2.46,2.53-3.1l-1.17-1.92-18.96,11.61,1.17,1.91c1.04-.64,5.05-2.49,6.25-1.91,3.53,1.67,10.9,14.49,12.5,17.1,2.27,4.11,3.11,11.72-3.55,15.68-10.78,6.6-22.5-5.11-33.31-22.77-10.65-17.39-13.92-33.68-4.55-39.06,5.5-3.13,14.68-.62,23.45,10.76l2.21-1.47-11.98-21.12-2,1.23,1.1,5.31c-5.34-.91-10.67.55-15.36,3.43-11.91,7.29-15.6,23.54-1.65,46.32,13.9,22.7,28.92,28.68,42.42,20.66,8.43-5.16,13.4-13.46,12.6-20.03l-7.92-13.32Z"/><path class="fill-cashmere" d="m665.83,328.6c13.01-5.84,17.54-22.63,6.65-46.89-11.07-24.63-25.87-30.72-38.88-24.88-13.2,5.93-18.17,21.23-7.23,45.59,10.89,24.26,26.35,32.07,39.46,26.18Zm-31.19-69.44c9.57-4.3,19.78,7.98,28.25,26.85,8.44,18.78,11.46,35.96,1.89,40.26-9.71,4.25-20.41-9.38-28.89-28.25-8.34-18.6-10.96-34.62-1.25-38.87Z"/><path class="fill-cashmere" d="m710.82,228.03l-20.07,6.2.51,1.66c1.62-.61,3.83-1.08,5.32.28,3.25,3.27,12.85,35.74,16.49,47.53,1.23,4,4.87,15.79,4.12,19.22-.19,1.13-2.89,2.39-4.22,2.91l.61,1.63,19.88-6.14c24.36-7.52,23.14-30.84,18.38-46.23-4.75-15.4-16.73-34.86-41.01-27.04Zm21.77,71.2l-4.39,1.35-6.07-19.68-15.03-49.37,4.19-1.3c16.89-5.11,25.69,12.35,30.5,27.94,4.81,15.59,7.62,35.75-9.21,41.05Z"/><path class="fill-cashmere" d="m822.61,204.24c2.73,2.92,7.22,15.1,8.71,19.16l18.71,52.33,5.38-.49,8.58-52.68,17.91,50.25,5.48-.5,8.9-54.75c.63-4.26,2.83-17.15,4.98-20.52.62-.98,2.73-1.48,4.05-1.6l-.16-1.73-14.92,1.37.15,1.63c1.23-.01,3.7.17,3.99,1.07,1.1,3.07-1.22,15.77-1.95,20.04-1.2,6.97-3.92,24.21-6.55,37.96-4.65-11.65-9.43-25.85-12.57-34.36-.43-1.29-.97-2.77-1.52-4.26-1.64-4.56-5.07-14.07-4.72-16.86.12-.93,3.03-1.61,4.25-1.72l-.06-1.73-20.91,1.91.16,1.73c1.32-.12,3.18.12,3.96.76,2.13,2.06,4.92,8.97,6.93,14.21-.31,2.18-.65,4.05-.84,5.3-1.21,6.97-3.93,24.1-6.57,37.86-4.65-11.65-9.64-25.93-12.65-34.25-.43-1.29-.97-2.78-1.52-4.26-1.64-4.56-5.07-14.07-4.72-16.86.22-.94,3.02-1.61,4.34-1.73l-.16-1.73-20.81,1.9.06,1.74c1.32-.12,3.27,0,4.07.85Z"/><path class="fill-cashmere" d="m956.06,270.15c-1.22-.03-3.15-.39-3.94-1.54-2.15-3.53-1.06-20.94-.68-35,.36-13.05.27-32.02,2.6-35.42.85-1.1,2.78-1.15,4.01-1.22l.05-1.73-20.49-.56-.05,1.73c1.22.13,3.16.29,3.84,1.43,2.04,3.42,1.11,22.78.76,35.41-.39,14.07-.46,31.81-2.69,35.01-.74,1.1-2.69,1.35-3.91,1.42l-.05,1.63,20.49.56.05-1.73Z"/><path class="fill-cashmere" d="m997.14,203.73c2.77-2.53,7.01-2.73,10.55-2.29,1.52.19,2.44,1.02,2.57,2.48.51,6.64-1.81,22.99-3.15,33.81-1.73,13.96-3.51,31.71-6.04,34.69-.84,1.03-2.79.99-4,.84l-.22,1.72,20.23,2.5.31-1.71c-1.22-.15-3.11-.59-3.78-1.8-1.8-3.71.96-21.04,2.68-35,1.37-11.13,2.87-27.38,5.08-33.67.48-1.38,1.6-2.06,3.21-1.86,3.74.47,7.25,2.03,9.67,4.89,1.55,4.09,1.12,10,1.51,11.89l2.01-.47c.43-4.26.96-11.9,1.56-16.75l-45.93-5.68c-.6,4.86-1.94,12.39-2.57,16.63l1.83.95c.83-1.75,2.24-8.15,4.46-11.16Z"/><path class="fill-cashmere" d="m1079.23,287.55c-1.16-.4-3.01-.97-3.53-2.26-1.32-3.91,3.58-20.75,7.03-34.39.08-.29.12-.49.2-.79l24.6,6.23c-.05.2-.12.5-.17.69-3.45,13.63-7.44,31.02-10.31,33.66-.97.91-2.87.54-4.08.33l-.43,1.68,19.76,5,.52-1.65c-1.16-.4-3.01-.97-3.53-2.26-1.32-3.91,3.57-20.75,7.03-34.39,3.2-12.65,7.26-31.17,10.28-33.98,1.07-.88,2.97-.51,4.18-.31l.32-1.7-19.76-5-.43,1.68c1.16.4,3.01.97,3.43,2.23,1.13,3.44-3.07,19.2-6.1,31.15l-24.6-6.23c2.98-12.18,6.61-27.76,9.36-30.33,1.06-.88,2.97-.51,4.18-.31l.43-1.68-19.86-5.03-.43,1.68c1.16.4,3.01.97,3.43,2.23,1.25,3.79-3.9,22.46-7,34.71-3.46,13.63-7.44,31.02-10.31,33.66-.97.91-2.87.53-4.08.33l-.42,1.68,19.86,5.03.43-1.68Z"/><path class="fill-cashmere" d="m1202.88,334.64c20.34,9.7,28.4-10.52,35.98-26.44,1.45-3.04,2.98-6.49,4.6-9.89,4.65-9.98,9.43-19.79,12.14-21.43,1.12-.71,2.96-.05,4.07.47l.75-1.56-13.35-6.36-.74,1.56c1.1.53,2.76,1.54,2.93,2.86.42,3.14-4.79,14.55-9.84,24.9-1.31,2.76-2.59,5.43-3.73,7.82-4.21,8.84-8.07,16.94-12.76,22.04-4.65,5.24-10.37,6.58-16.81,3.51-13.99-6.67-3.13-25.89,2.74-38.22,5.61-11.78,13.22-29.16,16.83-31.28,1.12-.71,2.87-.1,3.97.43l.75-1.57-18.6-8.86-.74,1.57c1.1.52,2.76,1.54,3.02,2.91.48,3.96-8.31,21.22-13.75,32.64-7.68,16.1-18.17,35.05,2.54,44.91Z"/><path class="fill-cashmere" d="m1255.32,360.9l2.72-2.74c1.62,4.29,5.06,9.14,10.48,12.58.09.05.26.16.43.27,10.81,6.75,23.88,4.43,30.84-7.46,12.05-20.48-12.32-38.02-3.37-51.9,3.61-5.68,10.48-6.99,15.73-3.65,6.74,4.41,6.38,15.05-.77,29.71l2.1,1.45c.28-.43,13.59-22.52,13.92-23.04l-2.03-1.17-2.41,2.46c-2.02-3.1-3.94-8.06-10.14-12-8.51-5.41-19.9-4.79-26.04,5.43-10.1,16.65,13.2,33.39,2.98,50.81-4.72,7.99-12.49,10.54-18.48,7.22-.26-.16-.43-.28-.69-.44-7.4-4.7-8.52-17.38.18-31.65l-2.47-1.44c-.18.48-14.78,23.82-14.97,24.31l1.98,1.26Z"/><path class="fill-trench-coat" d="m927.71,391.75c4.99,0,9.04-21.89,9.04-36.15s-3.95-16.63-8.94-16.63-9.14,2.37-9.14,16.63,4.05,36.15,9.04,36.15Z"/><path class="fill-trench-coat" d="m949.17,422.8c-.28,2.25,2.94,3.26,4.14,1.33,6.32-10.2,11.37-14.22,21.48-15.61,3.56-.49,6.08-3.73,5.81-7.31-.32-4.25-4.83-8.1-11.12-5.89-8.72,3.08-18.73,14.54-20.32,27.47Z"/><path class="fill-trench-coat" d="m941.35,403.5c.37,2.24,3.74,2.29,4.34.1,3.17-11.57,6.87-16.86,16.18-21.06,3.27-1.48,4.77-5.3,3.5-8.66-1.51-3.98-6.93-6.4-12.33-2.49-7.49,5.42-13.84,19.25-11.69,32.11Z"/><path class="fill-trench-coat" d="m984.79,455.68c9.1-4.8,1.6-20.15-14.87-12.5-1.13.52,10.71-14.05,29.52-.84,20.62,14.48,33.88-17.59,4.96-25.78-47.23-13.38-71.72,76.38-71.72,76.38,0,0-1.27,5.08,4.2,4.92,6.29-.18,6.48-12.68,16.19-29.24,12.45-21.23,22.75-8.22,31.71-12.94Z"/><circle class="fill-trench-coat" cx="927.71" cy="461" r="6.82"/><path class="fill-trench-coat" d="m902.11,424.13c1.2,1.93,4.41.92,4.14-1.33-1.59-12.93-11.6-24.39-20.32-27.47-6.28-2.22-10.8,1.64-11.12,5.89-.27,3.58,2.26,6.82,5.81,7.31,10.11,1.38,15.16,5.41,21.48,15.61Z"/><path class="fill-trench-coat" d="m902.38,371.4c-5.4-3.91-10.82-1.49-12.33,2.49-1.27,3.36.23,7.18,3.5,8.66,9.31,4.2,13,9.49,16.18,21.06.6,2.19,3.97,2.14,4.34-.1,2.14-12.85-4.2-26.68-11.69-32.11Z"/><path class="fill-trench-coat" d="m870.63,455.68c8.96,4.72,19.26-8.29,31.71,12.94,9.71,16.56,9.9,29.05,16.19,29.24,5.47.16,4.2-4.92,4.2-4.92,0,0-24.49-89.75-71.72-76.38-28.92,8.19-15.66,40.26,4.96,25.78,18.82-13.21,30.65,1.36,29.52.84-16.47-7.65-23.97,7.7-14.87,12.5Z"/><ellipse class="fill-trench-coat" cx="927.71" cy="424.85" rx="13.36" ry="22.78"/><path class="fill-cashmere" d="m432,674.38c-2.16,4.99-4.54,8.95-7.15,11.88-2.61,2.94-5.4,4.96-8.39,6.07-2.99,1.11-6.14,1.49-9.47,1.16-3.32-.22-6.26-1.99-8.81-5.32-2.55-3.32-4.62-7.89-6.23-13.71-1.61-5.81-2.82-12.68-3.66-20.6-.83-7.92-1.24-16.59-1.24-26s.33-17.86,1-25.67c.66-7.81,1.75-14.57,3.24-20.27,1.5-5.7,3.54-10.19,6.15-13.46,2.6-3.26,5.79-5.07,9.55-5.4,2.66-.22,5.46.66,8.39,2.66,2.93,1.99,5.62,4.76,8.06,8.31,2.43,3.55,4.46,7.7,6.06,12.46,1.6,4.76,2.41,9.8,2.41,15.12h4.49l.66-44.03h-3.99l-2.49,8.47c-3.32-3.32-6.95-5.57-10.88-6.73-3.93-1.16-8.17-1.74-12.71-1.74-5.87,0-11.35,1.39-16.45,4.15-5.09,2.77-9.5,7.04-13.21,12.79-3.72,5.76-6.65,13.07-8.81,21.93-2.16,8.86-3.24,19.38-3.24,31.57s1.08,22.87,3.24,32.07c2.16,9.2,5.12,16.87,8.89,23.01,3.76,6.15,8.2,10.74,13.3,13.79,5.09,3.05,10.52,4.51,16.28,4.41,5.87-.11,10.88-1.47,15.04-4.07,4.15-2.6,7.65-6.04,10.47-10.3,2.82-4.26,5.07-9.11,6.73-14.54,1.66-5.42,2.93-11.07,3.82-16.95h-5.48c-1.55,7.64-3.41,13.96-5.57,18.94Z"/><path class="fill-cashmere" d="m527.95,694.82c-1-.11-2.16-.3-3.49-.58-1.33-.27-2.27-.91-2.82-1.91-1-1.66-1.69-4.65-2.08-8.97-.39-4.32-.64-9.44-.75-15.37-.11-5.93-.11-12.27,0-19.02.11-6.76.16-13.35.16-19.77,0-.32,0-.67,0-1h32.91c0,.21,0,.45,0,.67,0,6.54.03,13.21.08,20.02.05,6.81.03,13.18-.08,19.11-.11,5.93-.39,11.08-.83,15.45-.44,4.38-1.11,7.34-1.99,8.89-.56.99-1.5,1.64-2.82,1.91-1.33.28-2.49.47-3.49.58v3.99h38.39v-3.99c-1-.11-2.16-.3-3.49-.58-1.33-.27-2.27-.91-2.83-1.91-1-1.66-1.69-4.65-2.08-8.97-.39-4.32-.64-9.44-.75-15.37-.11-5.93-.11-12.27,0-19.02.11-6.76.17-13.35.17-19.77,0-5.98-.06-12.35-.17-19.11-.11-6.76-.11-13.18,0-19.27.11-6.09.36-11.46.75-16.12.39-4.65,1.08-7.75,2.08-9.3.56-1,1.5-1.63,2.83-1.91,1.32-.28,2.49-.47,3.49-.58v-3.99h-38.39v3.99c1,.11,2.16.31,3.49.58,1.32.28,2.27.91,2.82,1.91.88,1.55,1.55,4.65,1.99,9.3.44,4.65.72,10.03.83,16.12.11,6.09.14,12.55.08,19.36-.03,4.02-.05,7.77-.06,11.38h-32.95c-.03-3.7-.07-7.49-.13-11.46-.11-6.76-.11-13.18,0-19.27.11-6.09.36-11.46.75-16.12.39-4.65,1.08-7.75,2.08-9.3.55-1,1.49-1.63,2.82-1.91,1.33-.28,2.49-.47,3.49-.58v-3.99h-38.38v3.99c1,.11,2.16.31,3.49.58,1.33.28,2.27.91,2.82,1.91.89,1.55,1.55,4.65,2,9.3.44,4.65.72,10.03.83,16.12.11,6.09.14,12.55.08,19.36-.06,6.81-.08,13.04-.08,18.69,0,6.54.02,13.21.08,20.02.05,6.81.03,13.18-.08,19.11-.11,5.93-.39,11.08-.83,15.45-.44,4.38-1.11,7.34-2,8.89-.55.99-1.49,1.64-2.82,1.91-1.33.28-2.49.47-3.49.58v3.99h38.38v-3.99Z"/><path class="fill-cashmere" d="m670.02,698.81v-3.99c-1.11,0-2.33-.16-3.66-.5-1.33-.33-2.22-.94-2.66-1.83-.66-1.44-1.19-3.74-1.58-6.89-.39-3.16-.64-6.54-.75-10.14-.11-3.6-.16-7.06-.16-10.38v-7.98c0-.78-.03-1.61-.09-2.49-.06-.88-.08-1.83-.08-2.83v-24.45c4.33,1.06,7.88,2.83,10.63,5.34,3.66,3.32,6.45,7.34,8.39,12.04,1.94,4.71,3.3,9.78,4.07,15.2.77,5.43,1.46,10.61,2.08,15.54.61,4.93,1.36,9.39,2.24,13.38.88,3.99,2.49,6.81,4.82,8.47,2.55,1.88,5.23,2.85,8.06,2.91,2.82.05,5.51-.44,8.05-1.49,2.55-1.05,4.85-2.46,6.9-4.24,2.05-1.77,3.52-3.49,4.4-5.15l-1.66-4.49c-.67.89-1.41,1.86-2.24,2.91-.83,1.06-1.86,1.58-3.08,1.58-2.1,0-3.66-1.55-4.65-4.65-1-3.1-1.86-6.98-2.57-11.63-.72-4.65-1.47-9.69-2.24-15.12-.77-5.43-1.99-10.5-3.66-15.2-1.66-4.71-3.99-8.66-6.98-11.88-2.97-3.19-6.98-4.89-12.02-5.14,1.38-.29,2.79-.53,4.12-.93,4.59-1.38,8.61-3.51,12.05-6.4,3.44-2.88,6.12-6.56,8.06-11.05,1.94-4.49,2.85-9.88,2.74-16.2-.11-4.76-.86-9.11-2.24-13.04-1.39-3.93-3.63-7.31-6.73-10.14-3.1-2.82-7.14-5.01-12.13-6.56-4.98-1.55-11.24-2.38-18.77-2.49l-7.31-.17-31.07.17v3.99c1.44-.11,2.93-.05,4.48.17,1.55.22,2.72,1.16,3.49,2.82.56,1.11,1.02,3.43,1.41,6.98.39,3.55.69,7.76.91,12.63.22,4.88.36,10.28.42,16.2.05,5.93.11,11.88.17,17.86.05,5.98.08,11.77.08,17.37s-.05,10.55-.16,14.87v13.3c0,3.32-.06,6.78-.17,10.38-.11,3.6-.36,6.98-.75,10.14-.39,3.16-.91,5.46-1.58,6.89-.44.89-1.33,1.49-2.66,1.83-1.33.33-2.55.5-3.66.5v3.99h37.72Zm-8.64-130.1c0-1.1.31-1.99.91-2.66.61-.66,1.47-1,2.58-1h3.65c3.76-.44,6.9.08,9.39,1.58,2.49,1.49,4.48,3.52,5.98,6.07,1.49,2.55,2.57,5.46,3.24,8.72.67,3.27,1,6.51,1,9.72,0,3.43-.3,6.98-.91,10.63-.61,3.66-1.63,6.95-3.07,9.89-1.44,2.93-3.41,5.34-5.9,7.23-2.49,1.88-5.62,2.88-9.38,2.99h-7.64l.16-53.17Z"/><path class="fill-cashmere" d="m803.6,694.66c-1,.11-2.16,0-3.49-.33-1.33-.33-2.27-1.05-2.82-2.16-1-1.55-1.69-4.48-2.08-8.81-.39-4.32-.64-9.44-.75-15.37-.11-5.93-.11-12.27,0-19.02.11-6.76.16-13.35.16-19.77,0-5.98-.05-12.35-.16-19.11-.11-6.76-.11-13.18,0-19.27.11-6.09.36-11.46.75-16.12.39-4.65,1.08-7.75,2.08-9.3.55-1,1.49-1.66,2.82-2,1.33-.33,2.49-.55,3.49-.66v-3.82h-38.38v3.82c1,.11,2.16.33,3.49.66,1.33.33,2.27,1,2.82,2,.89,1.55,1.55,4.65,2,9.3.44,4.65.72,10.03.83,16.12.11,6.09.14,12.55.08,19.36-.06,6.81-.08,13.04-.08,18.69,0,6.54.02,13.21.08,20.02.05,6.81.03,13.18-.08,19.11-.11,5.93-.39,11.08-.83,15.45-.44,4.38-1.11,7.34-2,8.89-.55.99-1.49,1.69-2.82,2.08-1.33.39-2.49.58-3.49.58v3.82h38.38v-4.15Z"/><path class="fill-cashmere" d="m911.19,626.03c-3.49-3.99-7.29-7.59-11.38-10.8-4.1-3.21-7.87-6.42-11.3-9.64-3.44-3.21-6.29-6.64-8.56-10.3-2.27-3.66-3.4-7.92-3.4-12.79,0-2.66.38-5.21,1.16-7.64.77-2.44,1.85-4.57,3.24-6.4,1.39-1.83,2.99-3.26,4.82-4.32,1.83-1.05,3.79-1.58,5.9-1.58,3.43,0,6.53,1.19,9.31,3.57,2.76,2.38,5.2,5.71,7.31,9.97,2.1,4.26,3.85,9.36,5.24,15.28,1.38,5.93,2.3,12.44,2.74,19.52l5.32.5v-4.15c0-2.55-.03-5.73-.09-9.55-.05-3.82-.11-7.92-.16-12.3-.06-4.37-.09-8.45-.09-12.21v-9.55c0-2.6-.05-3.96-.16-4.07h-3.82l-1.16,5.98c-1.33-.77-2.85-1.66-4.57-2.66-1.72-1-3.66-1.94-5.81-2.82-2.16-.89-4.52-1.63-7.06-2.24-2.55-.61-5.32-.91-8.31-.91-4.65,0-8.95.86-12.87,2.58-3.94,1.72-7.37,4.13-10.3,7.23-2.94,3.1-5.21,6.81-6.81,11.13-1.61,4.32-2.36,9.08-2.24,14.29.11,5.87,1.24,10.91,3.41,15.12,2.16,4.21,4.81,7.95,7.97,11.22,3.16,3.27,6.62,6.37,10.38,9.3,3.76,2.94,7.31,6.1,10.63,9.47,3.33,3.38,6.2,7.2,8.64,11.47,2.43,4.26,3.93,9.44,4.48,15.53.44,4.21.33,8.06-.33,11.55-.67,3.49-1.72,6.54-3.16,9.14-1.44,2.6-3.21,4.68-5.32,6.23-2.1,1.55-4.38,2.49-6.81,2.82-3.54.44-7-.5-10.38-2.82-3.38-2.33-6.37-5.79-8.97-10.38-2.61-4.59-4.71-10.19-6.32-16.78-1.61-6.59-2.47-13.82-2.58-21.68h-5.48v4.49c0,2.77.03,6.23.09,10.38.05,4.15.08,8.62.08,13.38v13.38c0,4.15.03,7.62.08,10.39.06,2.77.09,4.26.09,4.49h4.15l.83-7.48c2.99,2.55,6.84,4.85,11.55,6.9,4.71,2.05,10.11,3.02,16.21,2.91,5.42-.11,10.44-1.22,15.04-3.32,4.59-2.1,8.52-5.04,11.8-8.81,3.27-3.76,5.79-8.28,7.56-13.54,1.77-5.26,2.54-11.05,2.33-17.36-.23-7.09-1.55-13.21-3.99-18.36-2.43-5.15-5.4-9.72-8.89-13.71Z"/><path class="fill-cashmere" d="m1048.52,577.93c-.11-3.6-.2-7.11-.25-10.55-.05-3.43-.08-6.26-.08-8.47h-75.6c0,2.22-.03,5.04-.08,8.47-.06,3.44-.11,6.95-.17,10.55-.05,3.6-.14,7.06-.25,10.38-.11,3.32-.17,5.93-.17,7.81l3.99,1.33c.22-.89.38-2.13.5-3.74.11-1.6.3-3.46.58-5.57.28-2.1.61-4.38,1-6.81.38-2.44.97-4.87,1.74-7.31.33-1.11.69-2.21,1.08-3.32.38-1.11,1.02-2.16,1.91-3.16.89-1,2.19-1.88,3.9-2.66,1.72-.77,4.07-1.38,7.06-1.83,1.32-.11,2.46.16,3.4.83.94.66,1.53,1.72,1.75,3.16.55,2.99.94,6.95,1.16,11.88.22,4.93.36,10.28.42,16.03.05,5.76.08,11.63.08,17.61v36.3c0,6.81-.05,13.21-.17,19.19-.11,5.98-.36,11.16-.75,15.53-.39,4.38-1.02,7.34-1.91,8.89-.56,1-1.5,1.64-2.82,1.91-1.33.28-2.49.47-3.49.58v3.82h38.21l.17-3.82c-1-.11-2.16-.3-3.49-.58-1.33-.28-2.33-.91-2.99-1.91-.89-1.55-1.53-4.54-1.91-8.97-.39-4.43-.64-9.58-.75-15.45-.11-5.87-.14-12.21-.08-19.03.05-6.81.08-13.43.08-19.86,0-5.09-.03-10.66-.08-16.7-.06-6.04-.06-11.93,0-17.7.05-5.76.19-11.1.42-16.03.22-4.93.61-8.83,1.16-11.71.22-1.44.8-2.52,1.74-3.24.94-.72,2.13-.97,3.58-.75,2.77.33,5.01.94,6.73,1.83,1.72.89,3.07,1.88,4.07,2.99.99,1.11,1.69,2.22,2.08,3.32.39,1.11.69,2.05.91,2.83,1,2.99,1.71,5.71,2.16,8.14.44,2.44.75,4.65.91,6.65.17,1.99.28,3.71.33,5.15.06,1.44.2,2.6.42,3.49l3.99-1.33c-.11-1.88-.2-4.49-.25-7.81-.05-3.32-.14-6.78-.25-10.38Z"/><path class="fill-cashmere" d="m1189.5,683.69c-.39,4.21-1.03,7.09-1.91,8.64-.67.99-1.66,1.64-2.99,1.91-1.32.28-2.49.42-3.49.42v3.99h38.05v-3.99c-1,0-2.16-.14-3.49-.42-1.33-.27-2.27-.91-2.82-1.91-.89-1.66-1.55-4.57-2-8.72-.44-4.15-.69-9.08-.75-14.79-.06-5.7-.06-11.88,0-18.52.05-6.65.08-13.18.08-19.61,0-5.98-.03-12.44-.08-19.36-.06-6.92-.06-13.54,0-19.86.05-6.32.3-11.88.75-16.7.44-4.82,1.11-8,2-9.55.55-1,1.49-1.66,2.82-1.99,1.33-.33,2.49-.5,3.49-.5v-3.82h-33.73l-26.42,99.03-28.42-99.03h-31.9v3.82c1,0,2.16.16,3.49.5,1.33.33,2.33,1,2.99,1.99.89,1.55,1.52,4.65,1.91,9.31.39,4.65.64,10.05.75,16.2.11,6.15.13,12.63.08,19.44-.06,6.81-.08,13.04-.08,18.69,0,6.54.02,13.21.08,20.02.05,6.81.03,13.21-.08,19.19-.11,5.98-.36,11.16-.75,15.53-.39,4.38-1.02,7.34-1.91,8.89-.66,1-1.66,1.64-2.99,1.91-1.33.28-2.49.41-3.49.41v3.99h25.25v-3.99c-1,0-2.16-.13-3.49-.41-1.32-.28-2.27-.91-2.82-1.91-.89-1.55-1.53-4.54-1.91-8.97-.39-4.43-.64-9.58-.75-15.45-.11-5.87-.14-12.21-.09-19.03.05-6.81.09-13.43.09-19.86l-.34-50.68,34.9,120.3h5.98l33.57-126.78c.44,3.1.75,7.04.91,11.8.16,4.76.28,9.8.33,15.12.05,5.32.05,10.71,0,16.2-.05,5.48-.08,10.55-.08,15.2,0,6.54.03,13.12.08,19.77.05,6.65.03,12.85-.08,18.61-.11,5.76-.36,10.75-.75,14.96Z"/><path class="fill-cashmere" d="m1322.51,693.58c-.77.28-1.63.53-2.58.75-.94.22-1.91.39-2.9.5-1,.11-1.77.17-2.33.17v3.82h42.04v-3.82c-1.11-.11-2.39-.33-3.82-.67-1.44-.33-2.43-.94-2.99-1.83-1.11-1.44-2.22-3.74-3.32-6.89-1.11-3.16-2.16-6.54-3.16-10.14-1-3.6-1.88-7.09-2.65-10.47-.78-3.38-1.39-6.01-1.83-7.89l-22.1-98.2h-10.8l-22.1,98.2c-.44,1.88-1.05,4.51-1.82,7.89-.78,3.38-1.69,6.87-2.74,10.47-1.06,3.6-2.14,6.98-3.24,10.14-1.11,3.16-2.16,5.46-3.16,6.89-.66.89-1.77,1.49-3.32,1.83-1.56.33-2.94.56-4.15.67l.16,3.82h27.25v-3.82c-1.11-.11-2.55-.33-4.32-.67-1.77-.33-2.77-.94-2.99-1.83-.44-1.44-.48-3.74-.09-6.89.39-3.16.94-6.54,1.66-10.14.72-3.6,1.5-7.06,2.33-10.38.83-3.32,1.47-5.98,1.91-7.98.61-2.95,1.46-6.8,2.54-11.47h21.54c.96,4.35,1.8,8.19,2.51,11.47.44,1.99,1.05,4.65,1.83,7.98.77,3.32,1.52,6.78,2.24,10.38.72,3.6,1.3,6.98,1.74,10.14.44,3.16.44,5.46,0,6.89-.11.44-.55.81-1.33,1.08Zm-19.69-85.99c.68-2.87,1.36-5.66,2.03-8.43.4,1.62.81,3.2,1.21,4.86,1.66,6.81,3.21,13.46,4.65,19.94,1.16,5.21,2.25,10.13,3.3,14.87h-18.46c.86-3.71,1.75-7.56,2.7-11.71,1.44-6.26,2.96-12.77,4.57-19.53Z"/><path class="fill-cashmere" d="m1454.86,697.81c4.59-2.1,8.52-5.04,11.8-8.81,3.27-3.76,5.79-8.28,7.56-13.54,1.77-5.26,2.54-11.05,2.33-17.36-.23-7.09-1.55-13.21-3.99-18.36-2.43-5.15-5.4-9.72-8.89-13.71-3.49-3.99-7.29-7.59-11.38-10.8-4.1-3.21-7.87-6.42-11.3-9.64-3.44-3.21-6.29-6.64-8.56-10.3-2.27-3.66-3.4-7.92-3.4-12.79,0-2.66.39-5.21,1.16-7.64.77-2.44,1.85-4.57,3.24-6.4,1.38-1.83,2.99-3.26,4.82-4.32,1.83-1.05,3.79-1.58,5.9-1.58,3.43,0,6.53,1.19,9.31,3.57,2.76,2.38,5.2,5.71,7.31,9.97,2.1,4.26,3.85,9.36,5.24,15.28,1.38,5.93,2.3,12.44,2.74,19.52l5.32.5v-4.15c0-2.55-.03-5.73-.09-9.55-.05-3.82-.11-7.92-.16-12.3-.06-4.37-.09-8.45-.09-12.21v-9.55c0-2.6-.05-3.96-.16-4.07h-3.82l-1.16,5.98c-1.33-.77-2.85-1.66-4.57-2.66-1.71-1-3.66-1.94-5.81-2.82-2.16-.89-4.52-1.63-7.06-2.24-2.55-.61-5.32-.91-8.31-.91-4.65,0-8.95.86-12.87,2.58-3.94,1.72-7.37,4.13-10.3,7.23-2.94,3.1-5.21,6.81-6.81,11.13-1.61,4.32-2.36,9.08-2.24,14.29.11,5.87,1.24,10.91,3.41,15.12,2.16,4.21,4.81,7.95,7.97,11.22,3.16,3.27,6.62,6.37,10.38,9.3,3.76,2.94,7.31,6.1,10.63,9.47,3.33,3.38,6.2,7.2,8.64,11.47,2.43,4.26,3.93,9.44,4.48,15.53.44,4.21.34,8.06-.33,11.55-.67,3.49-1.72,6.54-3.16,9.14-1.44,2.6-3.21,4.68-5.32,6.23-2.1,1.55-4.38,2.49-6.81,2.82-3.54.44-7-.5-10.38-2.82-3.38-2.33-6.37-5.79-8.97-10.38-2.61-4.59-4.71-10.19-6.32-16.78-1.61-6.59-2.47-13.82-2.57-21.68h-5.48v4.49c0,2.77.03,6.23.09,10.38.05,4.15.08,8.62.08,13.38v13.38c0,4.15.03,7.62.08,10.39.05,2.77.09,4.26.09,4.49h4.15l.83-7.48c2.99,2.55,6.84,4.85,11.55,6.9,4.71,2.05,10.11,3.02,16.2,2.91,5.43-.11,10.44-1.22,15.04-3.32Z"/><path class="fill-cashmere" d="m277.63,901.98c-1.11-1.44-2.22-3.74-3.32-6.89-1.11-3.16-2.16-6.54-3.16-10.14-.99-3.6-1.88-7.09-2.65-10.47-.78-3.38-1.39-6.01-1.83-7.89l-22.1-98.2h-10.8l-22.1,98.2c-.44,1.88-1.05,4.51-1.82,7.89-.78,3.38-1.69,6.87-2.74,10.47-1.05,3.6-2.14,6.98-3.24,10.14-1.11,3.16-2.16,5.45-3.16,6.89-.67.89-1.77,1.49-3.32,1.83-1.56.33-2.94.56-4.15.67l.16,3.82h27.25v-3.82c-1.11-.11-2.55-.33-4.32-.67-1.77-.33-2.77-.94-2.99-1.83-.44-1.44-.48-3.74-.09-6.89.39-3.16.94-6.54,1.66-10.14.72-3.6,1.5-7.06,2.33-10.38.83-3.32,1.47-5.98,1.91-7.98.61-2.95,1.46-6.8,2.54-11.47h21.54c.96,4.35,1.8,8.19,2.51,11.47.44,1.99,1.05,4.65,1.83,7.98.77,3.32,1.52,6.78,2.24,10.38.72,3.6,1.3,6.98,1.74,10.14.44,3.16.44,5.45,0,6.89-.11.44-.55.81-1.33,1.08-.77.28-1.63.53-2.57.75-.94.22-1.91.39-2.9.5-1,.11-1.77.17-2.33.17v3.82h42.04v-3.82c-1.11-.11-2.39-.33-3.82-.67-1.44-.33-2.43-.94-2.99-1.83Zm-47.11-84.91c.68-2.87,1.36-5.66,2.03-8.43.4,1.62.81,3.2,1.21,4.86,1.66,6.81,3.21,13.46,4.65,19.94,1.16,5.21,2.25,10.13,3.3,14.87h-18.46c.86-3.71,1.75-7.56,2.7-11.71,1.44-6.26,2.96-12.77,4.57-19.53Z"/><path class="fill-cashmere" d="m393.11,787.42c-.11-3.6-.2-7.11-.25-10.55-.05-3.43-.08-6.26-.08-8.47h-75.6c0,2.22-.03,5.04-.08,8.47-.06,3.43-.11,6.95-.17,10.55-.05,3.6-.14,7.06-.25,10.38-.11,3.32-.17,5.93-.17,7.81l3.99,1.33c.22-.89.38-2.13.5-3.74.11-1.6.3-3.46.58-5.57.28-2.1.61-4.38,1-6.81.39-2.44.97-4.87,1.74-7.31.34-1.11.69-2.21,1.08-3.32.39-1.11,1.02-2.16,1.91-3.16.89-1,2.18-1.88,3.9-2.66,1.72-.77,4.07-1.38,7.06-1.83,1.32-.11,2.46.16,3.4.83.94.66,1.53,1.72,1.75,3.16.55,2.99.94,6.95,1.16,11.88.22,4.93.36,10.28.42,16.03.05,5.76.08,11.63.08,17.61v36.3c0,6.81-.05,13.21-.17,19.19-.11,5.98-.36,11.16-.75,15.53-.39,4.38-1.02,7.34-1.91,8.89-.56,1-1.5,1.64-2.82,1.91-1.33.28-2.49.47-3.49.58v3.82h38.21l.17-3.82c-1-.11-2.16-.3-3.49-.58-1.33-.28-2.33-.91-2.99-1.91-.89-1.55-1.53-4.54-1.91-8.97-.39-4.43-.64-9.58-.75-15.45-.11-5.87-.14-12.21-.08-19.03.05-6.81.08-13.43.08-19.86,0-5.09-.03-10.66-.08-16.7-.06-6.04-.06-11.93,0-17.69.05-5.76.19-11.1.42-16.03.22-4.93.61-8.83,1.16-11.71.22-1.44.8-2.52,1.74-3.24.94-.72,2.13-.97,3.57-.75,2.77.33,5.01.94,6.73,1.83,1.71.89,3.07,1.88,4.07,2.99,1,1.11,1.69,2.22,2.08,3.32.38,1.11.69,2.05.91,2.83.99,2.99,1.71,5.71,2.16,8.14.44,2.44.75,4.65.91,6.65.17,1.99.28,3.71.33,5.15.05,1.44.2,2.6.42,3.49l3.99-1.33c-.11-1.88-.19-4.49-.25-7.81-.05-3.32-.14-6.78-.25-10.38Z"/><path class="fill-cashmere" d="m576.88,772.05c1,0,2.43.22,4.32.67,1.88.44,3.1,1.16,3.65,2.16.89,1.55,1.53,4.65,1.92,9.3.38,4.65.67,10.03.83,16.12.17,6.09.22,12.55.17,19.36-.06,6.81-.08,13.04-.08,18.69v27.96l-45.03-97.91h-27.59v3.82c1,0,2.47.2,4.4.58,1.94.39,3.13,1.08,3.58,2.08.88,1.55,1.52,4.65,1.91,9.3.38,4.65.63,10.03.75,16.12.11,6.09.17,12.55.17,19.36v18.69c0,6.54.03,13.21.08,20.02.05,6.81.03,13.18-.08,19.11-.11,5.93-.39,11.08-.83,15.45-.44,4.38-1.11,7.34-1.99,8.89-.56,1-1.77,1.66-3.66,1.99-1.89.33-3.33.44-4.32.33v4.15h30.24v-4.15h-2.16c-1,0-2-.11-2.99-.33-1-.22-1.92-.5-2.74-.83-.83-.33-1.41-.72-1.75-1.16-1-1.66-1.69-4.65-2.08-8.97-.39-4.32-.64-9.44-.75-15.37-.11-5.93-.11-12.27,0-19.03.11-6.76.17-13.35.17-19.77v-40.39l51.68,110.01h9.97v-69.62c0-5.98-.03-12.35-.08-19.11-.06-6.76-.03-13.18.08-19.27.11-6.09.36-11.46.75-16.12.39-4.65,1.08-7.75,2.08-9.3.55-1,1.77-1.66,3.66-2,1.88-.33,3.32-.55,4.32-.66v-3.82h-28.58v3.65Z"/><path class="fill-cashmere" d="m727.5,877.14c-.94,2.82-1.97,5.81-3.07,8.97-1.11,3.16-2.24,6.06-3.41,8.72-1.16,2.66-2.08,4.27-2.74,4.82-.89.33-2.19.64-3.91.91-1.71.28-3.76.55-6.14.83-2.39.28-5.01.47-7.9.58-2.88.11-5.87.22-8.97.33-1.44,0-2.61-.36-3.49-1.08-.89-.72-1.44-1.74-1.66-3.07-.33-2.55-.67-5.9-1-10.05-.33-4.15-.61-8.86-.83-14.12-.22-5.26-.39-10.94-.5-17.03-.11-6.09-.17-12.3-.17-18.61,0-.02,0-.04,0-.05,5.32.17,9.62.3,12.8.39,3.88.11,6.87.5,8.97,1.16,1.44.55,2.6,1.99,3.49,4.32.89,2.33,1.58,4.85,2.08,7.56.5,2.72.91,5.32,1.24,7.81.33,2.49.61,4.13.83,4.9l3.99-.33c-.11-3.88-.2-8.33-.25-13.38-.06-5.04-.08-10.19-.08-15.45s.03-10.41.08-15.45c.05-5.04.14-9.5.25-13.38l-3.99-.33c-.22.89-.5,2.55-.83,4.99-.33,2.44-.75,5.04-1.24,7.81-.5,2.77-1.19,5.29-2.08,7.56-.89,2.27-2.05,3.68-3.49,4.24-2.1.66-5.1,1.08-8.97,1.24-3.16.14-7.45.25-12.74.35.03-4.21.04-8.45.11-12.56.11-6.09.28-11.8.5-17.11.22-5.32.5-10.08.83-14.29.33-4.21.67-7.59,1-10.14.22-1.33.77-2.35,1.66-3.07.89-.72,2.05-1.08,3.49-1.08,2.99.11,5.81.22,8.47.33,2.66.11,5.07.25,7.23.42,2.16.16,4.04.39,5.65.67,1.61.28,2.8.64,3.58,1.08.66.56,1.49,2.08,2.49,4.57,1,2.49,1.97,5.23,2.91,8.22.94,2.99,1.77,5.84,2.49,8.56.72,2.72,1.19,4.46,1.41,5.23l3.99-1.16c-.11-1.99-.2-4.46-.25-7.39-.05-2.93-.14-5.95-.25-9.05-.11-3.1-.2-6.17-.25-9.22-.06-3.05-.08-5.68-.08-7.89h-74.44v3.82c1,.11,2.16.31,3.49.58,1.33.28,2.27.91,2.82,1.91.89,1.44,1.53,4.38,1.91,8.81.38,4.43.67,9.64.83,15.62.17,5.98.22,12.38.17,19.19-.06,6.81-.08,13.43-.08,19.86s.02,13.07.08,19.94c.05,6.87,0,13.32-.17,19.36-.16,6.04-.44,11.27-.83,15.7-.39,4.43-1.03,7.37-1.91,8.81-.55,1-1.49,1.64-2.82,1.91-1.33.28-2.49.47-3.49.58v3.82h30.24l46.19.16c0-2.33.11-5.09.34-8.31.22-3.21.5-6.5.83-9.89.33-3.38.61-6.62.83-9.72.22-3.1.38-5.65.5-7.65l-3.99-1.16c-.23.78-.81,2.58-1.75,5.4Z"/><path class="fill-cashmere" d="m891.08,772.05c.56,0,1.22.06,2,.17.77.11,1.55.28,2.33.5.77.22,1.47.5,2.08.83.61.33.97.72,1.08,1.16.33,1.44.28,3.74-.17,6.9-.44,3.16-1,6.51-1.66,10.05-.67,3.55-1.38,7.01-2.16,10.38-.77,3.38-1.38,6.01-1.82,7.89-.78,3.21-1.77,7.53-2.99,12.96-1.22,5.43-2.58,11.36-4.07,17.78-1.5,6.43-3.07,13.07-4.74,19.94-.72,2.99-1.44,5.9-2.15,8.76-.96-3.64-1.98-7.28-2.83-10.92-1.44-6.2-2.8-12.21-4.07-18.03-1.27-5.82-2.47-11.33-3.57-16.53-1.11-5.2-2.11-9.86-2.99-13.95-.34-1-.67-2.3-1-3.91-.33-1.61-.72-3.41-1.16-5.4-.55-2.33-1.11-4.79-1.66-7.39-.56-2.6-1.02-5.12-1.41-7.56-.39-2.43-.67-4.62-.83-6.56-.16-1.94-.14-3.4.09-4.4.11-.44.55-.83,1.33-1.16.77-.33,1.66-.58,2.66-.75,1-.17,2-.31,2.99-.42.99-.11,1.71-.17,2.16-.17v-3.82h-41.04l-.17,3.82c1.1.11,2.27.33,3.49.66,1.22.33,2.16.67,2.82,1,1.22,1.55,2.41,3.93,3.57,7.14,1.16,3.21,2.27,6.65,3.32,10.3.73,2.54,1.34,4.96,1.96,7.4-.08.36-.14.71-.22,1.08-1,4.43-1.77,7.81-2.33,10.14-.78,3.21-1.77,7.5-2.99,12.88-1.22,5.37-2.55,11.24-3.99,17.61-1.44,6.37-2.99,12.96-4.65,19.77-.76,3.12-1.52,6.18-2.29,9.18-.73-2.82-1.52-5.55-2.2-8.43-1.55-6.54-3.02-12.88-4.4-19.03-1.39-6.15-2.66-11.99-3.83-17.53-1.16-5.54-2.24-10.36-3.24-14.45-.22-1-.52-2.3-.91-3.91-.39-1.61-.81-3.41-1.24-5.4-.44-2.33-.95-4.79-1.5-7.39-.55-2.6-1.02-5.12-1.41-7.56-.39-2.43-.64-4.62-.75-6.56-.11-1.94-.06-3.4.17-4.4,0-.44.38-.83,1.16-1.16.77-.33,1.66-.58,2.66-.75,1-.17,2-.31,2.99-.42,1-.11,1.71-.17,2.16-.17v-3.82h-41.04l-.17,3.82c1.1.11,2.35.28,3.74.5,1.39.22,2.35.78,2.91,1.66,1,1.44,2.08,3.74,3.24,6.9,1.16,3.16,2.27,6.56,3.32,10.22,1.05,3.65,2.02,7.17,2.91,10.55.88,3.38,1.55,6.07,1.99,8.06l21.93,98.2h10.8l21.02-93.39,20.86,93.39,1.03-2.37c-.35.87-.7,1.67-1.03,2.37h10.96l21.93-97.87c.44-1.88,1.11-4.54,2-7.98.89-3.43,1.83-7,2.82-10.72,1-3.71,2.08-7.17,3.24-10.39,1.16-3.21,2.24-5.54,3.24-6.98.55-.88,1.63-1.44,3.24-1.66,1.61-.22,2.91-.39,3.9-.5v-3.82h-27.42v3.65Z"/><path class="fill-cashmere" d="m1012.13,835.52c-3.49-3.99-7.29-7.59-11.38-10.8-4.1-3.21-7.87-6.42-11.3-9.64-3.43-3.21-6.29-6.65-8.56-10.3-2.27-3.66-3.4-7.92-3.4-12.79,0-2.66.39-5.21,1.16-7.64.77-2.44,1.85-4.57,3.24-6.4,1.39-1.83,2.99-3.26,4.82-4.32,1.83-1.05,3.79-1.58,5.9-1.58,3.44,0,6.53,1.19,9.31,3.57,2.76,2.38,5.2,5.71,7.31,9.97,2.1,4.26,3.85,9.36,5.23,15.29,1.39,5.93,2.3,12.43,2.74,19.52l5.32.5v-4.15c0-2.55-.03-5.73-.09-9.55-.05-3.82-.11-7.92-.16-12.3-.06-4.37-.09-8.45-.09-12.21v-9.55c0-2.6-.05-3.96-.16-4.07h-3.83l-1.16,5.98c-1.33-.77-2.85-1.66-4.57-2.66-1.71-1-3.66-1.94-5.81-2.82-2.16-.89-4.52-1.63-7.06-2.24-2.55-.61-5.32-.91-8.31-.91-4.65,0-8.95.86-12.87,2.58-3.94,1.72-7.37,4.13-10.3,7.23-2.94,3.1-5.21,6.81-6.81,11.13-1.61,4.32-2.36,9.08-2.24,14.29.11,5.87,1.24,10.91,3.41,15.12,2.16,4.21,4.81,7.95,7.97,11.22,3.16,3.27,6.62,6.37,10.39,9.3,3.76,2.94,7.31,6.1,10.63,9.47,3.33,3.38,6.2,7.2,8.64,11.47,2.43,4.26,3.93,9.44,4.48,15.53.44,4.21.33,8.06-.33,11.55-.66,3.49-1.72,6.54-3.16,9.14-1.44,2.6-3.21,4.68-5.32,6.23-2.1,1.55-4.38,2.49-6.81,2.82-3.54.44-7-.5-10.38-2.82-3.38-2.33-6.37-5.79-8.97-10.38-2.61-4.59-4.71-10.19-6.32-16.78-1.61-6.59-2.47-13.82-2.57-21.68h-5.48v4.49c0,2.77.03,6.23.09,10.38.05,4.15.08,8.62.08,13.38v13.38c0,4.15.03,7.62.08,10.38.05,2.77.09,4.26.09,4.49h4.15l.83-7.48c2.99,2.55,6.84,4.85,11.55,6.9,4.71,2.05,10.11,3.02,16.2,2.91,5.43-.11,10.44-1.22,15.04-3.32,4.59-2.1,8.52-5.04,11.8-8.81,3.27-3.76,5.79-8.28,7.56-13.54,1.77-5.26,2.54-11.05,2.33-17.37-.23-7.09-1.55-13.21-3.99-18.36-2.43-5.15-5.4-9.72-8.89-13.71Z"/><path class="fill-cashmere" d="m1145.06,777.53c-7.04-5.98-17.2-9.03-30.49-9.14l-6.15-.17-31.73.17v3.99c2.21-.22,3.96-.08,5.23.42,1.28.5,2.19,1.36,2.74,2.57,1.11,2.22,1.88,9.86,2.33,22.93.44,13.07.67,31.79.67,56.16v16.95c0,5.21-.05,9.83-.16,13.88-.11,4.04-.36,7.5-.75,10.38-.39,2.88-.97,4.98-1.74,6.31-.34.66-1.11,1.22-2.33,1.66-1.22.44-2.77.72-4.65.83v3.82h39.21v-3.82c-1.77-.11-3.21-.39-4.32-.83-1.11-.44-1.83-1-2.16-1.66-1.77-2.88-2.66-8.36-2.66-16.45v-30.24l.04-10.33,11.59-.13c5.54-.11,10.53-1.16,14.95-3.16,4.44-2,8.2-4.79,11.3-8.39,3.1-3.6,5.48-7.86,7.14-12.79,1.66-4.93,2.49-10.33,2.49-16.2,0-11.85-3.52-20.77-10.55-26.75Zm-11.22,39.63c-.77,4.05-1.99,7.62-3.65,10.72-1.67,3.1-3.8,5.57-6.4,7.39-2.61,1.83-5.79,2.74-9.56,2.74h-6.07l.26-60.81c0-1.22.28-2.13.83-2.74.55-.61,1.44-.91,2.66-.91h1c4.32-.11,7.89.53,10.71,1.91,2.82,1.38,5.07,3.4,6.73,6.06,1.67,2.66,2.83,5.93,3.49,9.8.67,3.88,1,8.25,1,13.13.11,4.43-.23,8.67-1,12.71Z"/><path class="fill-cashmere" d="m1288.79,897.25c-.83,1.06-1.86,1.58-3.08,1.58-2.1,0-3.66-1.55-4.65-4.65-1-3.1-1.85-6.98-2.57-11.63-.72-4.65-1.47-9.69-2.24-15.12-.77-5.43-1.99-10.5-3.66-15.2-1.66-4.71-3.99-8.67-6.98-11.88-2.97-3.19-6.98-4.89-12.02-5.14,1.38-.29,2.79-.53,4.13-.93,4.59-1.38,8.61-3.51,12.05-6.4,3.43-2.88,6.12-6.56,8.06-11.05,1.94-4.49,2.85-9.88,2.74-16.2-.11-4.76-.86-9.11-2.24-13.04-1.39-3.93-3.63-7.31-6.73-10.14-3.1-2.82-7.14-5.01-12.13-6.56-4.98-1.55-11.24-2.38-18.77-2.49l-7.31-.17-31.07.17v3.99c1.44-.11,2.93-.05,4.48.17,1.55.22,2.72,1.16,3.49,2.82.56,1.11,1.02,3.43,1.41,6.98.39,3.55.69,7.76.91,12.63.22,4.88.36,10.28.42,16.2.05,5.93.11,11.88.17,17.86.05,5.98.08,11.77.08,17.37s-.05,10.55-.16,14.87v13.3c0,3.32-.06,6.78-.17,10.38-.11,3.6-.36,6.98-.75,10.14-.39,3.16-.91,5.45-1.58,6.89-.44.89-1.33,1.49-2.66,1.83-1.33.33-2.55.5-3.66.5v3.99h37.72v-3.99c-1.11,0-2.33-.16-3.66-.5-1.33-.33-2.22-.94-2.66-1.83-.66-1.44-1.19-3.74-1.57-6.89-.39-3.16-.64-6.54-.75-10.14-.11-3.6-.16-7.06-.16-10.38v-7.98c0-.78-.03-1.61-.09-2.49-.06-.88-.08-1.83-.08-2.83v-24.45c4.33,1.06,7.88,2.83,10.63,5.34,3.66,3.32,6.45,7.34,8.39,12.04,1.94,4.71,3.3,9.78,4.07,15.2.77,5.43,1.46,10.61,2.08,15.54.61,4.93,1.36,9.39,2.24,13.38.88,3.99,2.49,6.81,4.82,8.47,2.55,1.88,5.23,2.85,8.06,2.91,2.82.05,5.51-.44,8.05-1.5,2.55-1.05,4.85-2.46,6.9-4.23,2.05-1.77,3.52-3.49,4.4-5.15l-1.66-4.49c-.67.89-1.41,1.85-2.24,2.91Zm-55.42-119.05c0-1.1.31-1.99.91-2.66.61-.66,1.47-.99,2.58-.99h3.65c3.76-.44,6.9.08,9.39,1.58,2.49,1.49,4.48,3.52,5.98,6.07,1.49,2.55,2.57,5.46,3.24,8.72.67,3.27,1,6.51,1,9.72,0,3.44-.3,6.98-.91,10.63-.61,3.66-1.63,6.95-3.07,9.89-1.44,2.93-3.41,5.34-5.9,7.23-2.49,1.88-5.62,2.88-9.38,2.99h-7.64l.16-53.17Z"/><path class="fill-cashmere" d="m1337.22,772.22c1,.11,2.16.33,3.49.66,1.33.33,2.27,1,2.82,2,.89,1.55,1.55,4.65,2,9.3.44,4.65.72,10.03.83,16.12.11,6.09.13,12.55.08,19.36-.06,6.81-.08,13.04-.08,18.69,0,6.54.02,13.21.08,20.02.05,6.81.03,13.18-.08,19.11-.11,5.93-.39,11.08-.83,15.45-.44,4.38-1.11,7.34-2,8.89-.55,1-1.49,1.69-2.82,2.08-1.33.39-2.49.58-3.49.58v3.82h38.38v-4.15c-.99.11-2.16,0-3.49-.33-1.33-.33-2.27-1.05-2.82-2.16-1-1.55-1.69-4.48-2.08-8.81-.39-4.32-.64-9.44-.75-15.37-.11-5.93-.11-12.27,0-19.03.11-6.76.16-13.35.16-19.77,0-5.98-.05-12.35-.16-19.11-.11-6.76-.11-13.18,0-19.27.11-6.09.36-11.46.75-16.12.39-4.65,1.08-7.75,2.08-9.3.55-1,1.49-1.66,2.82-2,1.33-.33,2.49-.55,3.49-.66v-3.82h-38.38v3.82Z"/><path class="fill-cashmere" d="m1486.42,772.05c1,0,2.43.22,4.32.67,1.88.44,3.1,1.16,3.65,2.16.89,1.55,1.53,4.65,1.92,9.3.38,4.65.67,10.03.83,16.12.17,6.09.22,12.55.17,19.36-.06,6.81-.08,13.04-.08,18.69v27.96l-45.03-97.91h-27.59v3.82c1,0,2.47.2,4.4.58,1.94.39,3.13,1.08,3.58,2.08.88,1.55,1.52,4.65,1.91,9.3.38,4.65.63,10.03.75,16.12.11,6.09.17,12.55.17,19.36v18.69c0,6.54.03,13.21.08,20.02.05,6.81.03,13.18-.08,19.11-.11,5.93-.39,11.08-.83,15.45-.44,4.38-1.11,7.34-1.99,8.89-.56,1-1.77,1.66-3.66,1.99-1.89.33-3.33.44-4.32.33v4.15h30.24v-4.15h-2.16c-1,0-2-.11-2.99-.33-1-.22-1.92-.5-2.74-.83-.83-.33-1.41-.72-1.75-1.16-1-1.66-1.69-4.65-2.08-8.97-.39-4.32-.64-9.44-.75-15.37-.11-5.93-.11-12.27,0-19.03.11-6.76.17-13.35.17-19.77v-40.39l51.67,110.01h9.97v-69.62c0-5.98-.03-12.35-.08-19.11-.06-6.76-.03-13.18.08-19.27.11-6.09.36-11.46.75-16.12.39-4.65,1.08-7.75,2.08-9.3.55-1,1.77-1.66,3.66-2,1.88-.33,3.32-.55,4.32-.66v-3.82h-28.58v3.65Z"/><path class="fill-cashmere" d="m1574.66,892.76c3.43,6.15,7.75,10.75,12.96,13.79,5.2,3.05,11.24,4.57,18.11,4.57,3.87,0,7.7-.47,11.46-1.41,3.76-.94,7.29-2.3,10.55-4.07,3.27-1.77,6.12-3.85,8.56-6.23,2.43-2.38,4.26-5.07,5.48-8.06l.67-28.25c.22-4.87.52-8.45.91-10.72.38-2.27.97-4.07,1.74-5.4.55-1.11,1.47-1.8,2.74-2.08,1.27-.28,2.41-.42,3.41-.42v-5.98h-41.04l-.17,5.98c.55,0,1.39.03,2.49.08,1.11.06,2.27.16,3.49.33,1.22.16,2.35.41,3.41.75,1.05.33,1.74.78,2.08,1.33.77,1.44,1.39,3.55,1.83,6.31.44,2.77.72,5.68.83,8.72.11,3.05.17,5.93.17,8.64v6.23c0,2.66-.33,5.62-1,8.89-.66,3.27-1.75,6.31-3.24,9.14-1.5,2.83-3.38,5.15-5.65,6.98-2.27,1.83-4.96,2.69-8.06,2.57-4.1,0-7.48-1.72-10.14-5.15-2.66-3.43-4.76-8.11-6.31-14.04-1.55-5.93-2.66-12.93-3.32-21.02-.67-8.08-1-16.89-1-26.42s.59-17.89,1.75-25.75c1.16-7.86,2.82-14.62,4.99-20.27,2.16-5.65,4.76-10.02,7.81-13.13,3.05-3.1,6.51-4.54,10.38-4.32,2.44.22,4.82,1.11,7.14,2.66,2.33,1.55,4.46,3.88,6.4,6.98,1.94,3.1,3.63,7.03,5.07,11.8,1.44,4.77,2.43,10.41,2.99,16.95l5.15-.17,1.5-45.2h-4.65l-2.83,8.97c-3.32-3.32-7.14-5.65-11.46-6.98-4.32-1.33-8.75-1.99-13.3-1.99-5.54,0-10.86,1.39-15.95,4.15-5.1,2.77-9.61,7.03-13.54,12.79-3.93,5.76-7.06,13.1-9.38,22.02-2.33,8.92-3.49,19.41-3.49,31.48s.88,22.85,2.65,31.99c1.77,9.14,4.38,16.78,7.81,22.93Z"/><path class="fill-trench-coat" d="m927.71,50.23C443.87,50.23,50.23,443.87,50.23,927.71v102.06h1754.96v-102.06c0-483.84-393.64-877.48-877.48-877.48Zm867.17,969.23H60.54v-91.75C60.54,449.55,449.55,60.54,927.71,60.54s867.17,389.01,867.17,867.17v91.75Z"/><path class="fill-trench-coat" d="m1782.5,566.59c-46.73-110.48-113.61-209.69-198.79-294.87-85.18-85.18-184.39-152.07-294.87-198.79C1174.43,24.54,1052.93,0,927.71,0s-246.72,24.54-361.12,72.93c-110.48,46.73-209.69,113.61-294.87,198.79-85.18,85.18-152.06,184.39-198.79,294.87C24.54,680.99,0,802.49,0,927.71v152.29h1855.42v-152.29c0-125.22-24.54-246.72-72.93-361.12Zm47.16,458.03v29.62H25.77v-126.52c0-121.75,23.85-239.87,70.89-351.09,45.43-107.41,110.46-203.86,193.28-286.68,82.82-82.82,179.28-147.85,286.68-193.28,111.21-47.04,229.34-70.89,351.09-70.89s239.87,23.85,351.08,70.89c107.41,45.43,203.86,110.46,286.68,193.28,82.82,82.82,147.85,179.27,193.28,286.68,47.04,111.22,70.89,229.34,70.89,351.09v96.9Z"/></svg>