<?xml version="1.0" encoding="UTF-8"?>
<svg id="Layer_1" data-name="Layer 1" xmlns="http://www.w3.org/2000/svg" viewBox="0 0 566.44 518.97">
  <defs>
    <style>
      .cls-1 {
        stroke-width: 0px;
      }
    </style>
  </defs>
  <path class="cls-1" d="m187.22,150.41c-7.9,2.28-15.92,4.2-23.67,6.89-22.44,7.8-44.64,16.28-67.18,23.76-15.52,5.15-31.44,8.21-48.07,5.08-21.42-4.03-34.5-17.04-39.33-37.6C1.58,117.14-2.59,85.32,1.78,52.94c1.98-14.68,6.56-28.5,13.66-41.45C19.67,3.76,25.84-.92,35.29.15c8.58.97,17.19,1.63,25.77,2.52,21.5,2.23,43.06,4,64.46,6.91,25.03,3.4,47.36,13.9,67.95,28.34,14.4,10.1,26.95,22.21,38.47,35.41,2.23,2.56,4.12,3.2,6.7,1.27,8.11-6.08,17.34-5.41,26.72-5.11,6.11.19,12.28-.59,18.37-1.37,7.93-1.01,15.25-.26,21.33,5.57,2.7,2.6,3.94.05,5.61-1.5,11.06-10.29,21.58-21.3,33.4-30.63,19.72-15.56,42.19-26.22,67.01-30.43,20.45-3.47,41.18-5.29,61.82-7.54,11.89-1.3,23.86-1.95,35.78-2.99,7.11-.62,12.8,2.25,15.74,8.36,4.8,9.98,9.52,20.17,12.67,30.75,5.05,16.92,4.84,34.5,3.91,52.04-1.04,19.49-2.82,38.88-8.42,57.67-7.43,24.94-26.44,38.46-52.59,38.03-17.09-.28-33.03-5.56-48.91-11.03-16.64-5.73-33.19-11.74-49.79-17.61-.73-.26-1.56-.26-3.48-.55,1.48,1.67,2.14,2.71,3.06,3.41,24.16,18.27,42.96,41.57,61.27,65.33,21.56,27.96,43.45,55.72,68.79,80.34,16.44,15.97,34.49,30.26,51.71,45.44,1.67,1.48,2.54,3.87,3.78,5.84-2.17,1.2-4.27,3.33-6.51,3.48-28,1.84-55.84.22-83.5-4.52-13.1-2.25-26.24-4.3-39.31-6.71-3.65-.67-4.53.92-4.53,3.87,0,12.14-.15,24.29.12,36.42.59,26.31,1.34,52.61,2.14,78.92.28,9.15,1.09,18.29,1.25,27.44.04,2.33-1.08,6.36-2.34,6.65-2.19.5-5.54-.62-7.32-2.25-16.44-15.06-29.71-32.7-41.36-51.65-19.37-31.5-33.84-65.27-46.23-99.98-11.24-31.49-22.65-62.94-32.87-94.76-4.19-13.03-5.92-26.92-7.97-40.54-2.78-18.39-5.8-36.44-17.91-51.67-3.06-3.85-4.01-9.38-5.92-14.15-.51-1.29-.98-2.59-1.51-4.02-10.38,6.68-13.16,16.47-14.4,27.34-2.52,22.15,2.05,43.33,7.71,64.49,4.67,17.5,9.41,35.01,13.09,52.73,5.03,24.21.21,47.54-9.88,69.58-14.12,30.85-23.73,63.16-33.19,95.6-6.02,20.64-13.71,40.66-24.64,59.29-.59,1-1.15,2.26-2.07,2.77-1.77.98-3.95,2.3-5.67,1.97-1.33-.25-2.83-2.66-3.22-4.35-3.01-12.97-5.6-26.03-8.62-38.99-7.28-31.26-14.59-62.51-22.15-93.7-2.96-12.22-3.3-12.2-14.83-7.22-17.23,7.45-34.12,15.84-51.72,22.27-17.57,6.42-35.8,11.08-53.85,16.08-3.14.87-8.44.91-10-.96-3.18-3.81,1.64-6.7,3.82-9.54,22.86-29.66,41.91-61.66,57.73-95.54,11.89-25.47,22.8-51.39,34.31-77.05,11.08-24.71,24.1-48.22,43.04-67.93,3.18-3.31,6.62-6.35,9.94-9.52-.28-.69-.57-1.38-.85-2.07Zm44.65-4.48c-5.04,0-8.9.11-12.76-.03-5.56-.2-10.22,1.71-14.78,4.88-15.37,10.7-27.94,24-38.37,39.5-16.95,25.19-27.92,53.29-39.67,81.01-18.88,44.57-40.64,87.53-69.46,126.63-1.07,1.45-1.85,3.13-3.14,5.37,1.77-.13,2.42-.08,3.03-.23,25.67-6.01,50.24-15.18,74.24-25.96,10.91-4.9,21.71-10.05,32.64-14.91,5.14-2.29,6.64-1.56,8.7,3.63,1.41,3.55,2.94,7.1,3.87,10.79,3.84,15.13,7.52,30.31,11.18,45.49,4.37,18.1,8.63,36.23,13,54.34,1.81,7.48,3.78,14.91,5.68,22.37l1.37.14c.94-1.63,2.13-3.16,2.78-4.9,5.38-14.5,11.45-28.8,15.8-43.61,9.58-32.62,20.54-64.69,34.39-95.74,10.45-23.44,13.37-47.62,7.06-72.65-4.83-19.19-10.12-38.27-14.77-57.51-4.1-16.92-6.21-34.07-2.92-51.45.91-4.84,2.02-9.63,3.31-15.73-9.7,10.04-14.2,21.96-20.85,32.53,1.55-11.69,4.66-22.75,10.22-33.07.77-1.43.42-3.47.58-5.23-1.67.72-3.76,1.02-4.93,2.22-12.06,12.4-21.92,26.61-28.87,42.27-11.66,26.28-21.94,53.18-32.83,79.81-.53,1.31-1.31,2.52-1.97,3.77-.46-.23-.92-.46-1.38-.69,10.75-47.87,25.25-94.13,58.83-133.05Zm193.45,341.12l1.97-.75c0-2.25.06-4.5-.01-6.75-.27-8.32-.64-16.64-.88-24.96-.78-26.98-1.74-53.95-2.17-80.93-.14-8.94,1.12-17.91,1.71-26.86.29-4.39,3-5.09,6.61-4.47,14.08,2.42,28.08,5.53,42.25,7.12,21.61,2.42,43.34,3.84,65.03,5.51,2.82.22,5.72-.58,8.58-.91.17-.48.35-.96.52-1.45-1.03-.77-2.11-1.48-3.08-2.31-7.1-6.03-14.32-11.92-21.23-18.16-26.38-23.8-49.75-50.39-72-78.04-18.03-22.41-35.96-44.96-55.07-66.43-15.76-17.71-35.27-30.79-57.83-38.86-9.37-3.35-19.04-2.77-30.17-3.29,16.93,19.91,29.05,40.99,38.29,63.72,10.96,26.96,21.35,65.04,19.16,70.4-.63-1.19-1.27-2.14-1.67-3.18-6.99-18.34-13.62-36.82-20.98-55.01-10.29-25.44-23.18-49.41-42.38-69.42-.99-1.03-3-1.08-4.54-1.58.12,1.44-.08,3,.4,4.3,3.41,9.13,7.04,18.18,10.43,27.32.87,2.33,1.13,4.89,1.67,7.35-.49.18-.98.36-1.46.54-6.35-13.89-13.94-26.97-24.41-38.21.67,3.07,1.79,5.96,3.64,8.24,11.15,13.73,16.41,29.56,19.04,46.95,2.68,17.71,5.96,35.53,11.27,52.58,8.69,27.92,19.23,55.26,29.02,82.83,15.7,44.25,34.87,86.77,62.73,124.88,4.96,6.79,10.38,13.24,15.58,19.85ZM197.88,88.84c.13-.52.27-1.04.4-1.56,7.52,1.63,15.13,2.94,22.53,5.02,4.22,1.19,7.05,1.86,7.28-3.88.06-1.59.77-3.31,1.64-4.68,1.68-2.64,1.23-4.43-1.2-6.35-12.01-9.44-23.5-19.61-35.98-28.39-22.15-15.6-46.54-26.36-73.6-30.11-12.67-1.75-25.42-2.92-38.15-4.26-13.38-1.41-26.77-2.73-40.17-4.05-11.14-1.1-13.65.36-18.98,10.36-6.68,12.56-10.29,26.13-11.19,40.12-1.9,29.39.19,58.57,8.23,87.05,2.93,10.38,8.63,18.96,18.6,24.21,14.26,7.5,29.21,6.28,43.75,2.41,16.64-4.43,32.95-10.2,49.18-16.02,32.05-11.49,63.65-24.68,98.77-22.68,3.31.19,4.01-1.76,3.75-4.41-.52-5.13-.84-10.32-1.95-15.33-.37-1.68-2.73-3.91-4.42-4.14-7.4-1-14.88-1.92-22.33-1.85-15.29.14-30.57.94-45.85,1.44-1.25.04-2.51-.11-3.77-.18.01-.43.02-.86.04-1.29,22.98-5.66,46.31-8.74,70.14-8.07.11-.63.22-1.26.33-1.89-9.02-3.83-18.03-7.65-27.05-11.48Zm189.59,21.48c-.02.42-.05.83-.07,1.25-2.7,0-5.4.15-8.09-.02-20.59-1.3-41.15-2.6-61.75.12-4.22.56-4.88,2.14-4.1,5.84.89,4.22,1.99,8.57,1.76,12.8-.28,5.06,1.85,5.89,6.1,5.74,14.29-.51,28.34,1.8,41.76,6.23,26.01,8.58,51.7,18.16,77.55,27.21,14.01,4.91,28.18,8.93,43.31,8.15,20.16-1.05,35.35-13.25,39.96-32.97,5.66-24.23,9.36-48.77,8.3-73.72-.79-18.62-4.57-36.62-13.83-53.16-3.17-5.66-7.47-7.9-13.89-7.26-25.65,2.54-51.33,4.66-76.96,7.37-16.59,1.76-32.63,5.91-47.87,13-23.32,10.85-43.62,26.02-62.71,43.03-7.93,7.07-8.81,10.13-4.7,20.88,10.05-2.59,19.87-6.77,30.77-5.77-8.77,3.8-17.53,7.59-26.3,11.39l.32,1.75c23.96-.76,47.34,2.66,70.44,8.14Zm-118.55-4.23c5.31,1.92,7.85,5.25,8.15,9.14.47,6,.17,12.16-.65,18.14-.55,3.99.51,6.43,3.85,8.09,6.46,3.2,18.12,1.58,22.75-3.86,1.91-2.24,3.54-6.28,2.88-8.89-3.25-12.85-4.63-25.77-4.62-39,0-8.79-4.56-12.61-13.27-12.45-2.15.04-4.29.53-6.44.6-7.55.25-15.17,1.12-22.65.44-11.43-1.04-20.41,4.94-21.38,16.33-.43,5.14,1.15,10.44,1.68,15.68.8,7.91,1.53,15.83,2.21,23.76.46,5.42,4.06,8.63,8.54,9.96,3.11.93,8.42,1.04,10.08-.84,7.81-8.87,13.92-18.79,10.18-31.61-.43-1.46-.72-2.96-1.31-5.48Z"/>
</svg>